if (_typeface_js && _typeface_js.loadFace) _typeface_js.loadFace({"glyphs":{"¦":{"x_min":267,"x_max":427,"ha":694,"o":"m 267 926 l 427 926 l 427 446 l 267 446 l 267 926 m 267 213 l 427 213 l 427 -231 l 267 -231 l 267 213 "},"Ő":{"x_min":46,"x_max":1044,"ha":1090,"o":"m 544 946 q 861 862 739 946 q 998 693 953 798 q 1044 457 1044 586 q 968 179 1044 297 q 745 10 891 60 q 551 -20 657 -20 q 208 85 343 -20 q 93 232 132 144 q 46 461 46 338 q 130 757 46 634 q 544 946 259 946 m 550 814 q 395 719 443 814 q 353 455 353 635 q 393 195 353 273 q 545 103 442 103 q 705 212 660 103 q 737 459 737 292 q 697 719 737 640 q 550 814 649 814 m 750 1202 l 912 1202 q 956 1192 948 1202 q 963 1174 963 1184 q 944 1143 963 1155 l 707 1006 l 613 1006 l 750 1202 m 449 1202 l 611 1202 q 656 1192 647 1202 q 663 1174 663 1184 q 643 1143 663 1155 l 406 1006 l 312 1006 l 449 1202 "},"Ž":{"x_min":50,"x_max":902,"ha":950,"o":"m 70 926 l 902 926 l 902 790 l 356 126 l 546 126 q 664 144 626 126 q 746 265 725 175 q 756 371 754 301 l 902 371 l 902 0 l 50 0 l 50 157 l 574 790 l 378 790 q 317 784 338 790 q 278 764 296 779 q 209 563 209 708 l 70 563 l 70 926 m 590 1007 l 393 1007 l 201 1202 l 412 1202 l 529 1103 l 658 1202 l 780 1202 l 590 1007 "},"Á":{"x_min":-26,"x_max":1048,"ha":1021,"o":"m 359 926 l 680 926 l 896 229 q 940 140 919 156 q 1001 126 958 126 l 1048 126 l 1048 0 l 520 0 l 520 126 l 574 126 q 626 131 616 126 q 641 158 641 139 q 622 229 641 170 l 599 301 l 314 301 l 290 229 q 272 160 272 170 q 336 126 272 126 l 397 126 l 397 0 l -26 0 l -26 126 l 18 126 q 75 140 56 126 q 123 229 98 156 l 359 926 m 562 421 l 459 732 l 352 421 l 562 421 m 564 1202 l 772 1202 q 816 1192 808 1202 q 823 1174 823 1184 q 804 1144 823 1153 l 525 1006 l 422 1006 l 564 1202 "},"Î":{"x_min":38.890625,"x_max":618.453125,"ha":659,"o":"m 611 126 l 611 0 l 45 0 l 45 126 l 123 126 q 183 142 171 126 q 193 184 191 154 q 195 255 193 191 l 195 669 q 190 763 193 747 q 169 794 187 787 q 123 800 153 800 l 45 800 l 45 926 l 611 926 l 611 800 l 532 800 q 473 783 484 800 q 462 741 464 771 q 461 669 462 734 l 461 255 q 465 162 462 177 q 486 131 468 138 q 532 126 501 126 l 611 126 m 228 1202 l 426 1202 l 618 1007 l 407 1007 l 290 1105 l 161 1007 l 38 1007 l 228 1202 "},"e":{"x_min":46,"x_max":720.265625,"ha":766,"o":"m 720 282 l 293 282 q 419 105 291 105 q 537 220 524 105 l 708 220 q 640 83 687 137 q 386 -20 549 -20 q 159 57 244 -20 q 70 188 100 110 q 46 321 46 252 q 98 507 46 424 q 383 654 190 654 q 720 282 715 654 m 486 388 q 470 482 482 454 q 394 529 450 529 q 314 477 338 529 q 295 388 300 446 l 486 388 "},"»":{"x_min":57.65625,"x_max":490,"ha":552,"o":"m 165 117 l 57 117 q 112 322 112 229 q 57 522 112 415 l 165 522 q 252 315 252 403 q 165 117 252 234 m 403 117 l 296 117 q 350 322 350 231 q 296 522 350 414 l 403 522 q 490 315 490 403 q 403 117 490 234 "},"∆":{"x_min":18.3125,"x_max":907.46875,"ha":926,"o":"m 18 0 l 368 907 l 549 907 l 907 0 l 18 0 m 219 124 l 702 124 l 459 759 l 219 124 "},"ļ":{"x_min":37,"x_max":496,"ha":509,"o":"m 387 926 l 387 248 q 390 145 387 154 q 410 123 395 126 q 453 120 422 120 l 496 120 l 496 0 l 37 0 l 37 120 l 83 120 q 137 129 127 120 q 148 168 146 139 q 149 248 148 178 l 149 677 q 145 780 148 770 q 125 802 140 799 q 83 806 115 806 l 37 806 l 37 926 l 387 926 m 183 -339 l 183 -293 q 199 -293 191 -293 q 262 -278 235 -293 q 298 -223 289 -264 q 238 -242 265 -242 q 171 -213 196 -242 q 150 -158 150 -190 q 185 -90 150 -115 q 262 -69 216 -69 q 354 -104 320 -69 q 387 -191 387 -136 q 334 -300 387 -258 q 216 -341 283 -341 q 183 -339 202 -341 "},"ò":{"x_min":46,"x_max":930,"ha":934,"o":"m 389 633 l 389 541 q 468 621 431 600 q 612 654 522 654 q 800 579 752 654 q 827 485 824 541 q 829 395 829 454 l 829 248 q 832 145 829 154 q 852 123 837 126 q 894 119 862 119 l 930 119 l 930 0 l 517 0 l 517 119 l 523 119 q 578 129 568 119 q 589 168 587 138 q 590 248 589 178 l 590 393 q 576 483 590 457 q 494 529 552 529 q 411 486 437 529 q 389 393 389 450 l 389 248 q 392 145 389 155 q 411 123 397 126 q 453 119 423 119 l 464 119 l 464 0 l 46 0 l 46 119 l 89 119 q 143 129 133 119 q 154 168 152 138 q 155 248 154 178 l 155 384 q 151 487 154 477 q 131 509 146 506 q 89 513 120 513 l 46 513 l 46 633 l 389 633 m 560 722 l 381 722 l 228 943 l 423 943 l 497 831 l 598 943 l 706 943 l 560 722 "},"ţ":{"x_min":26,"x_max":611.640625,"ha":646,"o":"m 390 893 l 390 633 l 556 633 l 556 513 l 390 513 l 390 236 q 396 140 390 172 q 441 105 405 105 q 485 139 473 105 q 494 223 494 163 q 492 312 494 245 l 611 312 q 611 244 611 255 q 597 102 612 142 q 392 -20 552 -20 q 200 49 263 -20 q 156 144 163 89 q 152 236 152 182 l 152 513 l 26 513 l 26 624 q 173 693 123 633 q 227 893 225 758 l 390 893 m 270 -339 l 270 -293 q 286 -293 278 -293 q 349 -278 322 -293 q 385 -223 376 -264 q 325 -242 352 -242 q 258 -213 283 -242 q 237 -158 237 -190 q 272 -90 237 -115 q 349 -69 303 -69 q 441 -104 407 -69 q 474 -191 474 -136 q 421 -300 474 -258 q 303 -341 370 -341 q 270 -339 289 -341 "},"^":{"x_min":7.453125,"x_max":687.71875,"ha":695,"o":"m 174 385 l 7 385 l 269 932 l 425 932 l 687 385 l 520 385 l 347 735 l 174 385 "},"«":{"x_min":62,"x_max":493.75,"ha":552,"o":"m 385 522 l 493 522 q 440 316 440 408 q 493 117 440 224 l 385 117 q 300 323 300 235 q 341 455 300 384 q 385 522 354 479 m 147 522 l 255 522 q 202 316 202 407 q 255 117 202 224 l 147 117 q 62 324 62 234 q 103 455 62 384 q 147 522 116 479 "},"∙":{"x_min":54,"x_max":280,"ha":332,"o":"m 168 444 q 250 406 216 444 q 280 331 280 374 q 242 247 280 281 q 166 218 210 218 q 83 255 117 218 q 54 332 54 287 q 91 414 54 380 q 168 444 123 444 "},"":{"x_min":50,"x_max":902,"ha":950,"o":"m 70 926 l 902 926 l 902 790 l 356 126 l 546 126 q 664 144 626 126 q 746 265 725 175 q 756 371 754 301 l 902 371 l 902 0 l 50 0 l 50 157 l 574 790 l 378 790 q 317 784 338 790 q 278 764 296 779 q 209 563 209 708 l 70 563 l 70 926 m 519 1202 l 727 1202 q 771 1192 763 1202 q 778 1174 778 1184 q 759 1144 778 1153 l 480 1006 l 377 1006 l 519 1202 "},"í":{"x_min":46,"x_max":503,"ha":508,"o":"m 396 633 l 396 248 q 399 145 396 155 q 418 123 404 127 q 459 120 430 120 l 503 120 l 503 0 l 46 0 l 46 120 l 92 120 q 148 132 139 120 q 157 175 156 142 q 158 248 157 182 l 158 384 q 154 487 157 478 q 134 509 149 505 q 92 513 122 513 l 46 513 l 46 633 l 396 633 m 246 943 l 408 943 q 447 937 439 943 q 460 915 460 929 q 440 884 460 902 l 263 722 l 170 722 l 246 943 "},"ū":{"x_min":5,"x_max":888,"ha":893,"o":"m 775 633 l 775 248 q 778 145 775 155 q 797 123 783 127 q 839 120 809 120 l 888 120 l 888 0 l 542 0 l 542 92 q 325 -21 480 -21 q 149 42 201 -21 q 110 143 113 84 q 109 233 109 170 l 109 384 q 105 487 108 478 q 85 509 100 506 q 43 513 72 513 l 5 513 l 5 633 l 342 633 l 342 239 q 361 130 342 158 q 432 100 383 100 q 542 239 542 100 l 542 384 q 538 487 541 477 q 518 509 533 505 q 476 513 506 513 l 426 513 l 426 633 l 775 633 m 199 872 l 657 872 l 657 760 l 199 760 l 199 872 "},"ņ":{"x_min":46,"x_max":930,"ha":934,"o":"m 389 633 l 389 541 q 468 621 431 600 q 612 654 522 654 q 800 579 752 654 q 827 485 824 541 q 829 395 829 454 l 829 248 q 832 145 829 154 q 852 123 837 126 q 894 119 862 119 l 930 119 l 930 0 l 517 0 l 517 119 l 523 119 q 578 129 568 119 q 589 168 587 138 q 590 248 589 178 l 590 393 q 576 483 590 457 q 494 529 552 529 q 411 486 437 529 q 389 393 389 450 l 389 248 q 392 145 389 155 q 411 123 397 126 q 453 119 423 119 l 464 119 l 464 0 l 46 0 l 46 119 l 89 119 q 143 129 133 119 q 154 168 152 138 q 155 248 154 178 l 155 384 q 151 487 154 477 q 131 509 146 506 q 89 513 120 513 l 46 513 l 46 633 l 389 633 m 404 -339 l 404 -293 q 420 -293 412 -293 q 483 -278 456 -293 q 519 -223 510 -264 q 459 -242 486 -242 q 392 -213 417 -242 q 372 -158 372 -190 q 408 -90 372 -115 q 484 -69 438 -69 q 577 -104 543 -69 q 610 -191 610 -136 q 556 -300 610 -258 q 437 -341 505 -341 q 404 -339 423 -341 "},"µ":{"x_min":5,"x_max":866,"ha":870,"o":"m 271 -17 q 290 -63 284 -48 q 326 -186 326 -150 q 308 -245 326 -219 q 256 -281 291 -268 q 187 -294 224 -294 q 90 -265 133 -294 q 48 -181 48 -236 q 74 -41 48 -144 q 99 87 94 36 q 106 229 106 149 l 106 378 q 106 405 106 390 q 105 432 105 427 q 90 493 105 484 q 42 500 80 500 l 5 500 l 5 617 l 333 617 l 333 233 q 352 127 333 154 q 422 98 374 98 q 515 152 492 98 q 528 233 528 183 l 528 375 q 524 475 527 465 q 505 496 519 493 q 465 500 494 500 l 416 500 l 416 617 l 755 617 l 755 241 q 758 141 755 150 q 777 120 763 123 q 818 117 789 117 l 866 117 l 866 0 l 528 0 l 528 89 q 321 -21 469 -21 q 271 -17 303 -21 "},"č":{"x_min":45,"x_max":690,"ha":741,"o":"m 542 241 l 687 241 q 636 85 675 144 q 399 -20 566 -20 q 167 47 256 -20 q 70 180 102 96 q 45 320 45 248 q 173 589 45 500 q 391 653 262 653 q 570 612 490 653 q 671 506 637 578 q 690 426 690 469 q 641 314 690 356 q 551 282 604 282 q 459 318 494 282 q 430 391 430 349 q 465 470 430 440 q 517 491 490 491 q 542 487 526 491 q 446 528 499 528 q 300 310 300 528 q 328 167 300 224 q 433 105 359 105 q 542 241 535 105 m 476 722 l 298 722 l 145 943 l 340 943 l 415 831 l 514 943 l 622 943 l 476 722 "},"’":{"x_min":42,"x_max":283,"ha":319,"o":"m 61 587 l 61 649 q 126 678 103 659 q 173 748 157 702 q 131 735 155 735 q 71 759 96 735 q 42 835 42 789 q 81 919 42 887 q 159 946 115 946 q 258 895 222 946 q 283 809 283 862 q 190 634 283 697 q 61 587 141 601 "},"-":{"x_min":0,"x_max":361,"ha":361,"o":"m 0 415 l 361 415 l 361 250 l 0 250 l 0 415 "},"Q":{"x_min":46,"x_max":1164,"ha":1161,"o":"m 1082 246 l 1161 246 q 1164 175 1164 196 q 1128 3 1164 58 q 1002 -56 1089 -56 q 877 -19 938 -56 q 810 33 852 -3 q 668 -8 727 2 q 533 -20 609 -20 q 225 66 345 -20 q 107 201 148 121 q 46 459 46 318 q 145 775 46 652 q 547 946 283 946 q 888 838 764 946 q 1009 653 969 768 q 1042 458 1042 559 q 958 161 1042 292 q 1028 134 994 134 q 1066 151 1050 134 q 1085 213 1085 174 q 1082 246 1085 224 m 370 252 q 389 340 377 310 q 441 403 406 380 q 538 433 484 433 q 730 348 633 433 q 737 476 737 422 q 688 742 737 664 q 547 823 638 823 q 395 727 442 823 q 351 463 351 639 q 370 252 351 363 m 673 161 q 658 175 666 168 q 573 250 614 219 q 495 281 532 281 q 447 263 466 281 q 424 206 424 242 q 457 132 424 163 q 543 103 491 103 q 635 131 592 103 q 673 161 647 139 "},"M":{"x_min":46,"x_max":1420,"ha":1466,"o":"m 880 926 l 1420 926 l 1420 800 l 1341 800 q 1281 783 1293 800 q 1271 741 1273 771 q 1270 669 1271 734 l 1270 255 q 1273 162 1271 177 q 1295 131 1277 138 q 1341 126 1310 126 l 1420 126 l 1420 0 l 880 0 l 880 126 l 927 126 q 987 142 975 126 q 997 184 995 154 q 999 255 997 191 l 999 776 l 786 0 l 568 0 l 353 776 l 353 255 q 357 162 354 177 q 378 131 360 138 q 425 126 394 126 l 473 126 l 473 0 l 46 0 l 46 126 l 124 126 q 184 142 172 126 q 194 184 192 154 q 196 255 194 191 l 196 669 q 192 763 194 747 q 170 794 188 787 q 124 800 154 800 l 46 800 l 46 926 l 586 926 l 732 364 l 880 926 "},"œ":{"x_min":45,"x_max":697,"ha":737,"o":"m 667 633 l 667 420 l 557 420 q 380 539 530 539 q 289 483 289 539 q 297 462 289 471 q 393 422 316 440 q 559 372 509 393 q 678 282 650 336 q 697 204 697 247 q 652 74 697 132 q 416 -21 578 -21 q 239 12 316 -21 q 174 50 212 24 l 161 0 l 52 0 l 52 231 l 161 231 q 234 134 182 167 q 374 94 298 94 q 465 145 465 94 q 458 166 465 158 q 366 206 441 186 q 204 255 246 238 q 45 441 45 318 q 135 603 45 544 q 351 654 211 654 q 498 628 437 654 q 557 598 522 619 l 570 633 l 667 633 m 352 943 l 513 943 q 552 937 544 943 q 565 915 565 929 q 545 884 565 902 l 368 722 l 275 722 l 352 943 "},"ě":{"x_min":46,"x_max":720.265625,"ha":766,"o":"m 720 282 l 293 282 q 419 105 291 105 q 537 220 524 105 l 708 220 q 640 83 687 137 q 386 -20 549 -20 q 159 57 244 -20 q 70 188 100 110 q 46 321 46 252 q 98 507 46 424 q 383 654 190 654 q 720 282 715 654 m 486 388 q 470 482 482 454 q 394 529 450 529 q 314 477 338 529 q 295 388 300 446 l 486 388 m 476 722 l 297 722 l 144 943 l 339 943 l 413 831 l 513 943 l 621 943 l 476 722 "},"―":{"x_min":0,"x_max":1065,"ha":1065,"o":"m 0 415 l 1065 415 l 1065 250 l 0 250 l 0 415 "},"{":{"x_min":98,"x_max":542,"ha":695,"o":"m 320 322 q 375 271 360 295 q 403 147 403 228 l 403 -25 q 410 -123 403 -110 q 456 -150 421 -145 q 515 -154 479 -154 q 542 -153 522 -154 l 542 -278 q 384 -281 418 -281 q 282 -268 318 -281 q 187 -176 209 -243 q 175 -81 175 -136 l 175 134 q 156 225 175 200 q 98 258 136 251 l 98 386 q 156 418 140 394 q 175 510 175 445 l 175 726 q 233 888 175 843 q 325 923 270 916 q 386 926 348 926 q 542 923 440 926 l 542 798 q 514 799 522 799 q 427 786 448 799 q 403 742 406 774 q 403 670 403 730 l 403 497 q 374 371 403 412 q 320 322 361 350 "},"¼":{"x_min":46,"x_max":951,"ha":937,"o":"m 951 378 l 951 0 l 46 0 l 46 127 l 124 127 q 184 143 172 127 q 194 185 192 155 q 196 256 194 192 l 196 669 q 191 763 194 747 q 170 794 188 787 q 124 800 154 800 l 46 800 l 46 926 l 617 926 l 617 800 l 538 800 q 478 782 490 800 q 468 741 470 771 q 467 669 468 733 l 467 126 l 632 126 q 724 142 694 126 q 799 257 778 174 q 811 378 809 297 l 951 378 m 709 672 l 709 719 q 725 718 720 718 q 820 789 814 718 q 760 774 785 774 q 693 802 718 774 q 672 856 672 825 q 707 924 672 899 q 786 946 738 946 q 881 911 845 946 q 913 824 913 880 q 860 709 913 751 q 738 670 809 670 q 709 672 729 670 "},"#":{"x_min":75.96875,"x_max":774.53125,"ha":834,"o":"m 739 414 l 720 294 l 579 294 l 532 0 l 410 0 l 457 294 l 337 294 l 290 0 l 170 0 l 217 294 l 75 294 l 94 414 l 236 414 l 255 531 l 114 531 l 133 651 l 274 651 l 317 926 l 437 926 l 394 651 l 513 651 l 556 926 l 678 926 l 635 651 l 774 651 l 755 531 l 616 531 l 598 414 l 739 414 m 494 531 l 375 531 l 356 414 l 476 414 l 494 531 "},"Ê":{"x_min":46,"x_max":1000,"ha":1070,"o":"m 972 0 q 902 -98 902 -39 q 958 -157 902 -157 q 1000 -151 972 -157 l 1000 -263 q 919 -275 957 -275 q 792 -237 835 -275 q 755 -143 755 -203 q 849 0 755 -53 l 46 0 l 46 127 l 124 127 q 184 143 172 127 q 194 185 192 155 q 196 257 194 192 l 196 669 q 192 762 194 748 q 170 793 188 787 q 124 799 154 799 l 46 799 l 46 926 l 1000 926 l 1000 568 l 854 568 q 812 740 854 678 q 731 794 785 780 q 650 800 711 800 l 467 800 l 467 537 l 514 537 q 611 594 589 537 q 620 682 620 616 l 743 682 l 743 266 l 620 266 q 621 294 620 284 q 591 389 621 362 q 511 414 564 414 l 467 414 l 467 126 l 620 126 q 741 133 715 126 q 821 200 789 147 q 851 313 844 239 q 854 380 852 330 l 1000 380 l 1000 0 l 972 0 "},")":{"x_min":22,"x_max":533,"ha":583,"o":"m 22 -289 l 22 -160 q 160 -105 107 -158 q 243 76 221 -44 q 261 356 261 174 q 231 640 261 548 q 37 814 178 805 l 37 943 q 313 852 197 935 q 476 657 423 774 q 533 335 533 533 q 406 -104 533 52 q 22 -289 263 -282 "},"Å":{"x_min":46,"x_max":951,"ha":937,"o":"m 951 378 l 951 0 l 46 0 l 46 127 l 124 127 q 184 143 172 127 q 194 185 192 155 q 196 256 194 192 l 196 669 q 191 763 194 747 q 170 794 188 787 q 124 800 154 800 l 46 800 l 46 926 l 617 926 l 617 800 l 538 800 q 478 782 490 800 q 468 741 470 771 q 467 669 468 733 l 467 126 l 632 126 q 724 142 694 126 q 799 257 778 174 q 811 378 809 297 l 951 378 m 382 1202 l 590 1202 q 635 1192 627 1202 q 642 1174 642 1184 q 622 1144 642 1153 l 344 1006 l 240 1006 l 382 1202 "},"¸":{"x_min":191.9375,"x_max":515,"ha":695,"o":"m 422 0 l 358 -78 q 364 -78 362 -78 q 391 -77 387 -77 q 464 -91 433 -77 q 496 -116 482 -99 q 515 -171 515 -141 q 483 -245 515 -211 q 342 -297 437 -297 q 191 -263 271 -297 l 220 -205 q 314 -228 280 -228 q 355 -215 339 -228 q 371 -177 371 -202 q 353 -140 371 -154 q 322 -130 339 -130 q 282 -143 305 -130 l 248 -110 l 328 0 l 422 0 "},"a":{"x_min":57,"x_max":844,"ha":832,"o":"m 770 233 l 839 233 q 844 140 844 165 q 809 29 844 64 q 658 -20 761 -20 q 515 17 566 -20 q 475 91 487 38 q 272 -20 420 -20 q 120 22 175 -20 q 57 161 57 70 q 120 288 57 246 q 192 320 152 310 q 278 338 228 329 q 427 382 387 359 q 471 466 471 409 q 452 521 471 500 q 322 568 412 568 q 198 526 243 568 q 243 532 226 532 q 302 505 283 532 q 317 457 317 485 q 286 394 317 415 q 213 372 255 372 q 119 408 157 372 q 89 483 89 437 q 119 567 89 528 q 402 653 186 653 q 597 625 534 653 q 692 520 667 595 q 705 400 705 486 l 705 180 q 714 116 705 129 q 735 105 721 105 q 757 115 749 105 q 771 190 771 131 q 770 233 771 207 m 467 321 q 396 275 432 291 q 317 231 330 246 q 294 176 294 206 q 319 121 294 141 q 369 105 339 105 q 443 138 416 105 q 467 210 467 166 l 467 321 "},"Ę":{"x_min":46,"x_max":1000,"ha":1070,"o":"m 972 0 q 902 -98 902 -39 q 958 -157 902 -157 q 1000 -151 972 -157 l 1000 -263 q 919 -275 957 -275 q 792 -237 835 -275 q 755 -143 755 -203 q 849 0 755 -53 l 46 0 l 46 127 l 124 127 q 184 143 172 127 q 194 185 192 155 q 196 257 194 192 l 196 669 q 192 762 194 748 q 170 793 188 787 q 124 799 154 799 l 46 799 l 46 926 l 1000 926 l 1000 568 l 854 568 q 812 740 854 678 q 731 794 785 780 q 650 800 711 800 l 467 800 l 467 537 l 514 537 q 611 594 589 537 q 620 682 620 616 l 743 682 l 743 266 l 620 266 q 621 294 620 284 q 591 389 621 362 q 511 414 564 414 l 467 414 l 467 126 l 620 126 q 741 133 715 126 q 821 200 789 147 q 851 313 844 239 q 854 380 852 330 l 1000 380 l 1000 0 l 972 0 "},"=":{"x_min":10,"x_max":686,"ha":695,"o":"m 10 669 l 686 669 l 686 514 l 10 514 l 10 669 m 10 430 l 686 430 l 686 275 l 10 275 l 10 430 "},"ú":{"x_min":5,"x_max":888,"ha":893,"o":"m 775 633 l 775 248 q 778 145 775 155 q 797 123 783 127 q 839 120 809 120 l 888 120 l 888 0 l 542 0 l 542 92 q 325 -21 480 -21 q 149 42 201 -21 q 110 143 113 84 q 109 233 109 170 l 109 384 q 105 487 108 478 q 85 509 100 506 q 43 513 72 513 l 5 513 l 5 633 l 342 633 l 342 239 q 361 130 342 158 q 432 100 383 100 q 542 239 542 100 l 542 384 q 538 487 541 477 q 518 509 533 505 q 476 513 506 513 l 426 513 l 426 633 l 775 633 m 416 943 l 578 943 q 617 937 608 943 q 630 915 630 929 q 610 884 630 902 l 432 722 l 339 722 l 416 943 "},"¯":{"x_min":50,"x_max":902,"ha":950,"o":"m 70 926 l 902 926 l 902 790 l 356 126 l 546 126 q 664 144 626 126 q 746 265 725 175 q 756 371 754 301 l 902 371 l 902 0 l 50 0 l 50 157 l 574 790 l 378 790 q 317 784 338 790 q 278 764 296 779 q 209 563 209 708 l 70 563 l 70 926 m 488 1211 q 564 1176 532 1211 q 591 1107 591 1147 q 556 1030 591 1061 q 487 1003 526 1003 q 410 1037 441 1003 q 383 1108 383 1067 q 417 1183 383 1152 q 488 1211 447 1211 "},"Z":{"x_min":50,"x_max":902,"ha":950,"o":"m 70 926 l 902 926 l 902 790 l 356 126 l 546 126 q 664 144 626 126 q 746 265 725 175 q 756 371 754 301 l 902 371 l 902 0 l 50 0 l 50 157 l 574 790 l 378 790 q 317 784 338 790 q 278 764 296 779 q 209 563 209 708 l 70 563 l 70 926 "},"u":{"x_min":5,"x_max":888,"ha":893,"o":"m 775 633 l 775 248 q 778 145 775 155 q 797 123 783 127 q 839 120 809 120 l 888 120 l 888 0 l 542 0 l 542 92 q 325 -21 480 -21 q 149 42 201 -21 q 110 143 113 84 q 109 233 109 170 l 109 384 q 105 487 108 478 q 85 509 100 506 q 43 513 72 513 l 5 513 l 5 633 l 342 633 l 342 239 q 361 130 342 158 q 432 100 383 100 q 542 239 542 100 l 542 384 q 538 487 541 477 q 518 509 533 505 q 476 513 506 513 l 426 513 l 426 633 l 775 633 "},"k":{"x_min":37,"x_max":962,"ha":937,"o":"m 473 633 l 897 633 l 897 513 l 836 513 q 788 505 806 513 q 746 479 769 498 l 672 418 l 816 183 q 861 131 840 143 q 918 120 883 120 l 962 120 l 962 0 l 507 0 l 507 120 l 545 120 q 573 136 573 120 q 549 183 573 145 l 492 275 l 389 183 q 395 132 389 141 q 430 120 403 120 l 454 120 l 454 0 l 37 0 l 37 120 l 85 120 q 139 129 129 120 q 150 168 148 138 q 151 248 150 178 l 151 677 q 147 780 150 770 q 127 802 142 799 q 85 806 116 806 l 37 806 l 37 926 l 389 926 l 389 334 l 555 478 q 566 496 566 487 q 532 513 566 513 l 473 513 l 473 633 "},"Ù":{"x_min":23,"x_max":1097,"ha":1120,"o":"m 23 800 l 23 926 l 588 926 l 588 800 l 515 800 q 455 783 467 800 q 445 741 447 771 q 444 669 445 734 l 444 345 q 449 227 444 253 q 618 112 472 112 q 758 166 718 112 q 784 236 777 192 q 790 345 790 270 l 790 669 q 786 763 788 748 q 764 794 782 787 q 718 800 748 800 l 651 800 l 651 926 l 1097 926 l 1097 800 l 1018 800 q 958 783 970 800 q 948 741 950 771 q 947 669 948 734 l 947 298 q 927 156 947 204 q 793 17 888 63 q 573 -20 715 -20 q 234 90 329 -20 q 179 207 191 140 q 173 298 173 241 l 173 669 q 169 763 171 748 q 147 794 165 787 q 101 800 131 800 l 23 800 m 585 1260 q 683 1214 642 1260 q 719 1123 719 1175 q 673 1021 719 1062 q 583 986 635 986 q 482 1031 522 986 q 447 1124 447 1070 q 492 1224 447 1183 q 585 1260 530 1260 m 583 1173 q 546 1156 561 1173 q 534 1123 534 1141 q 550 1085 534 1101 q 583 1073 564 1073 q 619 1089 604 1073 q 632 1123 632 1104 q 615 1160 632 1144 q 583 1173 601 1173 "},"Ů":{"x_min":23,"x_max":1097,"ha":1120,"o":"m 23 800 l 23 926 l 588 926 l 588 800 l 515 800 q 455 783 467 800 q 445 741 447 771 q 444 669 445 734 l 444 345 q 449 227 444 253 q 618 112 472 112 q 758 166 718 112 q 784 236 777 192 q 790 345 790 270 l 790 669 q 786 763 788 748 q 764 794 782 787 q 718 800 748 800 l 651 800 l 651 926 l 1097 926 l 1097 800 l 1018 800 q 958 783 970 800 q 948 741 950 771 q 947 669 948 734 l 947 298 q 927 156 947 204 q 793 17 888 63 q 573 -20 715 -20 q 234 90 329 -20 q 179 207 191 140 q 173 298 173 241 l 173 669 q 169 763 171 748 q 147 794 165 787 q 101 800 131 800 l 23 800 m 585 1260 q 683 1214 642 1260 q 719 1123 719 1175 q 673 1021 719 1062 q 583 986 635 986 q 482 1031 522 986 q 447 1124 447 1070 q 492 1224 447 1183 q 585 1260 530 1260 m 583 1173 q 546 1156 561 1173 q 534 1123 534 1141 q 550 1085 534 1101 q 583 1073 564 1073 q 619 1089 604 1073 q 632 1123 632 1104 q 615 1160 632 1144 q 583 1173 601 1173 "},"¢":{"x_min":120.046875,"x_max":575.140625,"ha":695,"o":"m 120 941 l 217 941 q 247 882 229 900 q 349 851 281 851 q 451 887 418 851 q 478 941 465 903 l 575 941 q 518 792 567 848 q 347 721 458 721 q 226 752 281 721 q 137 856 164 786 q 120 941 125 886 "},"Ş":{"x_min":56,"x_max":922,"ha":959,"o":"m 529 -20 l 481 -78 q 488 -78 486 -78 q 515 -77 511 -77 q 588 -91 557 -77 q 620 -116 606 -99 q 639 -171 639 -141 q 607 -245 639 -211 q 466 -297 561 -297 q 315 -263 394 -297 l 343 -205 q 438 -228 403 -228 q 479 -215 463 -228 q 495 -177 495 -202 q 477 -140 495 -154 q 446 -130 463 -130 q 405 -143 429 -130 l 372 -110 l 442 -14 q 354 4 382 -3 q 211 70 291 21 l 184 0 l 56 0 l 56 358 l 196 358 q 237 246 209 285 q 390 134 291 170 q 518 112 451 112 q 638 147 598 112 q 668 213 668 175 q 613 299 668 268 q 494 333 581 317 q 283 383 353 360 q 101 499 152 428 q 57 652 57 562 q 160 868 57 792 q 441 946 265 946 q 647 908 561 946 q 734 852 686 891 l 759 926 l 884 926 l 884 581 l 747 581 q 671 740 734 684 q 475 806 596 806 q 361 783 409 806 q 307 704 307 757 q 357 634 307 658 q 488 600 391 618 q 705 548 646 571 q 922 273 922 467 q 820 55 922 134 q 549 -20 723 -20 q 529 -20 542 -20 "},"é":{"x_min":46,"x_max":720.265625,"ha":766,"o":"m 720 282 l 293 282 q 419 105 291 105 q 537 220 524 105 l 708 220 q 640 83 687 137 q 386 -20 549 -20 q 159 57 244 -20 q 70 188 100 110 q 46 321 46 252 q 98 507 46 424 q 383 654 190 654 q 720 282 715 654 m 486 388 q 470 482 482 454 q 394 529 450 529 q 314 477 338 529 q 295 388 300 446 l 486 388 m 379 943 l 540 943 q 579 937 571 943 q 592 915 592 929 q 572 884 592 902 l 395 722 l 301 722 l 379 943 "},"B":{"x_min":46,"x_max":1031,"ha":1068,"o":"m 46 0 l 46 126 l 124 126 q 184 143 172 126 q 194 184 192 154 q 196 256 194 192 l 196 669 q 192 763 194 748 q 170 794 188 787 q 124 800 154 800 l 46 800 l 46 926 l 713 926 q 872 892 811 926 q 978 707 978 833 q 891 535 978 598 q 775 485 850 507 q 931 436 879 470 q 1031 254 1031 374 q 973 92 1031 158 q 816 9 916 27 q 614 0 761 0 l 46 0 m 467 542 l 546 542 q 655 562 620 542 q 706 671 706 591 q 669 768 706 736 q 614 795 645 789 q 548 800 585 800 l 467 800 l 467 542 m 467 126 l 552 126 q 651 135 624 126 q 718 195 695 150 q 737 274 737 232 q 704 373 737 332 q 620 417 675 410 q 546 420 601 420 l 467 420 l 467 126 "},"…":{"x_min":54,"x_max":944,"ha":997,"o":"m 168 213 q 250 175 216 213 q 280 100 280 143 q 242 16 280 50 q 166 -13 210 -13 q 83 24 117 -13 q 54 101 54 56 q 91 183 54 149 q 168 213 123 213 m 500 213 q 582 175 548 213 q 612 100 612 143 q 574 16 612 50 q 498 -13 542 -13 q 415 24 449 -13 q 386 101 386 56 q 423 183 386 149 q 500 213 455 213 m 832 213 q 914 175 880 213 q 944 100 944 143 q 906 16 944 50 q 830 -13 874 -13 q 747 24 781 -13 q 718 101 718 56 q 755 183 718 149 q 832 213 787 213 "},"ē":{"x_min":46,"x_max":720.515625,"ha":766,"o":"m 720 282 l 294 282 q 420 105 291 105 q 538 220 524 105 l 708 220 q 640 83 687 137 q 386 -20 549 -20 q 159 57 244 -20 q 70 188 100 110 q 46 321 46 252 q 98 507 46 424 q 383 654 190 654 q 720 282 715 654 m 486 388 q 470 482 483 454 q 394 529 450 529 q 315 477 338 529 q 295 388 300 446 l 486 388 m 155 872 l 612 872 l 612 760 l 155 760 l 155 872 "},"H":{"x_min":46,"x_max":1194,"ha":1240,"o":"m 467 543 l 772 543 l 772 669 q 768 763 770 747 q 746 794 764 787 q 700 800 730 800 l 654 800 l 654 926 l 1194 926 l 1194 800 l 1115 800 q 1055 782 1066 800 q 1045 741 1046 771 q 1043 669 1044 733 l 1043 255 q 1047 162 1044 177 q 1069 131 1050 138 q 1115 126 1084 126 l 1194 126 l 1194 0 l 654 0 l 654 126 l 700 126 q 760 142 748 126 q 770 184 768 154 q 772 255 770 191 l 772 417 l 467 417 l 467 255 q 470 162 468 177 q 492 131 474 138 q 538 126 507 126 l 586 126 l 586 0 l 46 0 l 46 126 l 124 126 q 183 142 172 126 q 194 184 192 154 q 196 255 194 191 l 196 669 q 191 763 194 748 q 170 794 188 787 q 124 800 154 800 l 46 800 l 46 926 l 586 926 l 586 800 l 538 800 q 478 782 490 800 q 468 741 470 771 q 467 669 468 733 l 467 543 "},"î":{"x_min":25.296875,"x_max":504,"ha":509,"o":"m 397 633 l 397 248 q 400 145 397 155 q 419 123 405 127 q 460 120 431 120 l 504 120 l 504 0 l 47 0 l 47 120 l 93 120 q 149 132 140 120 q 158 175 157 142 q 159 248 158 182 l 159 384 q 155 487 158 478 q 135 509 150 505 q 93 513 123 513 l 47 513 l 47 633 l 397 633 m 166 943 l 335 943 l 480 722 l 291 722 l 224 833 l 131 722 l 25 722 l 166 943 "},"¥":{"x_min":-26,"x_max":1048,"ha":1021,"o":"m 1020 0 q 949 -98 949 -39 q 1005 -157 949 -157 q 1048 -151 1020 -157 l 1048 -263 q 968 -275 1005 -275 q 840 -237 884 -275 q 803 -144 803 -203 q 834 -50 803 -90 q 897 0 850 -28 l 520 0 l 520 126 l 574 126 q 626 131 616 126 q 641 158 641 139 q 622 229 641 170 l 599 301 l 314 301 l 290 229 q 272 160 272 170 q 336 126 272 126 l 397 126 l 397 0 l -26 0 l -26 126 l 18 126 q 75 140 56 126 q 123 229 98 156 l 359 926 l 680 926 l 896 229 q 940 140 919 156 q 1001 126 958 126 l 1048 126 l 1048 0 l 1020 0 m 562 421 l 459 732 l 352 421 l 562 421 "},"U":{"x_min":23,"x_max":1097,"ha":1120,"o":"m 23 800 l 23 926 l 588 926 l 588 800 l 515 800 q 455 783 467 800 q 445 741 447 771 q 444 669 445 734 l 444 345 q 449 227 444 253 q 618 112 472 112 q 758 166 718 112 q 784 236 777 192 q 790 345 790 270 l 790 669 q 786 763 788 748 q 764 794 782 787 q 718 800 748 800 l 651 800 l 651 926 l 1097 926 l 1097 800 l 1018 800 q 958 783 970 800 q 948 741 950 771 q 947 669 948 734 l 947 298 q 927 156 947 204 q 793 17 888 63 q 573 -20 715 -20 q 234 90 329 -20 q 179 207 191 140 q 173 298 173 241 l 173 669 q 169 763 171 748 q 147 794 165 787 q 101 800 131 800 l 23 800 "},"Ñ":{"x_min":46,"x_max":1171,"ha":1199,"o":"m 511 926 l 864 285 l 864 669 q 860 763 862 747 q 838 794 856 787 q 792 800 822 800 l 707 800 l 707 926 l 1171 926 l 1171 800 l 1092 800 q 1032 783 1044 800 q 1022 741 1024 771 q 1021 669 1022 734 l 1021 0 l 721 0 l 353 674 l 353 255 q 356 162 354 177 q 378 131 360 138 q 425 126 394 126 l 512 126 l 512 0 l 46 0 l 46 126 l 124 126 q 184 142 172 126 q 194 184 192 154 q 196 255 194 191 l 196 669 q 192 763 194 747 q 170 794 188 787 q 124 800 154 800 l 46 800 l 46 926 l 511 926 m 645 1202 l 852 1202 q 897 1192 889 1202 q 904 1174 904 1184 q 885 1144 904 1153 l 606 1006 l 503 1006 l 645 1202 "},"F":{"x_min":46,"x_max":996,"ha":993,"o":"m 996 926 l 996 565 l 851 565 q 852 582 851 576 q 822 731 852 675 q 743 793 796 778 q 661 800 716 800 l 467 800 l 467 536 l 518 536 q 625 665 625 536 q 625 681 625 671 l 747 681 l 747 259 l 625 259 q 623 327 625 309 q 519 412 612 412 l 467 412 l 467 256 q 470 162 468 177 q 492 131 474 138 q 538 126 508 126 l 617 126 l 617 0 l 46 0 l 46 126 l 124 126 q 184 142 172 126 q 194 184 192 154 q 196 256 194 192 l 196 669 q 191 762 194 747 q 170 793 188 787 q 124 799 154 799 l 46 799 l 46 926 l 996 926 "},"ā":{"x_min":57,"x_max":844,"ha":832,"o":"m 770 233 l 839 233 q 844 140 844 165 q 809 29 844 64 q 658 -20 761 -20 q 515 17 566 -20 q 475 91 487 38 q 272 -20 420 -20 q 120 22 175 -20 q 57 161 57 70 q 120 288 57 246 q 192 320 152 310 q 278 338 228 329 q 427 382 387 359 q 471 466 471 409 q 452 521 471 500 q 322 568 412 568 q 198 526 243 568 q 243 532 226 532 q 302 505 283 532 q 317 457 317 485 q 286 394 317 415 q 213 372 255 372 q 119 408 157 372 q 89 483 89 437 q 119 567 89 528 q 402 653 186 653 q 597 625 534 653 q 692 520 667 595 q 705 400 705 486 l 705 180 q 714 116 705 129 q 735 105 721 105 q 757 115 749 105 q 771 190 771 131 q 770 233 771 207 m 467 321 q 396 275 432 291 q 317 231 330 246 q 294 176 294 206 q 319 121 294 141 q 369 105 339 105 q 443 138 416 105 q 467 210 467 166 l 467 321 m 182 872 l 640 872 l 640 760 l 182 760 l 182 872 "},"ă":{"x_min":57,"x_max":844,"ha":832,"o":"m 770 233 l 839 233 q 844 140 844 165 q 809 29 844 64 q 658 -20 761 -20 q 515 17 566 -20 q 475 91 487 38 q 272 -20 420 -20 q 120 22 175 -20 q 57 161 57 70 q 120 288 57 246 q 192 320 152 310 q 278 338 228 329 q 427 382 387 359 q 471 466 471 409 q 452 521 471 500 q 322 568 412 568 q 198 526 243 568 q 243 532 226 532 q 302 505 283 532 q 317 457 317 485 q 286 394 317 415 q 213 372 255 372 q 119 408 157 372 q 89 483 89 437 q 119 567 89 528 q 402 653 186 653 q 597 625 534 653 q 692 520 667 595 q 705 400 705 486 l 705 180 q 714 116 705 129 q 735 105 721 105 q 757 115 749 105 q 771 190 771 131 q 770 233 771 207 m 467 321 q 396 275 432 291 q 317 231 330 246 q 294 176 294 206 q 319 121 294 141 q 369 105 339 105 q 443 138 416 105 q 467 210 467 166 l 467 321 m 183 941 l 279 941 q 311 882 292 900 q 412 851 344 851 q 513 887 481 851 q 541 941 528 903 l 637 941 q 582 792 629 848 q 411 721 521 721 q 230 802 294 721 q 183 941 191 852 "},"*":{"x_min":87,"x_max":606,"ha":695,"o":"m 359 950 q 427 926 400 950 q 451 877 451 905 q 421 809 451 839 q 391 765 391 777 q 398 751 391 759 q 414 744 406 744 q 431 752 421 744 q 450 787 435 756 q 484 825 462 811 q 520 837 502 837 q 563 820 545 837 q 594 775 582 804 q 606 719 606 747 q 578 657 606 681 q 529 640 559 640 q 474 662 516 640 q 456 668 464 668 q 441 662 450 668 q 435 653 439 660 q 431 643 431 646 q 436 631 431 640 q 466 618 443 621 q 511 609 502 612 q 529 598 521 606 q 555 546 555 577 q 519 471 555 505 q 441 438 485 438 q 383 470 404 438 q 370 501 369 492 l 375 564 q 364 579 375 570 q 352 586 357 586 q 333 575 340 586 q 326 554 326 563 l 327 549 l 330 523 q 333 504 333 510 q 317 467 333 486 q 256 438 294 438 q 174 471 210 438 q 142 540 142 502 q 171 597 142 574 q 223 615 182 605 q 256 634 247 621 q 261 645 261 641 q 254 659 261 651 q 236 668 246 668 q 194 651 231 668 q 159 642 175 642 q 121 657 139 642 q 87 735 87 687 q 117 809 87 775 q 183 842 148 842 q 249 793 225 842 q 271 754 265 759 q 288 747 280 747 q 305 758 299 747 q 310 768 310 764 q 281 812 310 785 q 252 865 252 839 q 287 929 252 903 q 359 950 316 950 "},"†":{"x_min":61,"x_max":633,"ha":695,"o":"m 305 554 q 206 510 252 538 q 150 490 174 490 q 82 524 107 490 q 61 595 61 554 q 87 674 61 644 q 144 701 109 701 q 184 692 166 701 q 226 667 192 688 q 305 637 258 649 q 300 694 305 673 q 276 757 295 715 q 246 861 246 824 q 347 945 246 945 q 448 861 448 945 q 417 757 448 824 q 392 685 396 710 q 389 637 389 668 q 467 667 436 649 q 509 692 502 688 q 549 701 527 701 q 613 665 589 701 q 633 595 633 635 q 604 515 633 546 q 543 490 580 490 q 487 510 519 490 q 389 554 441 538 q 389 523 389 532 q 403 276 389 474 q 447 -49 415 131 q 458 -142 458 -104 q 409 -240 458 -210 q 347 -257 382 -257 q 275 -233 304 -257 q 237 -141 237 -202 q 247 -49 237 -104 q 293 302 280 135 q 306 526 306 477 q 305 554 306 537 "},"°":{"x_min":134,"x_max":562,"ha":695,"o":"m 347 916 q 498 854 435 916 q 562 706 562 793 q 500 557 562 619 q 348 495 436 495 q 195 557 258 495 q 134 708 134 619 q 196 854 134 794 q 347 916 260 916 m 347 812 q 271 780 303 812 q 240 707 240 749 q 271 630 240 661 q 348 599 303 599 q 424 630 392 599 q 456 705 456 662 q 423 780 456 750 q 347 812 391 812 "},"å":{"x_min":37,"x_max":502,"ha":509,"o":"m 387 926 l 387 248 q 390 145 387 154 q 410 123 395 126 q 453 120 422 120 l 496 120 l 496 0 l 37 0 l 37 120 l 83 120 q 137 129 127 120 q 148 168 146 139 q 149 248 148 178 l 149 677 q 145 780 148 770 q 125 802 140 798 q 83 806 115 806 l 37 806 l 37 926 l 387 926 m 266 1202 l 451 1202 q 495 1192 487 1202 q 502 1174 502 1184 q 482 1144 502 1154 l 226 1006 l 124 1006 l 266 1202 "},"0":{"x_min":25,"x_max":844,"ha":870,"o":"m 441 859 q 698 767 593 859 q 844 409 844 640 q 718 94 844 217 q 435 -20 602 -20 q 168 74 279 -20 q 70 203 105 128 q 25 419 25 303 q 95 682 25 570 q 278 830 160 785 q 441 859 352 859 m 439 744 q 325 655 359 744 q 292 394 292 567 q 318 186 292 260 q 433 95 350 95 q 541 169 505 95 q 577 442 577 241 q 532 691 577 618 q 439 744 501 744 "},"ō":{"x_min":46,"x_max":776,"ha":821,"o":"m 409 653 q 690 547 589 653 q 776 316 776 458 q 709 112 776 199 q 409 -20 608 -20 q 227 15 299 -20 q 79 160 128 64 q 46 315 46 228 q 153 571 46 480 q 409 653 250 653 m 415 538 q 331 487 356 538 q 300 312 300 426 q 322 152 300 207 q 408 95 345 95 q 496 154 472 95 q 522 333 522 215 q 501 480 522 431 q 415 538 477 538 m 182 872 l 640 872 l 640 760 l 182 760 l 182 872 "},"”":{"x_min":42,"x_max":588,"ha":624,"o":"m 61 587 l 61 649 q 126 678 102 659 q 173 748 156 702 q 130 735 154 735 q 71 759 96 735 q 42 835 42 789 q 82 919 42 887 q 159 946 116 946 q 258 895 222 946 q 283 809 283 862 q 189 634 283 697 q 61 587 141 601 m 366 587 l 366 649 q 431 678 407 659 q 478 748 461 702 q 436 735 459 735 q 376 759 401 735 q 347 835 347 789 q 386 919 347 887 q 464 946 420 946 q 563 895 527 946 q 588 809 588 862 q 495 634 588 696 q 366 587 447 601 "},"Ķ":{"x_min":46,"x_max":1186,"ha":1181,"o":"m 798 587 l 1026 206 q 1071 143 1057 156 q 1099 128 1084 130 q 1138 126 1112 126 l 1186 126 l 1186 0 l 655 0 l 655 126 l 708 126 q 747 132 738 126 q 756 149 756 138 q 736 194 756 162 l 599 415 l 467 292 l 467 255 q 470 162 468 177 q 492 131 474 138 q 538 126 506 126 l 587 126 l 587 0 l 46 0 l 46 126 l 124 126 q 184 142 172 126 q 194 184 192 154 q 196 255 194 191 l 196 669 q 192 763 194 748 q 170 794 188 787 q 124 800 154 800 l 46 800 l 46 926 l 586 926 l 586 800 l 538 800 q 478 783 490 800 q 468 741 470 771 q 467 669 468 734 l 467 493 l 745 741 q 775 781 775 768 q 740 800 775 800 l 656 800 l 656 926 l 1156 926 l 1156 799 l 1107 799 q 1029 781 1060 799 q 944 714 1002 765 l 798 587 m 534 -344 l 534 -297 q 551 -298 544 -297 q 645 -231 636 -298 q 586 -247 611 -247 q 518 -218 544 -247 q 498 -163 498 -194 q 533 -95 498 -120 q 612 -74 564 -74 q 707 -108 671 -74 q 739 -194 739 -139 q 685 -305 739 -265 q 563 -346 634 -346 q 534 -344 553 -346 "},"ö":{"x_min":46,"x_max":775,"ha":821,"o":"m 408 653 q 689 547 589 653 q 775 316 775 458 q 708 112 775 199 q 409 -20 608 -20 q 227 15 298 -20 q 79 160 128 64 q 46 315 46 228 q 153 571 46 480 q 408 653 250 653 m 414 538 q 331 487 356 538 q 300 312 300 426 q 322 152 300 207 q 408 95 345 95 q 495 154 471 95 q 521 333 521 215 q 500 480 521 431 q 414 538 476 538 m 271 928 q 344 894 313 928 q 370 828 370 866 q 336 753 370 783 q 270 728 308 728 q 195 761 225 728 q 170 829 170 789 q 203 902 170 871 q 271 928 231 928 m 552 928 q 625 894 595 928 q 651 828 651 866 q 617 753 651 783 q 551 728 589 728 q 476 761 506 728 q 451 829 451 789 q 484 902 451 871 q 552 928 512 928 "},"Ļ":{"x_min":46,"x_max":951,"ha":937,"o":"m 951 378 l 951 0 l 46 0 l 46 127 l 124 127 q 184 143 172 127 q 194 185 192 155 q 196 256 194 192 l 196 669 q 191 763 194 748 q 170 794 188 787 q 124 800 154 800 l 46 800 l 46 926 l 617 926 l 617 800 l 538 800 q 478 782 490 800 q 468 741 470 771 q 467 669 468 733 l 467 126 l 632 126 q 724 142 694 126 q 799 257 778 174 q 811 378 809 297 l 951 378 m 417 -344 l 417 -297 q 434 -298 427 -297 q 528 -231 519 -298 q 468 -247 493 -247 q 401 -218 426 -247 q 380 -163 380 -194 q 416 -95 380 -120 q 495 -74 446 -74 q 589 -108 554 -74 q 622 -194 622 -139 q 568 -305 622 -265 q 446 -346 517 -346 q 417 -344 436 -346 "},"Õ":{"x_min":46,"x_max":1044,"ha":1090,"o":"m 544 946 q 861 862 739 946 q 998 693 953 798 q 1044 457 1044 586 q 968 179 1044 297 q 745 10 891 60 q 551 -20 657 -20 q 208 85 343 -20 q 93 232 132 144 q 46 461 46 338 q 130 757 46 634 q 544 946 259 946 m 550 814 q 395 719 443 814 q 353 455 353 635 q 393 195 353 273 q 545 103 442 103 q 705 212 660 103 q 737 459 737 292 q 697 719 737 640 q 550 814 649 814 m 750 1202 l 912 1202 q 956 1192 948 1202 q 963 1174 963 1184 q 944 1143 963 1155 l 707 1006 l 613 1006 l 750 1202 m 449 1202 l 611 1202 q 656 1192 647 1202 q 663 1174 663 1184 q 643 1143 663 1155 l 406 1006 l 312 1006 l 449 1202 "},"ć":{"x_min":45,"x_max":690,"ha":741,"o":"m 542 241 l 687 241 q 636 85 675 144 q 399 -20 566 -20 q 167 47 256 -20 q 70 180 102 96 q 45 320 45 248 q 173 589 45 500 q 391 653 262 653 q 570 612 490 653 q 671 506 637 578 q 690 426 690 469 q 641 314 690 356 q 551 282 604 282 q 459 318 494 282 q 430 391 430 349 q 465 470 430 440 q 517 491 490 491 q 542 487 526 491 q 446 528 499 528 q 300 310 300 528 q 328 167 300 224 q 433 105 359 105 q 542 241 535 105 m 372 943 l 533 943 q 572 937 564 943 q 585 915 585 929 q 565 884 585 902 l 389 722 l 295 722 l 372 943 "},"þ":{"x_min":26,"x_max":611.640625,"ha":646,"o":"m 390 893 l 390 633 l 556 633 l 556 513 l 390 513 l 390 236 q 396 140 390 172 q 441 105 405 105 q 485 139 473 105 q 494 223 494 163 q 492 312 494 245 l 611 312 q 611 244 611 255 q 597 102 612 142 q 392 -20 552 -20 q 200 49 263 -20 q 156 144 163 89 q 152 236 152 182 l 152 513 l 26 513 l 26 624 q 173 693 123 633 q 227 893 225 758 l 390 893 m 270 -339 l 270 -293 q 286 -293 278 -293 q 349 -278 322 -293 q 385 -223 376 -264 q 325 -242 352 -242 q 258 -213 283 -242 q 237 -158 237 -190 q 272 -90 237 -115 q 349 -69 303 -69 q 441 -104 407 -69 q 474 -191 474 -136 q 421 -300 474 -258 q 303 -341 370 -341 q 270 -339 289 -341 "},"]":{"x_min":37,"x_max":423,"ha":503,"o":"m 179 811 l 37 811 l 37 926 l 423 926 l 423 -272 l 37 -272 l 37 -157 l 179 -157 l 179 811 "},"8":{"x_min":39,"x_max":831,"ha":870,"o":"m 631 480 q 782 392 740 440 q 831 253 831 333 q 722 49 831 125 q 576 -5 670 13 q 432 -20 507 -20 q 137 53 242 -20 q 39 222 39 122 q 120 367 39 313 q 225 408 153 389 q 139 472 166 442 q 81 611 81 535 q 191 795 81 722 q 328 846 242 828 q 453 859 391 859 q 655 823 564 859 q 772 720 733 792 q 790 647 790 688 q 724 520 790 567 q 631 480 697 500 m 531 524 q 620 639 620 573 q 572 716 620 687 q 451 744 529 744 q 313 696 346 744 q 299 652 299 676 q 307 622 299 633 q 350 591 322 603 q 411 566 376 579 l 531 524 m 314 358 q 254 312 270 327 q 217 230 217 276 q 249 152 217 183 q 437 89 317 89 q 591 138 541 89 q 613 192 613 160 q 580 254 613 229 q 487 298 554 275 l 314 358 "},"R":{"x_min":46,"x_max":1127,"ha":1120,"o":"m 467 420 l 467 256 q 470 162 468 177 q 492 131 474 138 q 538 126 507 126 l 617 126 l 617 0 l 46 0 l 46 126 l 124 126 q 184 142 172 126 q 194 184 192 154 q 196 256 194 192 l 196 669 q 191 763 194 747 q 170 794 188 787 q 124 800 154 800 l 46 800 l 46 926 l 665 926 q 820 916 778 926 q 968 822 919 894 q 1006 702 1006 769 q 953 561 1006 620 q 849 498 913 515 q 777 483 826 491 q 905 441 869 470 q 948 373 937 415 q 956 294 956 342 l 956 197 q 968 128 956 142 q 994 118 979 118 q 1027 140 1019 118 q 1034 259 1033 157 l 1123 259 q 1127 189 1127 210 q 1075 39 1127 93 q 914 -20 1017 -20 q 775 15 832 -20 q 682 253 682 73 l 683 344 q 651 411 683 394 q 582 420 633 420 l 467 420 m 467 539 l 561 539 q 654 545 629 539 q 712 593 693 557 q 729 670 729 626 q 682 780 729 751 q 580 800 650 800 l 467 800 l 467 539 "},"ť":{"x_min":26,"x_max":691,"ha":709,"o":"m 390 893 l 390 633 l 556 633 l 556 513 l 390 513 l 390 236 q 396 140 390 172 q 441 105 405 105 q 485 139 473 105 q 494 223 494 163 q 493 312 494 245 l 611 312 q 611 244 611 255 q 597 102 612 142 q 392 -20 552 -20 q 200 49 263 -20 q 156 144 163 89 q 152 236 152 182 l 152 513 l 26 513 l 26 624 q 173 693 123 633 q 227 893 225 758 l 390 893 m 487 704 l 487 751 q 503 751 497 751 q 566 765 539 751 q 602 824 594 780 q 542 807 569 807 q 475 834 500 807 q 454 889 454 858 q 489 957 454 932 q 566 979 520 979 q 658 944 624 979 q 691 854 691 911 q 638 743 691 785 q 520 703 587 703 q 487 704 507 703 "},"Ľ":{"x_min":46,"x_max":951,"ha":937,"o":"m 951 378 l 951 0 l 46 0 l 46 127 l 124 127 q 184 143 172 127 q 194 185 192 155 q 196 256 194 192 l 196 669 q 191 763 194 747 q 170 794 188 787 q 124 800 154 800 l 46 800 l 46 926 l 617 926 l 617 800 l 538 800 q 478 782 490 800 q 468 741 470 771 q 467 669 468 733 l 467 126 l 632 126 q 724 142 694 126 q 799 257 778 174 q 811 378 809 297 l 951 378 m 709 672 l 709 719 q 725 718 720 718 q 820 789 814 718 q 760 774 785 774 q 693 802 718 774 q 672 856 672 825 q 707 924 672 899 q 786 946 738 946 q 881 911 845 946 q 913 824 913 880 q 860 709 913 751 q 738 670 809 670 q 709 672 729 670 "},"Ż":{"x_min":50,"x_max":902,"ha":950,"o":"m 70 926 l 902 926 l 902 790 l 356 126 l 546 126 q 664 144 626 126 q 746 265 725 175 q 756 371 754 301 l 902 371 l 902 0 l 50 0 l 50 157 l 574 790 l 378 790 q 317 784 338 790 q 278 764 296 779 q 209 563 209 708 l 70 563 l 70 926 m 488 1211 q 564 1176 532 1211 q 591 1107 591 1147 q 556 1030 591 1061 q 487 1003 526 1003 q 410 1037 441 1003 q 383 1108 383 1067 q 417 1183 383 1152 q 488 1211 447 1211 "},"o":{"x_min":46,"x_max":775,"ha":821,"o":"m 408 653 q 689 547 589 653 q 775 316 775 458 q 708 112 775 199 q 409 -20 608 -20 q 227 15 298 -20 q 79 160 128 64 q 46 315 46 228 q 153 571 46 480 q 408 653 250 653 m 414 538 q 331 487 356 538 q 300 312 300 426 q 322 152 300 207 q 408 95 345 95 q 495 154 471 95 q 521 333 521 215 q 500 480 521 431 q 414 538 476 538 "},"5":{"x_min":85,"x_max":813,"ha":870,"o":"m 137 421 l 164 850 q 492 819 299 819 q 774 839 620 819 q 775 825 775 831 q 737 748 775 787 q 545 666 679 689 q 414 655 480 655 q 278 667 351 655 l 272 542 q 337 580 314 570 q 461 601 384 601 q 722 504 621 601 q 813 295 813 417 q 758 127 813 204 q 635 23 709 57 q 426 -20 540 -20 q 243 15 329 -20 q 116 125 163 50 q 85 233 85 173 q 125 331 85 296 q 214 363 160 363 q 310 324 274 363 q 340 250 340 293 q 292 164 340 191 q 237 149 274 153 q 355 107 285 107 q 478 158 432 107 q 529 305 529 213 q 485 435 529 389 q 380 478 445 478 q 261 421 305 478 l 137 421 "},"õ":{"x_min":46,"x_max":775,"ha":821,"o":"m 408 653 q 689 547 589 653 q 775 316 775 458 q 708 112 775 199 q 409 -20 608 -20 q 227 15 298 -20 q 79 160 128 64 q 46 315 46 228 q 153 571 46 480 q 408 653 250 653 m 414 538 q 331 487 356 538 q 300 312 300 426 q 322 152 300 207 q 408 95 345 95 q 495 154 471 95 q 521 333 521 215 q 500 480 521 431 q 414 538 476 538 m 301 943 l 435 943 q 474 937 466 943 q 487 915 487 929 q 467 884 487 903 l 299 722 l 224 722 l 301 943 m 551 943 l 685 943 q 724 937 716 943 q 737 915 737 929 q 716 884 737 903 l 549 722 l 474 722 l 551 943 "},",":{"x_min":43,"x_max":308,"ha":343,"o":"m 58 -185 l 58 -105 q 144 -67 114 -93 q 183 0 172 -44 q 133 -13 155 -13 q 70 14 95 -13 q 43 90 43 44 q 85 181 43 146 q 167 210 120 210 q 272 163 230 210 q 308 60 308 123 q 256 -86 308 -19 q 128 -174 205 -152 q 58 -185 104 -181 "},"d":{"x_min":46,"x_max":861,"ha":875,"o":"m 754 926 l 754 244 q 757 142 754 151 q 775 120 762 124 q 816 117 787 117 l 861 117 l 861 0 l 516 0 l 516 99 q 448 11 484 36 q 323 -20 398 -20 q 128 59 203 -20 q 60 192 82 107 q 46 316 46 251 q 88 521 46 428 q 189 627 120 594 q 305 653 239 653 q 452 606 393 653 q 516 534 480 585 l 516 677 q 512 780 515 771 q 492 802 507 798 q 451 806 480 806 l 401 806 l 401 926 l 754 926 m 405 528 q 322 468 350 528 q 295 307 295 409 q 319 165 295 219 q 402 105 347 105 q 494 176 467 105 q 519 324 519 243 q 492 465 519 409 q 405 528 463 528 "},"\"":{"x_min":56.96875,"x_max":466.625,"ha":524,"o":"m 184 553 l 90 553 l 56 926 l 217 926 l 184 553 m 433 553 l 339 553 l 306 926 l 466 926 l 433 553 "},"˙":{"x_min":243,"x_max":451,"ha":695,"o":"m 348 933 q 423 898 392 933 q 451 829 451 868 q 416 752 451 783 q 347 725 386 725 q 270 759 301 725 q 243 830 243 789 q 277 905 243 874 q 348 933 307 933 "},"ê":{"x_min":46,"x_max":720.625,"ha":766,"o":"m 606 -142 l 606 -249 q 522 -261 554 -261 q 400 -223 444 -261 q 363 -132 363 -190 q 377 -70 363 -97 q 435 -17 391 -44 q 376 -22 388 -22 q 270 -3 332 -22 q 130 85 185 20 q 46 321 46 185 q 98 507 46 424 q 383 654 190 654 q 720 282 715 654 l 294 282 q 294 258 294 272 q 335 137 294 178 q 420 104 369 104 q 538 220 524 104 l 709 220 q 574 16 680 105 q 522 -35 533 -19 q 507 -89 507 -61 q 563 -148 507 -148 q 606 -142 578 -148 m 486 388 q 471 482 483 454 q 395 529 450 529 q 315 477 338 529 q 296 388 300 446 l 486 388 "},"„":{"x_min":42,"x_max":588,"ha":624,"o":"m 61 -160 l 61 -99 q 126 -69 103 -88 q 173 0 156 -46 q 131 -13 154 -13 q 71 11 96 -13 q 42 87 42 41 q 82 170 42 138 q 159 197 116 197 q 258 146 222 197 q 283 60 283 113 q 189 -114 283 -51 q 61 -160 141 -147 m 366 -160 l 366 -99 q 431 -69 408 -88 q 478 0 461 -46 q 436 -13 459 -13 q 376 11 401 -13 q 347 86 347 41 q 386 170 347 138 q 464 197 420 197 q 563 146 527 197 q 588 60 588 113 q 495 -114 588 -51 q 366 -160 447 -147 "},"ľ":{"x_min":37,"x_max":685,"ha":702,"o":"m 387 926 l 387 248 q 390 145 387 154 q 410 123 395 126 q 452 120 422 120 l 496 120 l 496 0 l 37 0 l 37 120 l 83 120 q 137 129 127 120 q 148 168 146 139 q 149 248 148 178 l 149 677 q 145 780 148 770 q 125 802 140 798 q 83 806 115 806 l 37 806 l 37 926 l 387 926 m 480 671 l 480 718 q 497 718 490 718 q 559 732 533 718 q 596 791 588 747 q 535 773 562 773 q 468 801 493 773 q 447 856 447 824 q 483 924 447 899 q 559 946 513 946 q 652 911 618 946 q 685 821 685 878 q 631 710 685 752 q 513 670 581 670 q 480 671 500 670 "},"Â":{"x_min":-26,"x_max":1048,"ha":1021,"o":"m 359 926 l 680 926 l 896 229 q 940 140 919 156 q 1001 126 958 126 l 1048 126 l 1048 0 l 520 0 l 520 126 l 574 126 q 626 131 616 126 q 641 158 641 139 q 622 229 641 170 l 599 301 l 314 301 l 290 229 q 272 160 272 170 q 336 126 272 126 l 397 126 l 397 0 l -26 0 l -26 126 l 18 126 q 75 140 56 126 q 123 229 98 156 l 359 926 m 562 421 l 459 732 l 352 421 l 562 421 m 419 1202 l 618 1202 l 810 1007 l 599 1007 l 481 1105 l 352 1007 l 230 1007 l 419 1202 "},"Į":{"x_min":45,"x_max":611,"ha":659,"o":"m 583 0 q 512 -98 512 -39 q 568 -157 512 -157 q 611 -151 583 -157 l 611 -263 q 530 -275 568 -275 q 402 -237 446 -275 q 365 -144 365 -203 q 396 -50 365 -90 q 460 0 414 -27 l 45 0 l 45 126 l 123 126 q 183 142 171 126 q 193 184 191 154 q 195 255 193 191 l 195 669 q 190 763 193 747 q 169 794 187 787 q 123 800 153 800 l 45 800 l 45 926 l 611 926 l 611 800 l 532 800 q 473 783 484 800 q 462 741 464 771 q 461 669 462 734 l 461 255 q 464 162 462 177 q 486 131 468 138 q 532 126 501 126 l 611 126 l 611 0 l 583 0 "},"ė":{"x_min":46,"x_max":720.265625,"ha":766,"o":"m 720 282 l 293 282 q 419 105 291 105 q 537 220 524 105 l 708 220 q 640 83 687 137 q 386 -20 549 -20 q 159 57 244 -20 q 70 188 100 110 q 46 321 46 252 q 98 507 46 424 q 383 654 190 654 q 720 282 715 654 m 486 388 q 470 482 482 454 q 394 529 450 529 q 314 477 338 529 q 295 388 300 446 l 486 388 m 389 933 q 464 898 433 933 q 492 829 492 869 q 457 752 492 782 q 388 725 427 725 q 311 759 342 725 q 284 830 284 789 q 318 905 284 874 q 389 933 348 933 "},"Ţ":{"x_min":-8,"x_max":928,"ha":920,"o":"m -8 926 l 928 926 l 928 565 l 778 565 q 779 597 779 588 q 743 742 779 691 q 624 800 703 800 q 595 799 611 800 l 595 256 q 598 162 596 176 q 620 131 602 138 q 666 126 635 126 l 745 126 l 745 0 l 169 0 l 169 126 l 247 126 q 306 142 295 126 q 317 184 315 155 q 319 256 317 191 l 319 799 q 219 778 254 799 q 147 670 164 746 q 136 565 137 630 l -8 565 l -8 926 m 376 -344 l 376 -297 q 393 -298 386 -297 q 487 -231 478 -298 q 427 -247 453 -247 q 360 -218 386 -247 q 340 -163 340 -194 q 375 -95 340 -120 q 454 -74 406 -74 q 549 -108 513 -74 q 581 -194 581 -139 q 527 -305 581 -265 q 405 -346 476 -346 q 376 -344 395 -346 "},"Í":{"x_min":45,"x_max":627,"ha":659,"o":"m 611 126 l 611 0 l 45 0 l 45 126 l 123 126 q 183 142 171 126 q 193 184 191 154 q 195 255 193 191 l 195 669 q 190 763 193 747 q 169 794 187 787 q 123 800 153 800 l 45 800 l 45 926 l 611 926 l 611 800 l 532 800 q 473 783 484 800 q 462 741 464 771 q 461 669 462 734 l 461 255 q 464 162 462 177 q 486 131 468 138 q 532 126 502 126 l 611 126 m 368 1202 l 576 1202 q 620 1192 612 1202 q 627 1174 627 1184 q 608 1144 627 1153 l 329 1006 l 226 1006 l 368 1202 "},"´":{"x_min":281.46875,"x_max":572,"ha":695,"o":"m 358 943 l 519 943 q 559 937 550 943 q 572 915 572 929 q 552 884 572 903 l 375 722 l 281 722 l 358 943 "},"Ú":{"x_min":23,"x_max":1097,"ha":1120,"o":"m 23 800 l 23 926 l 588 926 l 588 800 l 515 800 q 455 783 467 800 q 445 741 447 771 q 444 669 445 734 l 444 345 q 449 227 444 253 q 618 112 472 112 q 758 166 718 112 q 784 236 777 192 q 790 345 790 270 l 790 669 q 786 763 788 748 q 764 794 782 787 q 718 800 748 800 l 651 800 l 651 926 l 1097 926 l 1097 800 l 1018 800 q 958 783 970 800 q 948 741 950 771 q 947 669 948 734 l 947 298 q 927 156 947 204 q 793 17 888 63 q 573 -20 715 -20 q 234 90 329 -20 q 179 207 191 140 q 173 298 173 241 l 173 669 q 169 763 171 748 q 147 794 165 787 q 101 800 131 800 l 23 800 m 609 1202 l 816 1202 q 860 1192 852 1202 q 867 1174 867 1184 q 848 1143 867 1153 l 569 1006 l 466 1006 l 609 1202 "},"Ý":{"x_min":-19,"x_max":1003,"ha":982,"o":"m -19 926 l 531 926 l 531 800 l 472 800 q 423 776 423 800 q 438 738 423 767 l 557 523 l 679 738 q 696 778 696 768 q 652 800 696 800 l 594 800 l 594 926 l 1003 926 l 1003 800 l 950 800 q 883 768 907 800 q 828 687 879 763 l 619 361 l 619 256 q 622 162 620 176 q 644 131 626 138 q 690 126 659 126 l 782 126 l 782 0 l 199 0 l 199 126 l 290 126 q 350 142 339 126 q 361 184 359 154 q 363 256 361 191 l 363 361 l 158 687 q 97 778 111 765 q 33 800 74 800 l -19 800 l -19 926 m 544 1202 l 752 1202 q 796 1192 788 1202 q 803 1174 803 1184 q 784 1144 803 1153 l 505 1006 l 402 1006 l 544 1202 "},"ą":{"x_min":57,"x_max":845,"ha":832,"o":"m 819 -151 l 819 -258 q 734 -271 768 -271 q 612 -232 656 -271 q 575 -140 575 -200 q 609 -51 575 -86 q 648 -19 621 -40 q 537 3 572 -14 q 488 51 502 21 q 475 91 481 64 q 272 -20 420 -20 q 120 22 175 -20 q 57 161 57 70 q 120 288 57 247 q 192 320 152 310 q 278 338 228 329 q 427 383 388 359 q 471 466 471 409 q 452 521 471 500 q 322 568 412 568 q 198 526 243 568 q 243 532 226 532 q 302 505 283 532 q 317 457 317 485 q 286 394 317 415 q 213 372 255 372 q 119 408 157 372 q 89 483 89 437 q 119 567 89 529 q 402 653 186 653 q 597 625 534 653 q 692 520 667 595 q 705 400 705 486 l 705 180 q 713 116 705 129 q 735 105 722 105 q 765 127 756 105 q 771 209 771 143 l 771 233 l 841 233 q 845 140 845 164 q 818 37 845 71 q 769 -9 810 26 q 719 -98 719 -55 q 776 -158 719 -158 q 819 -151 791 -158 m 467 321 q 396 275 432 291 q 317 231 330 246 q 294 176 294 206 q 319 121 294 142 q 369 105 339 105 q 443 138 416 105 q 467 210 467 166 l 467 321 "},"Ö":{"x_min":46,"x_max":1044,"ha":1090,"o":"m 544 946 q 861 862 739 946 q 998 693 953 798 q 1044 457 1044 586 q 968 179 1044 297 q 745 10 891 60 q 551 -20 657 -20 q 208 85 343 -20 q 93 232 132 144 q 46 461 46 338 q 130 757 46 634 q 544 946 259 946 m 550 814 q 395 719 443 814 q 353 455 353 635 q 393 195 353 273 q 545 103 442 103 q 705 212 660 103 q 737 459 737 292 q 697 719 737 640 q 550 814 649 814 m 381 1205 q 454 1171 424 1205 q 480 1105 480 1143 q 446 1030 480 1060 q 380 1005 418 1005 q 305 1038 335 1005 q 280 1106 280 1066 q 313 1179 280 1148 q 381 1205 341 1205 m 710 1205 q 783 1171 752 1205 q 809 1105 809 1143 q 775 1030 809 1060 q 708 1005 747 1005 q 634 1038 664 1005 q 609 1106 609 1066 q 642 1179 609 1148 q 710 1205 670 1205 "},"z":{"x_min":36,"x_max":665,"ha":702,"o":"m 52 633 l 665 633 l 665 513 l 319 120 l 405 120 q 517 152 486 120 q 536 183 531 166 q 542 252 542 204 q 542 302 542 267 l 665 302 l 665 0 l 36 0 l 36 144 l 368 513 l 272 513 q 186 476 204 513 q 173 362 176 455 l 52 362 l 52 633 "},"™":{"x_min":-10,"x_max":1443,"ha":1467,"o":"m -10 926 l 576 926 l 576 714 l 474 714 l 474 718 l 475 737 q 382 846 475 846 q 370 846 378 846 l 370 545 q 376 485 371 492 q 409 478 382 478 l 463 478 l 463 398 l 99 398 l 99 478 l 151 478 q 186 488 180 478 q 191 546 189 494 l 191 846 q 98 790 121 844 q 88 714 88 763 l -10 714 l -10 926 m 1103 926 l 1443 926 l 1443 846 l 1390 846 q 1355 835 1361 846 q 1351 777 1352 829 l 1351 546 q 1357 485 1352 492 q 1390 478 1363 478 l 1443 478 l 1443 398 l 1102 398 l 1102 478 l 1135 478 q 1170 488 1164 478 q 1175 546 1173 494 l 1175 805 l 1052 398 l 911 398 l 788 806 l 788 546 q 794 485 789 492 q 827 478 800 478 l 861 478 l 861 398 l 589 398 l 589 478 l 642 478 q 677 488 671 478 q 682 546 681 494 l 682 777 q 675 838 682 830 q 642 846 669 846 l 589 846 l 589 926 l 929 926 l 1015 622 l 1103 926 "},"Ř":{"x_min":46,"x_max":1127,"ha":1120,"o":"m 467 420 l 467 256 q 470 162 468 177 q 492 131 474 138 q 538 126 507 126 l 617 126 l 617 0 l 46 0 l 46 126 l 124 126 q 184 142 172 126 q 194 184 192 154 q 196 256 194 192 l 196 669 q 191 763 194 747 q 170 794 188 787 q 124 800 154 800 l 46 800 l 46 926 l 665 926 q 820 916 778 926 q 968 822 919 894 q 1006 702 1006 769 q 953 561 1006 620 q 849 498 913 515 q 777 483 826 491 q 905 441 869 470 q 948 373 937 415 q 956 294 956 342 l 956 197 q 968 128 956 142 q 994 118 979 118 q 1027 140 1019 118 q 1034 259 1033 157 l 1123 259 q 1127 189 1127 210 q 1075 39 1127 93 q 914 -20 1017 -20 q 775 15 832 -20 q 682 253 682 73 l 683 344 q 651 411 683 394 q 582 420 633 420 l 467 420 m 467 539 l 561 539 q 654 545 629 539 q 712 593 693 557 q 729 670 729 626 q 682 780 729 751 q 580 800 650 800 l 467 800 l 467 539 m 619 1007 l 420 1007 l 229 1202 l 439 1202 l 557 1103 l 686 1202 l 808 1202 l 619 1007 "},"ã":{"x_min":57,"x_max":844,"ha":832,"o":"m 770 233 l 839 233 q 844 140 844 165 q 809 29 844 64 q 658 -20 761 -20 q 515 17 566 -20 q 475 91 487 38 q 272 -20 420 -20 q 120 22 175 -20 q 57 161 57 70 q 120 288 57 246 q 192 320 152 310 q 278 338 228 329 q 427 382 387 359 q 471 466 471 409 q 452 521 471 500 q 322 568 412 568 q 198 526 243 568 q 243 532 226 532 q 302 505 283 532 q 317 457 317 485 q 286 394 317 415 q 213 372 255 372 q 119 408 157 372 q 89 483 89 437 q 119 567 89 528 q 402 653 186 653 q 597 625 534 653 q 692 520 667 595 q 705 400 705 486 l 705 180 q 714 116 705 129 q 735 105 721 105 q 757 115 749 105 q 771 190 771 131 q 770 233 771 207 m 467 321 q 396 275 432 291 q 317 231 330 246 q 294 176 294 206 q 319 121 294 141 q 369 105 339 105 q 443 138 416 105 q 467 210 467 166 l 467 321 m 183 941 l 279 941 q 311 882 292 900 q 412 851 344 851 q 513 887 481 851 q 541 941 528 903 l 637 941 q 582 792 629 848 q 411 721 521 721 q 230 802 294 721 q 183 941 191 852 "},"Ň":{"x_min":46,"x_max":1171,"ha":1199,"o":"m 511 926 l 864 285 l 864 669 q 860 763 862 747 q 838 794 856 787 q 792 800 822 800 l 707 800 l 707 926 l 1171 926 l 1171 800 l 1092 800 q 1032 783 1044 800 q 1022 741 1024 771 q 1021 669 1022 734 l 1021 0 l 721 0 l 353 674 l 353 255 q 356 162 354 177 q 378 131 360 138 q 425 126 394 126 l 512 126 l 512 0 l 46 0 l 46 126 l 124 126 q 184 142 172 126 q 194 184 192 154 q 196 255 194 191 l 196 669 q 192 763 194 747 q 170 794 188 787 q 124 800 154 800 l 46 800 l 46 926 l 511 926 m 709 1007 l 510 1007 l 318 1202 l 529 1202 l 647 1103 l 776 1202 l 897 1202 l 709 1007 "},"æ":{"x_min":45,"x_max":690,"ha":741,"o":"m 542 241 l 687 241 q 636 85 675 144 q 399 -20 566 -20 q 167 47 256 -20 q 70 180 102 96 q 45 320 45 248 q 173 589 45 500 q 391 653 262 653 q 570 612 490 653 q 671 506 637 578 q 690 426 690 469 q 641 314 690 356 q 551 282 604 282 q 459 318 494 282 q 430 391 430 349 q 465 470 430 440 q 517 491 490 491 q 542 487 526 491 q 446 528 499 528 q 300 310 300 528 q 328 167 300 224 q 433 105 359 105 q 542 241 535 105 m 372 943 l 533 943 q 572 937 564 943 q 585 915 585 929 q 565 884 585 902 l 389 722 l 295 722 l 372 943 "},"É":{"x_min":46,"x_max":1000,"ha":1070,"o":"m 1000 926 l 1000 568 l 854 568 q 812 740 854 678 q 731 794 785 780 q 650 800 711 800 l 467 800 l 467 537 l 514 537 q 611 594 589 537 q 620 682 620 616 l 743 682 l 743 266 l 620 266 q 621 294 620 284 q 591 390 621 362 q 511 414 564 414 l 467 414 l 467 126 l 620 126 q 741 133 715 126 q 821 200 789 147 q 851 313 844 239 q 854 380 852 330 l 1000 380 l 1000 0 l 46 0 l 46 127 l 124 127 q 184 143 172 127 q 194 185 192 155 q 196 257 194 192 l 196 669 q 192 762 194 747 q 170 793 188 787 q 124 799 154 799 l 46 799 l 46 926 l 1000 926 m 583 1202 l 791 1202 q 835 1192 827 1202 q 842 1174 842 1184 q 823 1144 842 1153 l 544 1006 l 441 1006 l 583 1202 "},"~":{"x_min":122.765625,"x_max":798.953125,"ha":922,"o":"m 726 1062 l 798 978 q 724 872 756 906 q 607 820 672 820 q 535 834 577 820 q 455 867 526 837 q 370 903 383 898 q 320 914 341 914 q 248 878 280 914 q 195 796 225 853 l 122 881 q 191 984 162 951 q 318 1048 247 1048 q 483 997 370 1048 q 569 961 552 966 q 607 954 592 954 q 674 987 642 954 q 726 1062 695 1009 "},"³":{"x_min":37,"x_max":496,"ha":509,"o":"m 387 583 l 496 644 l 496 524 l 387 463 l 387 248 q 390 145 387 154 q 410 123 395 126 q 453 120 422 120 l 496 120 l 496 0 l 37 0 l 37 120 l 83 120 q 137 129 127 120 q 148 168 146 139 q 149 248 148 178 l 149 366 l 37 302 l 37 423 l 149 486 l 149 677 q 145 780 148 770 q 125 802 140 798 q 83 806 115 806 l 37 806 l 37 926 l 387 926 l 387 583 "},"¡":{"x_min":108.515625,"x_max":585.984375,"ha":695,"o":"m 440 722 l 261 722 l 108 943 l 303 943 l 377 831 l 477 943 l 585 943 l 440 722 "},"[":{"x_min":79,"x_max":466,"ha":503,"o":"m 323 811 l 323 -157 l 466 -157 l 466 -272 l 79 -272 l 79 926 l 466 926 l 466 811 l 323 811 "},"%":{"x_min":52,"x_max":1037,"ha":1225,"o":"m 857 841 l 921 784 l 231 0 l 170 56 l 857 841 m 277 851 q 439 789 377 851 q 500 636 500 730 q 457 507 500 565 q 277 429 401 429 q 115 480 173 429 q 52 636 52 538 q 131 809 52 748 q 277 851 187 851 m 277 775 q 209 626 209 775 q 276 500 209 500 q 343 637 343 500 q 336 718 343 687 q 277 775 324 775 m 814 412 q 976 350 914 412 q 1037 196 1037 291 q 994 68 1037 127 q 814 -10 938 -10 q 652 41 710 -10 q 589 197 589 99 q 668 369 589 308 q 814 412 724 412 m 815 336 q 746 185 746 336 q 813 59 746 59 q 881 197 881 59 q 874 279 881 248 q 815 336 862 336 "},"P":{"x_min":46,"x_max":1016,"ha":1001,"o":"m 467 404 l 467 255 q 471 162 468 177 q 492 131 474 138 q 538 126 508 126 l 617 126 l 617 0 l 46 0 l 46 126 l 124 126 q 184 142 172 126 q 194 184 192 154 q 196 255 194 191 l 196 669 q 192 763 194 747 q 170 794 188 787 q 124 800 154 800 l 46 800 l 46 926 l 659 926 q 806 917 762 926 q 972 818 917 892 q 1016 674 1016 759 q 958 503 1016 574 q 801 412 899 432 q 650 404 757 404 l 467 404 m 467 530 l 565 530 q 695 562 656 530 q 737 668 737 597 q 683 777 737 746 q 562 800 643 800 l 467 800 l 467 530 "},"_":{"x_min":0,"x_max":695,"ha":695,"o":"m 0 -64 l 695 -64 l 695 -174 l 0 -174 l 0 -64 "},"Ŕ":{"x_min":46,"x_max":1127,"ha":1120,"o":"m 467 420 l 467 256 q 470 162 468 177 q 492 131 474 138 q 538 126 507 126 l 617 126 l 617 0 l 46 0 l 46 126 l 124 126 q 184 142 172 126 q 194 184 192 154 q 196 256 194 192 l 196 669 q 191 763 194 747 q 170 794 188 787 q 124 800 154 800 l 46 800 l 46 926 l 665 926 q 820 916 778 926 q 968 822 919 894 q 1006 702 1006 769 q 953 561 1006 620 q 849 498 913 515 q 777 483 826 491 q 905 441 869 470 q 948 373 937 415 q 956 294 956 342 l 956 197 q 968 128 956 142 q 994 118 979 118 q 1027 140 1019 118 q 1034 259 1033 157 l 1123 259 q 1127 189 1127 210 q 1075 39 1127 93 q 914 -20 1017 -20 q 775 15 832 -20 q 682 253 682 73 l 683 344 q 651 411 683 394 q 582 420 633 420 l 467 420 m 467 539 l 561 539 q 654 545 629 539 q 712 593 693 557 q 729 670 729 626 q 682 780 729 751 q 580 800 650 800 l 467 800 l 467 539 m 530 1202 l 738 1202 q 782 1192 774 1202 q 789 1174 789 1184 q 770 1143 789 1153 l 491 1006 l 388 1006 l 530 1202 "},"ñ":{"x_min":46,"x_max":930,"ha":934,"o":"m 389 633 l 389 541 q 468 621 431 600 q 612 654 522 654 q 800 579 752 654 q 827 485 824 541 q 829 395 829 454 l 829 248 q 832 145 829 154 q 852 123 837 126 q 894 119 862 119 l 930 119 l 930 0 l 517 0 l 517 119 l 523 119 q 578 129 568 119 q 589 168 587 138 q 590 248 589 178 l 590 393 q 576 483 590 457 q 494 529 552 529 q 411 486 437 529 q 389 393 389 450 l 389 248 q 392 145 389 155 q 411 123 397 126 q 453 119 423 119 l 464 119 l 464 0 l 46 0 l 46 119 l 89 119 q 143 129 133 119 q 154 168 152 138 q 155 248 154 178 l 155 384 q 151 487 154 477 q 131 509 146 506 q 89 513 120 513 l 46 513 l 46 633 l 389 633 m 446 943 l 608 943 q 647 937 639 943 q 660 915 660 929 q 640 884 660 902 l 462 722 l 369 722 l 446 943 "},"‚":{"x_min":42,"x_max":283,"ha":319,"o":"m 61 -161 l 61 -100 q 126 -70 103 -89 q 173 0 157 -46 q 131 -14 155 -14 q 71 10 96 -14 q 42 86 42 41 q 81 170 42 138 q 159 197 115 197 q 258 146 222 197 q 283 60 283 113 q 190 -114 283 -52 q 61 -161 141 -147 "},"Æ":{"x_min":46,"x_max":926,"ha":984,"o":"m 926 926 l 926 567 l 784 567 q 742 732 782 673 q 666 795 715 773 q 576 814 624 814 q 397 703 456 814 q 351 470 351 615 q 395 232 351 318 q 579 112 457 112 q 762 236 712 112 q 784 372 780 281 l 926 372 q 894 194 926 269 q 718 14 840 69 q 514 -20 641 -20 q 222 63 336 -20 q 101 205 142 121 q 46 457 46 320 q 212 847 46 716 q 517 946 336 946 q 695 909 631 946 q 764 850 726 891 l 784 926 l 926 926 m 545 1202 l 753 1202 q 797 1192 789 1202 q 804 1174 804 1184 q 785 1143 804 1153 l 506 1006 l 403 1006 l 545 1202 "},"Ū":{"x_min":23,"x_max":1097,"ha":1120,"o":"m 23 800 l 23 926 l 588 926 l 588 800 l 515 800 q 455 783 467 800 q 445 741 447 771 q 444 669 445 734 l 444 345 q 449 227 444 253 q 618 112 472 112 q 758 166 718 112 q 784 236 777 192 q 790 345 790 270 l 790 669 q 786 763 788 748 q 764 794 782 787 q 718 800 748 800 l 651 800 l 651 926 l 1097 926 l 1097 800 l 1018 800 q 958 783 970 800 q 948 741 950 771 q 947 669 948 734 l 947 298 q 927 156 947 204 q 793 17 888 63 q 573 -20 715 -20 q 234 90 329 -20 q 179 207 191 140 q 173 298 173 241 l 173 669 q 169 763 171 748 q 147 794 165 787 q 101 800 131 800 l 23 800 m 327 1153 l 840 1153 l 840 1038 l 327 1038 l 327 1153 "},"ª":{"x_min":56,"x_max":922,"ha":959,"o":"m 529 -20 l 481 -78 q 488 -78 486 -78 q 515 -77 511 -77 q 588 -91 557 -77 q 620 -116 606 -99 q 639 -171 639 -141 q 607 -245 639 -211 q 466 -297 561 -297 q 315 -263 394 -297 l 343 -205 q 438 -228 403 -228 q 479 -215 463 -228 q 495 -177 495 -202 q 477 -140 495 -154 q 446 -130 463 -130 q 405 -143 429 -130 l 372 -110 l 442 -14 q 354 4 382 -3 q 211 70 291 21 l 184 0 l 56 0 l 56 358 l 196 358 q 237 246 209 285 q 390 134 291 170 q 518 112 451 112 q 638 147 598 112 q 668 213 668 175 q 613 299 668 268 q 494 333 581 317 q 283 383 353 360 q 101 499 152 428 q 57 652 57 562 q 160 868 57 792 q 441 946 265 946 q 647 908 561 946 q 734 852 686 891 l 759 926 l 884 926 l 884 581 l 747 581 q 671 740 734 684 q 475 806 596 806 q 361 783 409 806 q 307 704 307 757 q 357 634 307 658 q 488 600 391 618 q 705 548 646 571 q 922 273 922 467 q 820 55 922 134 q 549 -20 723 -20 q 529 -20 542 -20 "},"Œ":{"x_min":56,"x_max":922,"ha":959,"o":"m 884 926 l 884 581 l 747 581 q 671 740 734 684 q 475 806 596 806 q 361 783 409 806 q 307 704 307 757 q 357 634 307 658 q 488 600 391 618 q 705 548 646 571 q 922 273 922 467 q 820 55 922 134 q 687 -6 760 8 q 548 -20 622 -20 q 319 15 414 -20 q 211 70 275 32 l 184 0 l 56 0 l 56 358 l 196 358 q 237 246 209 285 q 390 134 291 170 q 518 112 451 112 q 638 147 598 112 q 668 213 668 175 q 613 299 668 268 q 494 333 581 317 q 283 383 353 360 q 101 499 152 428 q 57 652 57 562 q 105 812 57 743 q 261 919 158 885 q 441 946 341 946 q 647 908 561 946 q 734 852 686 891 l 759 926 l 884 926 m 500 1202 l 708 1202 q 753 1192 745 1202 q 760 1174 760 1184 q 740 1143 760 1153 l 461 1006 l 359 1006 l 500 1202 "},"Ą":{"x_min":-26,"x_max":1048,"ha":1021,"o":"m 1020 0 q 949 -98 949 -39 q 1005 -157 949 -157 q 1048 -151 1020 -157 l 1048 -263 q 968 -275 1005 -275 q 840 -237 884 -275 q 803 -144 803 -203 q 834 -50 803 -90 q 897 0 850 -28 l 520 0 l 520 126 l 574 126 q 626 131 616 126 q 641 158 641 139 q 622 229 641 170 l 599 301 l 314 301 l 290 229 q 272 160 272 170 q 336 126 272 126 l 397 126 l 397 0 l -26 0 l -26 126 l 18 126 q 75 140 56 126 q 123 229 98 156 l 359 926 l 680 926 l 896 229 q 940 140 919 156 q 1001 126 958 126 l 1048 126 l 1048 0 l 1020 0 m 562 421 l 459 732 l 352 421 l 562 421 "},"T":{"x_min":-8,"x_max":928,"ha":920,"o":"m -8 926 l 928 926 l 928 565 l 778 565 q 779 597 779 588 q 743 742 779 691 q 624 800 703 800 q 595 799 611 800 l 595 256 q 598 162 596 176 q 620 131 602 138 q 666 126 635 126 l 745 126 l 745 0 l 169 0 l 169 126 l 247 126 q 306 142 295 126 q 317 184 315 155 q 319 256 317 191 l 319 799 q 219 778 254 799 q 147 670 164 746 q 136 565 137 630 l -8 565 l -8 926 "},"š":{"x_min":45,"x_max":697,"ha":737,"o":"m 667 633 l 667 420 l 557 420 q 380 539 530 539 q 289 483 289 539 q 297 462 289 471 q 393 422 316 440 q 559 372 509 393 q 678 282 650 336 q 697 204 697 247 q 652 74 697 132 q 416 -21 578 -21 q 239 12 316 -21 q 174 50 212 24 l 161 0 l 52 0 l 52 231 l 161 231 q 234 134 182 167 q 374 94 298 94 q 465 145 465 94 q 458 166 465 158 q 366 206 441 186 q 204 255 246 238 q 45 441 45 318 q 135 603 45 544 q 351 654 211 654 q 498 628 437 654 q 557 598 522 619 l 570 633 l 667 633 m 452 722 l 273 722 l 120 943 l 315 943 l 390 831 l 490 943 l 597 943 l 452 722 "},"Þ":{"x_min":-8,"x_max":928,"ha":920,"o":"m -8 926 l 928 926 l 928 565 l 778 565 q 779 597 779 588 q 743 742 779 691 q 624 800 703 800 q 595 799 611 800 l 595 256 q 598 162 596 176 q 620 131 602 138 q 666 126 635 126 l 745 126 l 745 0 l 169 0 l 169 126 l 247 126 q 306 142 295 126 q 317 184 315 155 q 319 256 317 191 l 319 799 q 219 778 254 799 q 147 670 164 746 q 136 565 137 630 l -8 565 l -8 926 m 376 -344 l 376 -297 q 393 -298 386 -297 q 487 -231 478 -298 q 427 -247 453 -247 q 360 -218 386 -247 q 340 -163 340 -194 q 375 -95 340 -120 q 454 -74 406 -74 q 549 -108 513 -74 q 581 -194 581 -139 q 527 -305 581 -265 q 405 -346 476 -346 q 376 -344 395 -346 "},"j":{"x_min":-85,"x_max":425,"ha":525,"o":"m 299 935 q 392 892 353 935 q 425 807 425 856 q 382 713 425 750 q 297 680 345 680 q 202 722 241 680 q 170 808 170 758 q 212 901 170 863 q 299 935 248 935 m 417 633 l 417 -23 q 411 -134 417 -103 q 320 -264 395 -222 q 160 -302 255 -302 q 18 -274 85 -302 q -64 -208 -35 -252 q -85 -136 -85 -178 q -50 -51 -85 -84 q 31 -20 -18 -20 q 115 -57 88 -20 q 134 -119 134 -82 q 113 -183 134 -159 q 86 -206 105 -193 q 114 -215 103 -215 q 145 -206 130 -215 q 183 -119 183 -183 l 179 -23 l 179 384 q 175 487 178 477 q 156 509 170 505 q 114 513 143 513 l 60 513 l 60 633 l 417 633 "},"1":{"x_min":208,"x_max":725,"ha":870,"o":"m 600 840 l 600 256 q 604 162 601 178 q 625 131 607 138 q 670 126 640 126 l 725 126 l 725 0 l 208 0 l 208 126 l 277 126 q 336 142 325 126 q 347 184 345 155 q 349 256 347 191 l 349 610 l 208 610 l 208 731 q 337 759 294 736 q 404 840 387 786 l 600 840 "},"›":{"x_min":57.65625,"x_max":252,"ha":315,"o":"m 165 117 l 57 117 q 112 322 112 231 q 57 522 112 415 l 165 522 q 252 315 252 403 q 165 117 252 234 "},"<":{"x_min":37,"x_max":656,"ha":695,"o":"m 656 853 l 656 701 l 213 472 l 656 247 l 656 96 l 37 406 l 37 540 l 656 853 "},"t":{"x_min":26,"x_max":611.640625,"ha":646,"o":"m 390 893 l 390 633 l 556 633 l 556 513 l 390 513 l 390 236 q 396 140 390 172 q 441 105 405 105 q 485 139 473 105 q 494 223 494 163 q 492 312 494 245 l 611 312 q 611 244 611 255 q 597 102 612 142 q 392 -20 552 -20 q 200 49 263 -20 q 156 144 163 89 q 152 236 152 182 l 152 513 l 26 513 l 26 624 q 173 693 123 633 q 227 893 225 758 l 390 893 "},"¬":{"x_min":45,"x_max":648,"ha":695,"o":"m 488 0 l 488 179 l 45 179 l 45 326 l 648 326 l 648 0 l 488 0 "},"ù":{"x_min":5,"x_max":888,"ha":893,"o":"m 775 633 l 775 248 q 778 145 775 155 q 797 123 783 127 q 839 120 809 120 l 888 120 l 888 0 l 542 0 l 542 92 q 325 -21 480 -21 q 149 42 201 -21 q 110 143 113 84 q 109 233 109 170 l 109 384 q 105 487 108 478 q 85 509 100 506 q 43 513 72 513 l 5 513 l 5 633 l 342 633 l 342 239 q 361 130 342 158 q 432 100 383 100 q 542 239 542 100 l 542 384 q 538 487 541 477 q 518 509 533 505 q 476 513 506 513 l 426 513 l 426 633 l 775 633 m 431 980 q 530 934 489 980 q 566 843 566 895 q 520 741 566 782 q 429 706 482 706 q 328 751 368 706 q 293 844 293 790 q 338 944 293 903 q 431 980 377 980 m 430 893 q 392 876 407 893 q 380 843 380 861 q 396 805 380 820 q 429 793 410 793 q 466 809 450 793 q 479 843 479 824 q 462 880 479 864 q 430 893 448 893 "},"ï":{"x_min":46,"x_max":1051,"ha":1069,"o":"m 753 926 l 753 244 q 756 142 753 151 q 774 120 761 124 q 815 117 786 117 l 861 117 l 861 0 l 515 0 l 515 99 q 447 11 483 36 q 323 -20 397 -20 q 128 59 203 -20 q 60 192 82 107 q 46 316 46 251 q 88 521 46 428 q 189 627 120 594 q 304 653 239 653 q 451 606 392 653 q 515 534 479 585 l 515 677 q 511 780 514 771 q 492 802 506 798 q 450 806 479 806 l 401 806 l 401 926 l 753 926 m 405 528 q 322 468 350 528 q 295 307 295 409 q 319 165 295 219 q 402 105 347 105 q 493 176 466 105 q 518 324 518 243 q 491 465 518 409 q 405 528 462 528 m 846 671 l 846 718 q 863 718 856 718 q 925 732 899 718 q 962 791 954 747 q 901 773 929 773 q 834 800 858 773 q 813 856 813 824 q 849 924 813 899 q 925 946 879 946 q 1018 910 984 946 q 1051 821 1051 878 q 997 710 1051 752 q 879 670 947 670 q 846 671 866 670 "},"ī":{"x_min":46,"x_max":504,"ha":508,"o":"m 397 633 l 397 248 q 400 145 397 155 q 419 123 405 127 q 460 120 431 120 l 504 120 l 504 0 l 47 0 l 47 120 l 93 120 q 149 132 140 120 q 158 175 157 142 q 159 248 158 182 l 159 384 q 155 487 158 478 q 135 509 150 505 q 93 513 123 513 l 47 513 l 47 633 l 397 633 m 46 872 l 448 872 l 448 760 l 46 760 l 46 872 "},"Ò":{"x_min":46,"x_max":1171,"ha":1199,"o":"m 511 926 l 864 285 l 864 669 q 860 763 862 747 q 838 794 856 787 q 792 800 822 800 l 707 800 l 707 926 l 1171 926 l 1171 800 l 1092 800 q 1032 783 1044 800 q 1022 741 1024 771 q 1021 669 1022 734 l 1021 0 l 721 0 l 353 674 l 353 255 q 356 162 354 177 q 378 131 360 138 q 425 126 394 126 l 512 126 l 512 0 l 46 0 l 46 126 l 124 126 q 184 142 172 126 q 194 184 192 154 q 196 255 194 191 l 196 669 q 192 763 194 747 q 170 794 188 787 q 124 800 154 800 l 46 800 l 46 926 l 511 926 m 709 1007 l 510 1007 l 318 1202 l 529 1202 l 647 1103 l 776 1202 l 897 1202 l 709 1007 "},"Ď":{"x_min":46,"x_max":1113,"ha":1158,"o":"m 46 800 l 46 926 l 620 926 q 816 904 745 926 q 1036 745 953 862 q 1113 472 1113 638 q 1025 175 1113 292 q 765 15 933 50 q 585 0 688 0 l 46 0 l 46 126 l 124 126 q 184 142 172 126 q 194 184 192 154 q 196 255 194 191 l 196 669 q 191 763 194 747 q 170 794 188 787 q 124 800 154 800 l 46 800 m 467 126 l 558 126 q 677 145 633 126 q 785 273 752 179 q 806 465 806 333 q 780 676 806 610 q 669 789 745 766 q 556 800 632 800 l 467 800 l 467 126 m 640 1007 l 442 1007 l 250 1202 l 461 1202 l 578 1103 l 708 1202 l 829 1202 l 640 1007 "},"&":{"x_min":30,"x_max":1071,"ha":1101,"o":"m 632 552 l 1019 552 l 1019 430 l 974 430 q 906 416 927 430 q 870 373 890 404 l 822 294 q 750 190 802 261 q 869 120 812 120 q 925 149 904 120 q 951 258 951 185 q 948 324 951 279 l 1070 324 q 1071 260 1071 283 q 1039 97 1071 159 q 953 13 1011 42 q 831 -13 897 -13 q 607 59 708 -13 q 356 -13 497 -13 q 133 58 221 -13 q 51 166 78 102 q 30 269 30 216 q 120 468 30 387 q 242 538 158 502 q 202 684 202 622 q 240 808 202 751 q 334 887 276 860 q 436 910 382 910 q 599 839 538 910 q 648 712 648 783 q 582 562 648 634 q 511 499 561 539 q 672 279 569 400 q 721 346 711 331 q 745 400 745 381 q 692 430 745 430 l 632 430 l 632 552 m 444 602 q 457 611 450 606 q 525 716 525 657 q 510 760 525 743 q 456 785 489 785 q 407 764 426 785 q 392 722 392 748 q 417 646 392 690 q 444 602 422 637 m 309 430 q 267 383 280 400 q 236 288 236 342 q 294 158 236 210 q 414 112 345 112 q 519 146 463 112 q 399 294 441 234 q 329 400 391 305 q 309 430 322 410 "},"˝":{"x_min":151.921875,"x_max":664,"ha":695,"o":"m 229 943 l 362 943 q 401 937 393 943 q 414 915 414 929 q 394 884 414 903 l 227 722 l 151 722 l 229 943 m 478 943 l 612 943 q 651 937 643 943 q 664 915 664 929 q 644 884 664 903 l 476 722 l 402 722 l 478 943 "},"I":{"x_min":45,"x_max":611,"ha":659,"o":"m 611 126 l 611 0 l 45 0 l 45 126 l 123 126 q 183 142 171 126 q 193 184 191 154 q 195 255 193 191 l 195 669 q 190 763 193 747 q 169 794 187 787 q 123 800 153 800 l 45 800 l 45 926 l 611 926 l 611 800 l 532 800 q 473 783 484 800 q 462 741 464 771 q 461 669 462 734 l 461 255 q 464 162 462 177 q 486 131 468 138 q 532 126 502 126 l 611 126 "},"G":{"x_min":46,"x_max":1068,"ha":1093,"o":"m 931 926 l 931 573 l 786 573 q 768 678 780 644 q 580 814 722 814 q 413 727 469 814 q 351 452 351 630 q 391 239 351 316 q 503 127 433 158 q 579 112 538 112 q 671 143 644 112 q 693 216 693 168 l 692 219 l 692 229 q 688 323 690 308 q 666 354 684 347 q 620 360 650 360 l 562 360 l 562 486 l 1068 486 l 1068 360 l 1025 360 q 965 343 977 360 q 955 301 957 331 q 954 229 955 294 l 954 0 l 831 0 l 804 76 q 539 -20 723 -20 q 220 72 341 -20 q 92 236 135 137 q 46 460 46 341 q 107 718 46 600 q 322 911 177 853 q 516 946 409 946 q 710 905 642 946 q 764 852 735 890 l 786 926 l 931 926 "},"`":{"x_min":122,"x_max":412.359375,"ha":695,"o":"m 335 943 l 412 722 l 318 722 l 142 884 q 122 915 122 903 q 134 937 122 929 q 174 943 143 943 l 335 943 "},"·":{"x_min":54,"x_max":280,"ha":332,"o":"m 168 444 q 250 406 216 444 q 280 331 280 374 q 242 247 280 281 q 166 218 210 218 q 83 255 117 218 q 54 332 54 287 q 91 414 54 380 q 168 444 123 444 "},"¿":{"x_min":36,"x_max":665,"ha":702,"o":"m 52 633 l 665 633 l 665 513 l 319 120 l 405 120 q 517 152 486 120 q 536 183 531 166 q 542 252 542 204 q 542 302 542 267 l 665 302 l 665 0 l 36 0 l 36 144 l 368 513 l 272 513 q 186 476 204 513 q 173 362 176 455 l 52 362 l 52 633 m 359 933 q 435 898 403 933 q 462 829 462 869 q 427 752 462 782 q 358 725 397 725 q 281 759 312 725 q 254 830 254 789 q 288 905 254 874 q 359 933 318 933 "},"ý":{"x_min":-1,"x_max":835,"ha":829,"o":"m 467 633 l 467 513 l 415 513 q 383 508 391 513 q 375 493 375 504 q 385 460 375 486 l 485 208 l 594 460 q 603 491 603 479 q 563 513 603 513 l 513 513 l 513 633 l 835 633 l 835 513 l 796 513 q 745 489 763 513 q 710 424 732 471 l 494 -53 q 363 -251 426 -203 q 202 -300 297 -300 q 52 -247 104 -300 q 6 -133 6 -202 q 50 -24 6 -62 q 135 7 86 7 q 218 -23 185 7 q 248 -97 248 -50 q 208 -179 248 -153 q 159 -193 187 -193 q 138 -192 151 -193 q 198 -213 168 -213 q 297 -157 253 -213 q 359 -53 328 -117 l 139 424 q 103 491 112 480 q 50 513 87 513 l -1 513 l -1 633 l 467 633 m 421 943 l 582 943 q 621 937 612 943 q 634 915 634 929 q 614 884 634 902 l 437 722 l 344 722 l 421 943 "},"º":{"x_min":45,"x_max":697,"ha":737,"o":"m 417 -21 l 370 -78 q 377 -78 374 -78 q 403 -77 399 -77 q 476 -91 445 -77 q 508 -116 494 -99 q 527 -171 527 -141 q 495 -245 527 -211 q 354 -297 449 -297 q 204 -263 283 -297 l 232 -205 q 326 -228 291 -228 q 367 -215 351 -228 q 383 -177 383 -202 q 365 -140 383 -154 q 335 -130 352 -130 q 294 -143 317 -130 l 261 -110 l 330 -14 q 278 -1 298 -7 q 174 50 227 13 l 161 0 l 52 0 l 52 231 l 161 231 q 234 134 182 167 q 374 94 298 94 q 465 145 465 94 q 458 166 465 158 q 366 206 441 186 q 204 255 246 238 q 45 441 45 318 q 135 603 45 544 q 351 654 211 654 q 498 628 437 654 q 557 598 522 619 l 570 633 l 667 633 l 667 420 l 557 420 q 380 539 530 539 q 289 483 289 539 q 297 462 289 471 q 393 422 316 440 q 559 373 510 393 q 678 282 650 336 q 697 204 697 248 q 639 58 697 120 q 417 -21 564 -20 "},"ź":{"x_min":36,"x_max":665,"ha":702,"o":"m 52 633 l 665 633 l 665 513 l 319 120 l 405 120 q 517 152 486 120 q 536 183 531 166 q 542 252 542 204 q 542 302 542 267 l 665 302 l 665 0 l 36 0 l 36 144 l 368 513 l 272 513 q 186 476 204 513 q 173 362 176 455 l 52 362 l 52 633 m 353 943 l 515 943 q 554 937 546 943 q 567 915 567 929 q 547 884 567 902 l 370 722 l 277 722 l 353 943 "},"ű":{"x_min":5,"x_max":888,"ha":893,"o":"m 775 633 l 775 248 q 778 145 775 155 q 797 123 783 127 q 839 120 809 120 l 888 120 l 888 0 l 542 0 l 542 92 q 325 -21 480 -21 q 149 42 201 -21 q 110 143 113 84 q 109 233 109 170 l 109 384 q 105 487 108 478 q 85 509 100 506 q 43 513 72 513 l 5 513 l 5 633 l 342 633 l 342 239 q 361 130 342 158 q 432 100 383 100 q 542 239 542 100 l 542 384 q 538 487 541 477 q 518 509 533 505 q 476 513 506 513 l 426 513 l 426 633 l 775 633 m 310 943 l 443 943 q 482 937 474 943 q 495 915 495 929 q 475 884 495 903 l 308 722 l 233 722 l 310 943 m 560 943 l 693 943 q 733 937 724 943 q 746 915 746 929 q 726 884 746 903 l 558 722 l 482 722 l 560 943 "},"ń":{"x_min":46,"x_max":930,"ha":934,"o":"m 389 633 l 389 541 q 468 621 431 600 q 612 654 522 654 q 800 579 752 654 q 827 485 824 541 q 829 395 829 454 l 829 248 q 832 145 829 154 q 852 123 837 126 q 894 119 862 119 l 930 119 l 930 0 l 517 0 l 517 119 l 523 119 q 578 129 568 119 q 589 168 587 138 q 590 248 589 178 l 590 393 q 576 483 590 457 q 494 529 552 529 q 411 486 437 529 q 389 393 389 450 l 389 248 q 392 145 389 155 q 411 123 397 126 q 453 119 423 119 l 464 119 l 464 0 l 46 0 l 46 119 l 89 119 q 143 129 133 119 q 154 168 152 138 q 155 248 154 178 l 155 384 q 151 487 154 477 q 131 509 146 506 q 89 513 120 513 l 46 513 l 46 633 l 389 633 m 446 943 l 608 943 q 647 937 639 943 q 660 915 660 929 q 640 884 660 902 l 462 722 l 369 722 l 446 943 "},";":{"x_min":43,"x_max":308,"ha":343,"o":"m 58 -185 l 58 -105 q 144 -67 114 -93 q 183 0 172 -44 q 133 -13 155 -13 q 70 14 95 -13 q 43 89 43 44 q 85 180 43 146 q 167 209 120 209 q 272 162 230 209 q 308 60 308 122 q 256 -86 308 -19 q 128 -175 205 -152 q 58 -185 104 -181 m 159 629 q 241 591 207 629 q 271 516 271 559 q 233 432 271 466 q 157 403 201 403 q 74 440 108 403 q 45 517 45 472 q 82 599 45 565 q 159 629 114 629 "},"6":{"x_min":66,"x_max":824,"ha":870,"o":"m 323 440 q 392 493 360 478 q 523 520 448 520 q 722 458 640 520 q 804 352 777 415 q 824 254 824 305 q 729 55 824 134 q 594 -6 678 14 q 471 -21 535 -21 q 181 80 285 -21 q 66 416 66 193 q 175 742 66 631 q 338 836 238 806 q 494 860 413 860 q 717 796 637 860 q 783 675 783 744 q 745 583 783 621 q 655 548 709 548 q 576 576 608 548 q 543 652 543 605 q 614 737 543 725 q 529 758 572 758 q 346 626 393 758 q 323 440 328 575 m 462 405 q 368 358 401 405 q 339 245 339 315 q 377 125 339 167 q 455 94 406 94 q 554 147 523 94 q 578 249 578 187 q 536 376 578 337 q 462 405 506 405 "},"n":{"x_min":46,"x_max":930,"ha":934,"o":"m 389 633 l 389 541 q 468 621 431 600 q 612 654 522 654 q 800 579 752 654 q 827 485 824 541 q 829 395 829 454 l 829 248 q 832 145 829 154 q 852 123 837 126 q 894 119 862 119 l 930 119 l 930 0 l 517 0 l 517 119 l 523 119 q 578 129 568 119 q 589 168 587 138 q 590 248 589 178 l 590 393 q 576 483 590 457 q 494 529 552 529 q 411 486 437 529 q 389 393 389 450 l 389 248 q 392 145 389 155 q 411 123 397 126 q 453 119 423 119 l 464 119 l 464 0 l 46 0 l 46 119 l 89 119 q 143 129 133 119 q 154 168 152 138 q 155 248 154 178 l 155 384 q 151 487 154 477 q 131 509 146 506 q 89 513 120 513 l 46 513 l 46 633 l 389 633 "},"ģ":{"x_min":25,"x_max":885,"ha":858,"o":"m 593 584 q 648 633 626 619 q 736 660 687 660 q 849 615 805 660 q 885 526 885 579 q 853 446 885 475 q 792 424 828 424 q 730 450 753 424 q 707 513 707 477 q 736 584 707 549 q 712 588 721 588 q 632 543 668 588 q 678 400 678 469 q 638 271 678 330 q 370 148 556 148 q 207 176 293 148 q 186 140 186 159 q 326 82 186 82 l 523 89 q 716 40 651 89 q 768 -31 751 13 q 780 -96 780 -62 q 748 -199 780 -153 q 621 -275 709 -252 q 411 -294 545 -294 q 110 -257 214 -294 q 25 -159 25 -227 q 79 -77 25 -105 q 135 -57 100 -67 q 73 -14 91 -35 q 44 68 44 18 q 95 174 44 137 q 164 201 117 189 q 102 264 121 237 q 65 388 65 316 q 150 577 65 502 q 268 638 196 619 q 373 653 319 653 q 542 615 472 653 q 593 584 560 606 m 373 576 q 292 393 292 576 q 319 256 292 301 q 370 227 337 227 q 451 398 451 227 q 436 525 451 481 q 373 576 419 576 m 387 -90 q 235 -104 274 -90 q 203 -142 203 -116 q 247 -185 203 -172 q 417 -200 299 -200 q 586 -178 536 -200 q 616 -140 616 -166 q 576 -102 616 -111 q 387 -90 523 -90 m 475 991 l 475 944 q 458 945 464 944 q 395 930 422 945 q 359 875 368 916 q 419 894 392 894 q 486 865 462 894 q 508 810 508 841 q 472 742 508 767 q 395 721 440 721 q 303 756 337 721 q 271 843 271 789 q 323 952 271 910 q 441 993 374 993 q 475 991 453 993 "},"¤":{"x_min":28.484375,"x_max":897.28125,"ha":926,"o":"m 29 189 l 172 333 q 111 523 111 421 q 172 714 111 623 l 28 858 l 125 955 l 269 811 q 463 872 362 872 q 654 813 563 872 l 797 954 l 893 858 l 752 716 q 816 523 816 618 q 754 333 816 425 l 897 190 l 802 94 l 659 236 q 462 173 565 173 q 267 235 366 173 l 125 94 l 29 189 m 465 713 q 328 657 385 713 q 273 522 273 601 q 329 387 273 443 q 463 332 385 332 q 598 387 541 332 q 654 522 654 443 q 597 657 654 603 q 465 713 540 713 "},"p":{"x_min":18,"x_max":843,"ha":889,"o":"m 374 633 l 374 535 q 441 616 407 592 q 578 654 496 654 q 761 580 693 654 q 826 450 803 534 q 843 320 843 386 q 801 110 843 205 q 581 -20 744 -20 q 430 22 485 -20 q 374 84 406 41 l 374 -38 q 377 -141 374 -131 q 397 -162 382 -158 q 439 -166 409 -166 l 479 -166 l 479 -286 l 18 -286 l 18 -166 l 70 -166 q 124 -156 114 -166 q 135 -118 133 -147 q 136 -38 135 -107 l 136 384 q 132 487 135 477 q 112 509 127 505 q 70 513 100 513 l 28 513 l 28 633 l 374 633 m 486 529 q 404 471 429 529 q 375 296 375 404 q 405 143 375 200 q 482 95 431 95 q 566 160 540 95 q 589 308 589 214 q 565 473 589 419 q 486 529 540 529 "},"‡":{"x_min":58,"x_max":636,"ha":695,"o":"m 219 342 q 283 444 263 394 q 303 553 301 490 q 254 537 271 544 q 180 498 246 533 q 144 490 165 490 q 80 523 105 490 q 58 594 58 553 q 85 674 58 641 q 141 700 107 700 q 226 668 173 700 q 303 637 263 646 q 298 694 303 673 q 274 758 292 717 q 243 862 243 828 q 347 945 243 945 q 451 861 451 945 q 419 758 451 827 q 394 686 399 712 q 389 637 390 668 q 467 668 431 646 q 552 700 520 700 q 614 664 591 700 q 636 594 636 633 q 606 515 636 546 q 549 490 582 490 q 513 498 528 490 l 455 530 q 390 553 434 541 q 411 444 392 490 q 475 342 431 394 q 411 241 431 290 q 390 132 392 195 q 440 148 422 141 q 513 188 448 152 q 549 197 528 197 q 613 163 588 197 q 636 92 636 133 q 608 11 636 45 q 551 -14 586 -14 q 467 17 520 -14 q 389 48 431 39 q 396 -9 391 12 q 419 -72 401 -31 q 451 -177 451 -143 q 347 -260 451 -260 q 243 -176 243 -260 q 274 -72 243 -141 q 300 0 294 -27 q 303 48 303 16 q 226 17 263 39 q 142 -14 173 -14 q 79 21 102 -14 q 58 92 58 52 q 87 171 58 140 q 144 197 111 197 q 180 188 165 197 l 239 156 q 303 132 260 143 q 283 241 301 195 q 219 342 263 290 "},"ň":{"x_min":46,"x_max":930,"ha":934,"o":"m 389 633 l 389 541 q 468 621 431 600 q 612 654 522 654 q 800 579 752 654 q 827 485 824 541 q 829 395 829 454 l 829 248 q 832 145 829 154 q 852 123 837 126 q 894 119 862 119 l 930 119 l 930 0 l 517 0 l 517 119 l 523 119 q 578 129 568 119 q 589 168 587 138 q 590 248 589 178 l 590 393 q 576 483 590 457 q 494 529 552 529 q 411 486 437 529 q 389 393 389 450 l 389 248 q 392 145 389 155 q 411 123 397 126 q 453 119 423 119 l 464 119 l 464 0 l 46 0 l 46 119 l 89 119 q 143 129 133 119 q 154 168 152 138 q 155 248 154 178 l 155 384 q 151 487 154 477 q 131 509 146 506 q 89 513 120 513 l 46 513 l 46 633 l 389 633 m 560 722 l 381 722 l 228 943 l 423 943 l 497 831 l 598 943 l 706 943 l 560 722 "},"√":{"x_min":3,"x_max":928,"ha":926,"o":"m 928 1110 l 928 1000 l 725 1000 l 305 -22 l 131 401 l 3 401 l 3 511 l 212 511 l 257 404 q 303 251 290 324 l 310 251 q 356 400 329 333 l 638 1110 l 928 1110 "},"ę":{"x_min":46,"x_max":720.625,"ha":766,"o":"m 606 -142 l 606 -249 q 522 -261 554 -261 q 400 -223 444 -261 q 363 -132 363 -190 q 377 -70 363 -97 q 435 -17 391 -44 q 376 -22 388 -22 q 270 -3 332 -22 q 130 85 185 20 q 46 321 46 185 q 98 507 46 424 q 383 654 190 654 q 720 282 715 654 l 294 282 q 294 258 294 272 q 335 137 294 178 q 420 104 369 104 q 538 220 524 104 l 709 220 q 574 16 680 105 q 522 -35 533 -19 q 507 -89 507 -61 q 563 -148 507 -148 q 606 -142 578 -148 m 486 388 q 471 482 483 454 q 395 529 450 529 q 315 477 338 529 q 296 388 300 446 l 486 388 "},"S":{"x_min":56,"x_max":922,"ha":959,"o":"m 884 926 l 884 581 l 747 581 q 671 740 734 684 q 475 806 596 806 q 361 783 409 806 q 307 704 307 757 q 357 634 307 658 q 488 600 391 618 q 705 548 646 571 q 922 273 922 467 q 820 55 922 134 q 687 -6 760 8 q 548 -20 622 -20 q 319 15 414 -20 q 211 70 275 32 l 184 0 l 56 0 l 56 358 l 196 358 q 237 246 209 285 q 390 134 291 170 q 518 112 451 112 q 638 147 598 112 q 668 213 668 175 q 613 299 668 268 q 494 333 581 317 q 283 383 353 360 q 101 499 152 428 q 57 652 57 562 q 105 812 57 743 q 261 919 158 885 q 441 946 341 946 q 647 908 561 946 q 734 852 686 891 l 759 926 l 884 926 "},"/":{"x_min":-28.484375,"x_max":485.609375,"ha":543,"o":"m 340 926 l 485 926 l 119 -286 l -28 -286 l 340 926 "},"į":{"x_min":46,"x_max":503,"ha":508,"o":"m 475 0 q 404 -99 404 -40 q 460 -158 404 -158 q 503 -151 475 -158 l 503 -258 q 419 -271 452 -271 q 297 -232 341 -271 q 260 -141 260 -200 q 304 -35 260 -82 q 352 0 323 -15 l 46 0 l 46 120 l 92 120 q 148 132 139 120 q 157 175 156 142 q 158 248 157 182 l 158 384 q 154 487 157 478 q 134 509 149 506 q 92 513 122 513 l 46 513 l 46 633 l 396 633 l 396 248 q 399 145 396 155 q 418 123 404 127 q 459 120 431 120 l 503 120 l 503 0 l 475 0 m 273 933 q 365 890 326 933 q 398 806 398 854 q 355 711 398 749 q 271 679 319 679 q 176 721 214 679 q 144 806 144 757 q 186 900 144 861 q 273 933 222 933 "},"y":{"x_min":-1,"x_max":835,"ha":829,"o":"m 467 633 l 467 513 l 415 513 q 383 508 391 513 q 375 493 375 504 q 385 460 375 486 l 485 208 l 594 460 q 603 491 603 479 q 563 513 603 513 l 513 513 l 513 633 l 835 633 l 835 513 l 796 513 q 745 489 763 513 q 710 424 732 471 l 494 -53 q 363 -251 426 -203 q 202 -300 297 -300 q 52 -247 104 -300 q 6 -133 6 -202 q 50 -24 6 -62 q 135 7 86 7 q 218 -23 185 7 q 248 -97 248 -50 q 208 -179 248 -153 q 159 -193 187 -193 q 138 -192 151 -193 q 198 -213 168 -213 q 297 -157 253 -213 q 359 -53 328 -117 l 139 424 q 103 491 112 480 q 50 513 87 513 l -1 513 l -1 633 l 467 633 "},"g":{"x_min":24,"x_max":885,"ha":858,"o":"m 593 584 q 648 633 626 619 q 736 660 687 660 q 849 615 805 660 q 885 526 885 579 q 853 446 885 475 q 792 424 828 424 q 730 450 753 424 q 707 513 707 477 q 736 584 707 549 q 712 588 721 588 q 632 543 668 588 q 678 400 678 469 q 638 271 678 330 q 370 148 556 148 q 206 176 293 148 q 186 140 186 159 q 325 82 186 82 l 523 89 q 715 40 650 89 q 767 -31 750 13 q 779 -96 779 -62 q 747 -199 779 -153 q 620 -275 708 -252 q 410 -294 544 -294 q 109 -257 213 -294 q 24 -159 24 -227 q 79 -77 24 -105 q 135 -57 100 -67 q 73 -14 91 -35 q 44 68 44 18 q 95 174 44 137 q 164 201 117 189 q 102 264 121 237 q 65 388 65 316 q 150 577 65 502 q 268 638 196 619 q 372 653 319 653 q 542 615 472 653 q 593 584 560 606 m 373 576 q 292 393 292 576 q 319 256 292 301 q 370 227 337 227 q 451 398 451 227 q 436 525 451 481 q 373 576 419 576 m 386 -90 q 234 -104 273 -90 q 202 -142 202 -116 q 246 -185 202 -172 q 416 -200 298 -200 q 585 -178 535 -200 q 615 -140 615 -166 q 575 -102 615 -111 q 386 -90 522 -90 "},"":{"x_min":26,"x_max":691,"ha":709,"o":"m 390 893 l 390 633 l 556 633 l 556 513 l 390 513 l 390 236 q 396 140 390 172 q 441 105 405 105 q 485 139 473 105 q 494 223 494 163 q 493 312 494 245 l 611 312 q 611 244 611 255 q 597 102 612 142 q 392 -20 552 -20 q 200 49 263 -20 q 156 144 163 89 q 152 236 152 182 l 152 513 l 26 513 l 26 624 q 173 693 123 633 q 227 893 225 758 l 390 893 m 487 704 l 487 751 q 503 751 497 751 q 566 765 539 751 q 602 824 594 780 q 542 807 569 807 q 475 834 500 807 q 454 889 454 858 q 489 957 454 932 q 566 979 520 979 q 658 944 624 979 q 691 854 691 911 q 638 743 691 785 q 520 703 587 703 q 487 704 507 703 "},"²":{"x_min":479,"x_max":722,"ha":695,"o":"m 571 0 l 694 0 q 623 -99 623 -39 q 679 -158 623 -158 q 722 -151 694 -158 l 722 -258 q 638 -271 671 -271 q 516 -232 560 -271 q 479 -141 479 -200 q 522 -35 479 -82 q 571 0 543 -13 "},"–":{"x_min":47,"x_max":779,"ha":824,"o":"m 47 415 l 779 415 l 779 250 l 47 250 l 47 415 "},"ë":{"x_min":46,"x_max":720.265625,"ha":766,"o":"m 720 282 l 293 282 q 419 105 291 105 q 537 220 524 105 l 708 220 q 640 83 687 137 q 386 -20 549 -20 q 159 57 244 -20 q 70 188 100 110 q 46 321 46 252 q 98 507 46 424 q 383 654 190 654 q 720 282 715 654 m 486 388 q 470 482 482 454 q 394 529 450 529 q 314 477 338 529 q 295 388 300 446 l 486 388 m 244 928 q 317 894 286 928 q 343 828 343 866 q 309 753 343 783 q 243 728 281 728 q 168 761 198 728 q 143 829 143 789 q 176 902 143 871 q 244 928 204 928 m 524 928 q 597 894 566 928 q 623 828 623 866 q 589 753 623 783 q 523 728 561 728 q 448 761 478 728 q 423 829 423 789 q 456 902 423 871 q 524 928 484 928 "},"J":{"x_min":-10,"x_max":829,"ha":851,"o":"m 107 183 q 154 132 128 146 q 245 112 190 112 q 378 166 342 112 q 402 318 402 203 l 402 669 q 397 763 400 748 q 376 794 394 787 q 330 800 360 800 l 252 800 l 252 926 l 829 926 l 829 800 l 744 800 q 684 783 696 800 q 674 741 676 771 q 673 669 674 734 l 673 282 q 656 151 673 199 q 531 15 624 63 q 348 -20 461 -20 q 99 37 195 -20 q 20 119 50 68 q -10 234 -10 171 q 40 365 -10 317 q 142 406 83 406 q 237 366 199 406 q 272 277 272 330 q 236 192 272 222 q 165 166 204 166 q 107 183 140 166 "},"Ã":{"x_min":-26,"x_max":1048,"ha":1021,"o":"m 359 926 l 680 926 l 896 229 q 940 140 919 156 q 1001 126 958 126 l 1048 126 l 1048 0 l 520 0 l 520 126 l 574 126 q 626 131 616 126 q 641 158 641 139 q 622 229 641 170 l 599 301 l 314 301 l 290 229 q 272 160 272 170 q 336 126 272 126 l 397 126 l 397 0 l -26 0 l -26 126 l 18 126 q 75 140 56 126 q 123 229 98 156 l 359 926 m 562 421 l 459 732 l 352 421 l 562 421 m 258 1204 l 368 1204 q 401 1153 379 1168 q 522 1127 442 1127 q 640 1156 603 1127 q 671 1204 658 1170 l 780 1204 q 712 1063 763 1110 q 516 1005 648 1005 q 317 1074 387 1005 q 258 1204 274 1115 "},"ŕ":{"x_min":46,"x_max":698,"ha":680,"o":"m 393 633 l 393 513 q 448 604 425 577 q 558 654 490 654 q 669 601 632 654 q 698 503 698 562 q 661 399 698 435 q 579 367 628 367 q 503 395 533 367 q 474 470 474 424 q 534 555 474 536 q 508 560 517 560 q 456 536 483 560 q 399 432 412 497 q 393 336 393 395 l 393 248 q 396 145 393 155 q 416 123 401 126 q 458 120 426 120 l 505 120 l 505 0 l 46 0 l 46 120 l 96 120 q 150 129 140 120 q 161 168 159 138 q 162 248 161 178 l 162 384 q 158 487 161 478 q 138 509 153 505 q 96 513 128 513 l 46 513 l 46 633 l 393 633 m 342 943 l 503 943 q 543 937 534 943 q 556 915 556 929 q 536 884 556 902 l 359 722 l 265 722 l 342 943 "},"‐":{"x_min":0,"x_max":361,"ha":361,"o":"m 0 415 l 361 415 l 361 250 l 0 250 l 0 415 "},"©":{"x_min":46,"x_max":1009,"ha":1055,"o":"m 757 713 l 757 514 l 670 514 q 560 645 667 645 q 466 588 497 645 q 441 467 441 542 q 464 342 441 387 q 561 281 497 281 q 645 321 616 281 q 670 420 667 352 l 757 420 q 739 318 757 358 q 527 202 687 202 q 363 246 427 202 q 264 459 264 316 q 356 671 264 599 q 527 724 426 724 q 661 677 615 724 l 671 713 l 757 713 m 535 946 q 779 874 664 946 q 956 682 895 802 q 1009 462 1009 578 q 938 211 1009 327 q 747 33 867 95 q 528 -20 644 -20 q 278 50 394 -20 q 99 242 161 121 q 46 462 46 346 q 117 716 46 599 q 311 893 187 831 q 535 946 414 946 m 534 859 q 256 744 370 859 q 142 462 142 628 q 256 181 142 298 q 528 67 370 67 q 800 182 687 67 q 913 462 913 298 q 855 669 913 574 q 703 815 801 763 q 534 859 622 859 "},"˘":{"x_min":120.046875,"x_max":575.140625,"ha":695,"o":"m 120 941 l 217 941 q 247 882 229 900 q 349 851 281 851 q 451 887 418 851 q 478 941 465 903 l 575 941 q 518 792 567 848 q 347 721 458 721 q 226 752 281 721 q 137 856 164 786 q 120 941 125 886 "},"≥":{"x_min":10,"x_max":686,"ha":695,"o":"m 10 902 l 686 635 l 686 484 l 10 197 l 10 346 l 507 559 l 10 753 l 10 902 m 686 149 l 686 2 l 10 2 l 10 149 l 686 149 "},"Ă":{"x_min":-26,"x_max":1048,"ha":1021,"o":"m 359 926 l 680 926 l 896 229 q 940 140 919 156 q 1001 126 958 126 l 1048 126 l 1048 0 l 520 0 l 520 126 l 574 126 q 626 131 616 126 q 641 158 641 139 q 622 229 641 170 l 599 301 l 314 301 l 290 229 q 272 160 272 170 q 336 126 272 126 l 397 126 l 397 0 l -26 0 l -26 126 l 18 126 q 75 140 56 126 q 123 229 98 156 l 359 926 m 562 421 l 459 732 l 352 421 l 562 421 m 258 1204 l 368 1204 q 401 1153 379 1168 q 522 1127 442 1127 q 640 1156 603 1127 q 671 1204 658 1170 l 780 1204 q 712 1063 763 1110 q 516 1005 648 1005 q 317 1074 387 1005 q 258 1204 274 1115 "},"D":{"x_min":46,"x_max":1113,"ha":1158,"o":"m 46 800 l 46 926 l 620 926 q 816 904 745 926 q 1036 745 953 862 q 1113 472 1113 638 q 1025 175 1113 292 q 765 15 933 50 q 585 0 688 0 l 46 0 l 46 126 l 124 126 q 184 142 172 126 q 194 184 192 154 q 196 255 194 191 l 196 669 q 191 763 194 747 q 170 794 188 787 q 124 800 154 800 l 46 800 m 467 126 l 558 126 q 677 145 633 126 q 785 273 752 179 q 806 465 806 333 q 780 676 806 610 q 669 789 745 766 q 556 800 632 800 l 467 800 l 467 126 "},"ÿ":{"x_min":243,"x_max":451,"ha":695,"o":"m 348 933 q 423 898 392 933 q 451 829 451 868 q 416 752 451 783 q 347 725 386 725 q 270 759 301 725 q 243 830 243 789 q 277 905 243 874 q 348 933 307 933 "},"ĺ":{"x_min":37,"x_max":502,"ha":509,"o":"m 387 926 l 387 248 q 390 145 387 154 q 410 123 395 126 q 453 120 422 120 l 496 120 l 496 0 l 37 0 l 37 120 l 83 120 q 137 129 127 120 q 148 168 146 139 q 149 248 148 178 l 149 677 q 145 780 148 770 q 125 802 140 798 q 83 806 115 806 l 37 806 l 37 926 l 387 926 m 266 1202 l 451 1202 q 495 1192 487 1202 q 502 1174 502 1184 q 482 1144 502 1154 l 226 1006 l 124 1006 l 266 1202 "},"ł":{"x_min":37,"x_max":496,"ha":509,"o":"m 387 583 l 496 644 l 496 524 l 387 463 l 387 248 q 390 145 387 154 q 410 123 395 126 q 453 120 422 120 l 496 120 l 496 0 l 37 0 l 37 120 l 83 120 q 137 129 127 120 q 148 168 146 139 q 149 248 148 178 l 149 366 l 37 302 l 37 423 l 149 486 l 149 677 q 145 780 148 770 q 125 802 140 798 q 83 806 115 806 l 37 806 l 37 926 l 387 926 l 387 583 "},"Ł":{"x_min":46,"x_max":951,"ha":937,"o":"m 196 328 l 46 254 l 46 388 l 196 463 l 196 669 q 191 763 194 747 q 170 794 188 787 q 124 800 154 800 l 46 800 l 46 926 l 617 926 l 617 800 l 538 800 q 478 782 490 800 q 468 741 470 771 q 467 669 468 733 l 467 561 l 709 681 l 709 546 l 467 425 l 467 126 l 632 126 q 724 142 693 126 q 798 257 777 174 q 810 378 808 297 l 951 378 l 951 0 l 46 0 l 46 127 l 124 127 q 184 143 172 127 q 194 185 192 155 q 196 256 194 192 l 196 328 "},"$":{"x_min":50,"x_max":848,"ha":870,"o":"m 396 935 l 499 935 l 499 858 q 655 835 606 852 q 785 736 746 803 q 808 657 808 698 q 771 564 808 600 q 694 536 742 536 q 614 565 644 536 q 591 626 591 589 q 614 685 591 663 q 660 702 632 702 q 698 694 673 702 q 611 742 659 730 q 463 761 540 761 q 312 727 365 761 q 273 683 288 711 q 262 639 262 661 q 349 557 262 578 q 525 529 381 549 q 756 453 678 507 q 848 259 848 390 q 791 96 848 158 q 597 -10 718 14 q 499 -19 562 -16 l 499 -160 l 396 -160 l 396 -19 q 264 1 311 -11 q 86 109 142 34 q 50 209 50 157 q 86 293 50 261 q 164 323 119 323 q 242 293 211 323 q 270 231 270 268 q 230 164 270 187 q 176 152 210 153 q 440 83 267 83 q 581 108 533 83 q 628 152 610 124 q 645 207 645 178 q 602 274 645 251 q 444 309 564 293 q 275 337 323 324 q 112 419 164 367 q 53 583 53 479 q 101 729 53 664 q 286 842 161 811 q 396 858 321 850 l 396 935 "},"w":{"x_min":-7,"x_max":1162,"ha":1156,"o":"m -7 633 l 399 633 l 399 513 l 377 513 q 339 504 349 513 q 335 487 335 500 q 338 466 335 477 l 419 156 l 510 466 q 516 493 516 485 q 480 513 516 513 l 449 513 l 449 633 l 833 633 l 833 513 l 801 513 q 765 490 765 513 q 769 466 765 483 l 852 156 l 941 466 q 946 490 946 483 q 915 513 946 513 l 883 513 l 883 633 l 1162 633 l 1162 513 l 1134 513 q 1085 501 1100 513 q 1053 422 1073 491 l 931 0 l 667 0 l 580 306 l 494 0 l 234 0 l 111 422 q 81 492 97 472 q 33 513 65 513 l -7 513 l -7 633 "},"\\":{"x_min":57.65625,"x_max":571.734375,"ha":543,"o":"m 202 926 l 571 -286 l 424 -286 l 57 926 l 202 926 "},"Ì":{"x_min":46,"x_max":1000,"ha":1070,"o":"m 1000 926 l 1000 568 l 854 568 q 812 740 854 678 q 731 794 785 780 q 650 800 711 800 l 467 800 l 467 537 l 514 537 q 611 594 589 537 q 620 682 620 616 l 743 682 l 743 266 l 620 266 q 621 294 620 284 q 591 390 621 362 q 511 414 564 414 l 467 414 l 467 126 l 620 126 q 741 133 715 126 q 821 200 789 147 q 851 313 844 239 q 854 380 852 330 l 1000 380 l 1000 0 l 46 0 l 46 127 l 124 127 q 184 143 172 127 q 194 185 192 155 q 196 257 194 192 l 196 669 q 192 762 194 747 q 170 793 188 787 q 124 799 154 799 l 46 799 l 46 926 l 1000 926 m 653 1007 l 455 1007 l 263 1202 l 474 1202 l 591 1103 l 721 1202 l 842 1202 l 653 1007 "},"Ç":{"x_min":46,"x_max":926,"ha":984,"o":"m 551 -19 l 503 -78 q 510 -78 508 -78 q 536 -77 532 -77 q 610 -91 578 -77 q 641 -116 628 -99 q 661 -171 661 -141 q 629 -245 661 -211 q 487 -297 582 -297 q 337 -263 416 -297 l 365 -205 q 460 -228 425 -228 q 501 -215 484 -228 q 517 -177 517 -202 q 499 -140 517 -154 q 468 -130 485 -130 q 427 -143 450 -130 l 394 -110 l 460 -18 q 283 25 357 -10 q 119 172 179 77 q 46 457 46 290 q 212 847 46 716 q 517 946 336 946 q 695 909 631 946 q 764 850 725 891 l 784 926 l 926 926 l 926 567 l 784 567 q 742 732 782 673 q 666 795 715 773 q 576 814 624 814 q 397 703 456 814 q 351 470 351 615 q 395 232 351 318 q 579 112 457 112 q 762 236 712 112 q 784 372 780 281 l 926 372 q 845 112 926 214 q 620 -12 762 8 q 551 -19 591 -17 "},"C":{"x_min":46,"x_max":926,"ha":984,"o":"m 926 926 l 926 567 l 784 567 q 742 732 782 673 q 666 795 715 773 q 576 814 624 814 q 397 703 456 814 q 351 470 351 615 q 395 232 351 318 q 579 112 457 112 q 762 236 712 112 q 784 372 780 281 l 926 372 q 894 194 926 269 q 718 14 840 69 q 514 -20 641 -20 q 222 63 336 -20 q 101 205 142 121 q 46 457 46 320 q 212 847 46 716 q 517 946 336 946 q 695 909 631 946 q 764 850 726 891 l 784 926 l 926 926 "},"Ē":{"x_min":46,"x_max":1000,"ha":1070,"o":"m 1000 926 l 1000 568 l 854 568 q 812 740 853 678 q 731 794 784 780 q 650 800 711 800 l 467 800 l 467 537 l 514 537 q 611 594 589 537 q 620 682 620 616 l 743 682 l 743 266 l 620 266 q 621 294 620 284 q 591 390 621 362 q 511 414 564 414 l 467 414 l 467 126 l 620 126 q 741 133 715 126 q 821 200 788 147 q 851 313 844 239 q 854 380 852 330 l 1000 380 l 1000 0 l 46 0 l 46 127 l 124 127 q 184 143 172 127 q 194 185 192 155 q 196 257 194 192 l 196 669 q 192 762 194 747 q 170 793 188 787 q 124 799 154 799 l 46 799 l 46 926 l 1000 926 m 292 1153 l 805 1153 l 805 1038 l 292 1038 l 292 1153 "},"!":{"x_min":83,"x_max":349,"ha":431,"o":"m 208 213 q 290 175 256 213 q 320 100 320 143 q 282 16 320 49 q 206 -13 250 -13 q 122 24 156 -13 q 93 100 93 56 q 130 183 93 149 q 208 213 163 213 m 271 281 l 141 281 l 139 309 q 118 494 126 437 q 91 668 114 521 q 83 771 83 726 q 123 899 83 853 q 217 940 158 940 q 313 896 277 940 q 349 771 349 855 q 340 681 349 722 l 313 550 q 271 281 286 424 "},"ç":{"x_min":45,"x_max":690,"ha":741,"o":"m 419 -19 l 372 -78 q 379 -78 376 -78 q 404 -77 398 -77 q 478 -91 446 -77 q 510 -116 496 -99 q 529 -171 529 -141 q 497 -245 529 -211 q 356 -297 451 -297 q 205 -263 284 -297 l 233 -205 q 329 -228 292 -228 q 369 -215 353 -228 q 385 -177 385 -202 q 367 -140 385 -154 q 337 -130 354 -130 q 295 -144 318 -130 l 262 -110 l 331 -15 q 262 0 292 -10 q 117 97 169 29 q 45 320 45 189 q 173 589 45 500 q 391 653 262 653 q 570 612 490 653 q 671 506 637 578 q 690 426 690 469 q 641 314 690 356 q 551 282 604 282 q 459 318 494 282 q 430 391 430 349 q 465 470 430 440 q 517 491 490 491 q 542 487 526 491 q 446 528 499 528 q 300 309 300 528 q 328 166 300 223 q 433 104 359 104 q 542 241 535 104 l 687 241 q 579 26 669 90 q 419 -19 520 -16 "},"È":{"x_min":46,"x_max":926,"ha":984,"o":"m 926 926 l 926 567 l 784 567 q 742 732 782 673 q 666 795 715 773 q 576 814 624 814 q 397 703 456 814 q 351 470 351 615 q 395 232 351 318 q 579 112 457 112 q 762 236 712 112 q 784 372 780 281 l 926 372 q 894 194 926 269 q 718 14 840 69 q 514 -20 641 -20 q 222 63 336 -20 q 101 205 142 121 q 46 457 46 320 q 212 847 46 716 q 517 946 336 946 q 695 909 631 946 q 764 850 726 891 l 784 926 l 926 926 m 610 1007 l 412 1007 l 221 1202 l 431 1202 l 548 1103 l 678 1202 l 800 1202 l 610 1007 "},"X":{"x_min":-10,"x_max":1042,"ha":1032,"o":"m 8 926 l 524 926 l 524 800 l 479 800 q 443 779 443 800 q 461 738 443 765 l 552 605 l 656 738 q 675 777 675 761 q 636 800 675 800 l 588 800 l 588 926 l 995 926 l 995 800 l 955 800 q 884 778 910 800 q 814 700 872 768 l 657 510 l 857 236 q 928 146 913 159 q 995 126 950 126 l 1042 126 l 1042 0 l 495 0 l 495 126 l 552 126 q 592 132 582 126 q 602 148 602 137 q 588 180 602 159 l 479 345 l 353 180 q 336 145 336 157 q 366 126 336 126 l 432 126 l 432 0 l -10 0 l -10 126 l 45 126 q 121 149 90 126 q 206 240 149 169 l 366 436 l 179 698 q 118 778 135 764 q 58 800 91 800 l 8 800 l 8 926 "},"ô":{"x_min":46,"x_max":775,"ha":821,"o":"m 408 653 q 689 547 589 653 q 775 316 775 458 q 708 112 775 199 q 409 -20 608 -20 q 227 15 298 -20 q 79 160 128 64 q 46 315 46 228 q 153 571 46 480 q 408 653 250 653 m 414 538 q 331 487 356 538 q 300 312 300 426 q 322 152 300 207 q 408 95 345 95 q 495 154 471 95 q 521 333 521 215 q 500 480 521 431 q 414 538 476 538 m 331 943 l 510 943 l 663 722 l 467 722 l 393 833 l 293 722 l 185 722 l 331 943 "},"Ė":{"x_min":46,"x_max":1000,"ha":1070,"o":"m 1000 926 l 1000 568 l 854 568 q 812 740 854 678 q 731 794 785 780 q 650 800 711 800 l 467 800 l 467 537 l 514 537 q 611 594 589 537 q 620 682 620 616 l 743 682 l 743 266 l 620 266 q 621 294 620 284 q 591 390 621 362 q 511 414 564 414 l 467 414 l 467 126 l 620 126 q 741 133 715 126 q 821 200 789 147 q 851 313 844 239 q 854 380 852 330 l 1000 380 l 1000 0 l 46 0 l 46 127 l 124 127 q 184 143 172 127 q 194 185 192 155 q 196 257 194 192 l 196 669 q 192 762 194 747 q 170 793 188 787 q 124 799 154 799 l 46 799 l 46 926 l 1000 926 m 550 1211 q 626 1176 594 1211 q 653 1107 653 1147 q 618 1030 653 1061 q 549 1003 588 1003 q 472 1037 503 1003 q 445 1108 445 1067 q 479 1183 445 1152 q 550 1211 509 1211 "},"Ā":{"x_min":-26,"x_max":1048,"ha":1021,"o":"m 359 926 l 680 926 l 896 229 q 940 140 919 156 q 1001 126 958 126 l 1048 126 l 1048 0 l 520 0 l 520 126 l 574 126 q 626 131 616 126 q 641 158 641 139 q 622 229 641 170 l 599 301 l 314 301 l 291 229 q 273 160 273 170 q 336 126 273 126 l 397 126 l 397 0 l -26 0 l -26 126 l 18 126 q 75 140 56 126 q 123 229 98 156 l 359 926 m 562 421 l 459 732 l 352 421 l 562 421 m 264 1153 l 777 1153 l 777 1038 l 264 1038 l 264 1153 "},"đ":{"x_min":47,"x_max":861,"ha":875,"o":"m 749 926 l 749 741 l 861 741 l 861 635 l 749 635 l 749 245 q 752 142 749 151 q 772 120 757 123 q 814 117 784 117 l 861 117 l 861 0 l 515 0 l 515 99 q 447 11 483 36 q 322 -20 398 -20 q 129 53 205 -20 q 61 177 83 99 q 47 293 47 232 q 88 484 47 398 q 189 583 121 552 q 304 607 239 607 q 452 561 393 607 q 515 488 479 539 l 515 637 l 368 637 l 368 743 l 515 743 q 499 799 513 790 q 450 806 488 806 l 401 806 l 401 926 l 749 926 m 405 482 q 322 427 351 482 q 296 282 296 375 q 320 156 296 204 q 402 102 347 102 q 493 166 466 102 q 518 298 518 225 q 491 425 518 375 q 405 482 462 482 "},"}":{"x_min":153,"x_max":596,"ha":695,"o":"m 372 322 q 313 377 327 353 q 290 497 290 419 l 290 670 q 282 768 290 754 q 238 795 271 790 q 180 799 215 799 q 153 798 171 799 l 153 923 q 308 926 260 926 q 410 913 375 926 q 505 820 483 889 q 518 726 518 782 l 518 510 q 536 418 518 445 q 596 386 552 394 l 596 258 q 536 225 556 251 q 518 134 518 200 l 518 -81 q 459 -243 518 -197 q 307 -281 410 -281 q 153 -278 275 -281 l 153 -153 q 179 -154 171 -154 q 265 -141 245 -154 q 289 -96 285 -130 q 290 -25 290 -85 l 290 147 q 302 241 290 205 q 330 289 313 270 q 372 322 343 303 "},"â":{"x_min":57,"x_max":844,"ha":832,"o":"m 770 233 l 839 233 q 844 140 844 165 q 809 29 844 64 q 658 -20 761 -20 q 515 17 566 -20 q 475 91 487 38 q 272 -20 420 -20 q 120 22 175 -20 q 57 161 57 70 q 120 288 57 246 q 192 320 152 310 q 278 338 228 329 q 427 382 387 359 q 471 466 471 409 q 452 521 471 500 q 322 568 412 568 q 198 526 243 568 q 243 532 226 532 q 302 505 283 532 q 317 457 317 485 q 286 394 317 415 q 213 372 255 372 q 119 408 157 372 q 89 483 89 437 q 119 567 89 528 q 402 653 186 653 q 597 625 534 653 q 692 520 667 595 q 705 400 705 486 l 705 180 q 714 116 705 129 q 735 105 721 105 q 757 115 749 105 q 771 190 771 131 q 770 233 771 207 m 467 321 q 396 275 432 291 q 317 231 330 246 q 294 176 294 206 q 319 121 294 141 q 369 105 339 105 q 443 138 416 105 q 467 210 467 166 l 467 321 m 322 943 l 500 943 l 654 722 l 458 722 l 384 833 l 284 722 l 176 722 l 322 943 "},"ø":{"x_min":46,"x_max":698,"ha":680,"o":"m 393 633 l 393 513 q 448 604 425 577 q 558 654 490 654 q 669 601 632 654 q 698 503 698 562 q 661 399 698 435 q 579 367 628 367 q 503 395 533 367 q 474 470 474 424 q 534 555 474 536 q 508 560 517 560 q 456 536 483 560 q 399 432 412 497 q 393 336 393 395 l 393 248 q 396 145 393 155 q 416 123 401 126 q 458 120 426 120 l 505 120 l 505 0 l 46 0 l 46 120 l 96 120 q 150 129 140 120 q 161 168 159 138 q 162 248 161 178 l 162 384 q 158 487 161 478 q 138 509 153 505 q 96 513 128 513 l 46 513 l 46 633 l 393 633 m 437 722 l 258 722 l 105 943 l 300 943 l 376 831 l 475 943 l 583 943 l 437 722 "},"‰":{"x_min":52,"x_max":1554,"ha":1606,"o":"m 857 841 l 921 784 l 231 0 l 170 56 l 857 841 m 277 851 q 439 789 377 851 q 500 636 500 730 q 457 507 500 565 q 277 429 401 429 q 115 480 173 429 q 52 636 52 538 q 131 809 52 748 q 277 851 187 851 m 277 775 q 209 626 209 775 q 276 500 209 500 q 343 637 343 500 q 336 718 343 687 q 277 775 324 775 m 814 412 q 976 350 914 412 q 1037 196 1037 291 q 994 68 1037 127 q 814 -10 938 -10 q 652 41 710 -10 q 589 197 589 99 q 668 369 589 308 q 814 412 724 412 m 815 336 q 746 185 746 336 q 813 59 746 59 q 881 197 881 59 q 874 279 881 248 q 815 336 862 336 m 1331 412 q 1493 350 1431 412 q 1554 196 1554 291 q 1511 68 1554 127 q 1331 -10 1455 -10 q 1169 41 1227 -10 q 1106 197 1106 99 q 1185 369 1106 308 q 1331 412 1241 412 m 1332 336 q 1263 185 1263 336 q 1330 59 1263 59 q 1398 197 1398 59 q 1391 279 1398 248 q 1332 336 1378 336 "},"Ä":{"x_min":-26,"x_max":1048,"ha":1021,"o":"m 359 926 l 680 926 l 896 229 q 940 140 919 156 q 1001 126 958 126 l 1048 126 l 1048 0 l 520 0 l 520 126 l 574 126 q 626 131 616 126 q 641 158 641 139 q 622 229 641 170 l 599 301 l 314 301 l 290 229 q 272 160 272 170 q 336 126 272 126 l 397 126 l 397 0 l -26 0 l -26 126 l 18 126 q 75 140 56 126 q 123 229 98 156 l 359 926 m 562 421 l 459 732 l 352 421 l 562 421 m 356 1205 q 429 1171 399 1205 q 455 1105 455 1143 q 421 1030 455 1061 q 355 1005 393 1005 q 280 1038 310 1005 q 255 1106 255 1066 q 288 1179 255 1148 q 356 1205 316 1205 m 686 1205 q 759 1171 729 1205 q 785 1105 785 1143 q 751 1030 785 1060 q 684 1005 723 1005 q 610 1038 640 1005 q 585 1106 585 1066 q 618 1179 585 1148 q 686 1205 646 1205 "},"ř":{"x_min":46,"x_max":698,"ha":680,"o":"m 393 633 l 393 513 q 448 604 425 577 q 558 654 490 654 q 669 601 632 654 q 698 503 698 562 q 661 399 698 435 q 579 367 628 367 q 503 395 533 367 q 474 470 474 424 q 534 555 474 536 q 508 560 517 560 q 456 536 483 560 q 399 432 412 497 q 393 336 393 395 l 393 248 q 396 145 393 155 q 416 123 401 126 q 458 120 426 120 l 505 120 l 505 0 l 46 0 l 46 120 l 96 120 q 150 129 140 120 q 161 168 159 138 q 162 248 161 178 l 162 384 q 158 487 161 478 q 138 509 153 505 q 96 513 128 513 l 46 513 l 46 633 l 393 633 m 437 722 l 258 722 l 105 943 l 300 943 l 376 831 l 475 943 l 583 943 l 437 722 "},"—":{"x_min":0,"x_max":1065,"ha":1065,"o":"m 0 415 l 1065 415 l 1065 250 l 0 250 l 0 415 "},"N":{"x_min":46,"x_max":1171,"ha":1199,"o":"m 511 926 l 864 285 l 864 669 q 860 763 862 747 q 838 794 856 787 q 792 800 822 800 l 707 800 l 707 926 l 1171 926 l 1171 800 l 1092 800 q 1032 783 1044 800 q 1022 741 1024 771 q 1021 669 1022 734 l 1021 0 l 721 0 l 353 674 l 353 255 q 356 162 354 177 q 378 131 360 138 q 425 126 394 126 l 512 126 l 512 0 l 46 0 l 46 126 l 124 126 q 184 142 172 126 q 194 184 192 154 q 196 255 194 191 l 196 669 q 192 763 194 747 q 170 794 188 787 q 124 800 154 800 l 46 800 l 46 926 l 511 926 "},"2":{"x_min":52.21875,"x_max":811.828125,"ha":870,"o":"m 688 296 l 811 296 q 788 108 811 162 q 699 8 760 41 q 576 -20 646 -20 q 484 -7 526 -20 q 374 31 438 5 q 249 66 290 66 q 206 53 222 66 q 189 0 189 39 l 52 0 q 68 145 52 95 q 176 303 94 234 q 318 397 231 349 q 471 494 444 465 q 512 597 512 536 q 470 694 512 659 q 351 729 429 729 q 235 690 282 729 q 189 625 203 664 q 254 649 227 649 q 326 608 304 649 q 337 560 337 588 q 316 486 337 517 q 273 447 301 463 q 206 431 241 431 q 102 480 142 431 q 67 590 67 523 q 159 778 67 703 q 299 843 213 821 q 426 859 361 859 q 639 813 541 859 q 763 697 722 774 q 789 588 789 649 q 698 396 789 472 q 499 308 637 344 q 302 244 344 267 q 219 167 262 223 q 297 206 262 196 q 375 217 332 217 q 545 190 422 217 q 611 183 583 183 q 670 211 652 183 q 688 296 687 237 "},"ü":{"x_min":5,"x_max":888,"ha":893,"o":"m 775 633 l 775 248 q 778 145 775 155 q 797 123 783 127 q 839 120 809 120 l 888 120 l 888 0 l 542 0 l 542 92 q 325 -21 480 -21 q 149 42 201 -21 q 110 143 113 84 q 109 233 109 170 l 109 384 q 105 487 108 478 q 85 509 100 506 q 43 513 72 513 l 5 513 l 5 633 l 342 633 l 342 239 q 361 130 342 158 q 432 100 383 100 q 542 239 542 100 l 542 384 q 538 487 541 477 q 518 509 533 505 q 476 513 506 513 l 426 513 l 426 633 l 775 633 m 289 928 q 362 894 332 928 q 388 828 388 866 q 354 753 388 783 q 288 728 326 728 q 213 761 243 728 q 188 829 188 789 q 221 902 188 871 q 289 928 249 928 m 569 928 q 642 894 611 928 q 668 828 668 866 q 634 753 668 783 q 568 728 606 728 q 493 761 523 728 q 468 829 468 789 q 501 902 468 871 q 569 928 529 928 "},"Ó":{"x_min":46,"x_max":1044,"ha":1090,"o":"m 544 946 q 861 862 739 946 q 998 693 953 798 q 1044 457 1044 586 q 968 179 1044 297 q 745 10 891 60 q 551 -20 657 -20 q 208 85 343 -20 q 93 232 132 144 q 46 461 46 338 q 130 757 46 634 q 544 946 259 946 m 550 814 q 395 719 443 814 q 353 455 353 635 q 393 195 353 273 q 545 103 442 103 q 705 212 660 103 q 737 459 737 292 q 697 719 737 640 q 550 814 649 814 m 582 1202 l 790 1202 q 834 1192 826 1202 q 841 1174 841 1184 q 822 1143 841 1153 l 543 1006 l 440 1006 l 582 1202 "},"ˇ":{"x_min":108.515625,"x_max":585.984375,"ha":695,"o":"m 440 722 l 261 722 l 108 943 l 303 943 l 377 831 l 477 943 l 585 943 l 440 722 "},"Ÿ":{"x_min":36,"x_max":665,"ha":702,"o":"m 52 633 l 665 633 l 665 513 l 319 120 l 405 120 q 517 152 486 120 q 536 183 531 166 q 542 252 542 204 q 542 302 542 267 l 665 302 l 665 0 l 36 0 l 36 144 l 368 513 l 272 513 q 186 476 204 513 q 173 362 176 455 l 52 362 l 52 633 m 353 943 l 515 943 q 554 937 546 943 q 567 915 567 929 q 547 884 567 902 l 370 722 l 277 722 l 353 943 "},"ų":{"x_min":5,"x_max":888,"ha":893,"o":"m 860 0 q 789 -99 789 -39 q 845 -158 789 -158 q 888 -151 860 -158 l 888 -258 q 804 -271 837 -271 q 682 -232 726 -271 q 645 -141 645 -200 q 738 0 645 -53 l 542 0 l 542 92 q 325 -21 480 -21 q 149 42 201 -21 q 110 143 113 84 q 109 233 109 170 l 109 384 q 105 487 108 478 q 85 509 100 506 q 43 513 72 513 l 5 513 l 5 633 l 342 633 l 342 239 q 361 130 342 158 q 432 100 383 100 q 542 239 542 100 l 542 384 q 538 487 541 477 q 518 509 533 505 q 476 513 506 513 l 426 513 l 426 633 l 775 633 l 775 248 q 778 145 775 155 q 797 123 783 126 q 839 120 809 120 l 888 120 l 888 0 l 860 0 "},"€":{"x_min":-0.421875,"x_max":787,"ha":870,"o":"m 395 554 l 616 554 l 577 461 l 388 461 q 389 431 389 433 q 388 396 389 423 l 550 396 l 512 303 l 394 303 q 413 210 401 248 q 523 97 451 97 q 618 254 613 97 l 759 254 q 700 62 759 138 q 460 -36 622 -36 q 272 8 347 -36 q 110 225 155 77 q 92 303 99 260 l 0 303 l 38 396 l 83 396 q 82 421 82 408 q 83 461 82 434 l 0 461 l 38 554 l 94 554 q 169 743 114 666 q 438 882 269 882 q 573 845 524 882 q 625 786 596 827 l 645 862 l 787 862 l 787 571 l 645 571 q 620 689 644 647 q 524 749 588 749 q 395 554 422 749 "},"ß":{"x_min":23,"x_max":874,"ha":935,"o":"m 416 513 l 416 633 q 466 629 446 629 q 578 727 578 629 q 549 797 578 771 q 471 824 520 824 q 386 784 412 824 q 367 731 370 760 q 363 656 363 698 l 363 0 l 23 0 l 23 119 l 59 119 q 113 130 103 119 q 124 168 122 139 q 125 247 124 178 l 125 656 q 139 792 125 754 q 484 939 194 939 q 733 884 653 939 q 809 744 809 832 q 719 594 809 644 q 637 566 691 579 q 754 523 711 550 q 874 282 874 449 q 823 89 874 173 q 712 -1 785 26 q 608 -20 665 -20 q 446 46 491 -20 q 415 188 415 92 q 416 260 415 213 l 531 260 q 532 185 532 200 q 548 107 532 126 q 573 95 556 95 q 599 107 590 95 q 613 141 610 121 q 620 262 620 189 q 611 398 620 361 q 449 514 584 514 q 416 513 438 514 "},"s":{"x_min":45,"x_max":697,"ha":737,"o":"m 667 633 l 667 420 l 557 420 q 380 539 530 539 q 289 483 289 539 q 297 462 289 471 q 393 422 316 440 q 559 372 509 393 q 678 282 650 336 q 697 204 697 247 q 652 74 697 132 q 416 -21 578 -21 q 239 12 316 -21 q 174 50 212 24 l 161 0 l 52 0 l 52 231 l 161 231 q 234 134 182 167 q 374 94 298 94 q 465 145 465 94 q 458 166 465 158 q 366 206 441 186 q 204 255 246 238 q 45 441 45 318 q 135 603 45 544 q 351 654 211 654 q 498 628 437 654 q 557 598 522 619 l 570 633 l 667 633 "},"Ű":{"x_min":23,"x_max":1097,"ha":1120,"o":"m 23 800 l 23 926 l 588 926 l 588 800 l 515 800 q 455 783 467 800 q 445 741 447 771 q 444 669 445 734 l 444 345 q 449 227 444 253 q 618 112 472 112 q 758 166 718 112 q 784 236 777 192 q 790 345 790 270 l 790 669 q 786 763 788 748 q 764 794 782 787 q 718 800 748 800 l 651 800 l 651 926 l 1097 926 l 1097 800 l 1018 800 q 958 783 970 800 q 948 741 950 771 q 947 669 948 734 l 947 298 q 927 156 947 204 q 793 17 888 63 q 573 -20 715 -20 q 234 90 329 -20 q 179 207 191 140 q 173 298 173 241 l 173 669 q 169 763 171 748 q 147 794 165 787 q 101 800 131 800 l 23 800 m 779 1202 l 940 1202 q 985 1192 977 1202 q 992 1174 992 1184 q 972 1143 992 1155 l 736 1006 l 642 1006 l 779 1202 m 479 1202 l 640 1202 q 685 1192 677 1202 q 692 1174 692 1184 q 672 1143 692 1155 l 435 1006 l 342 1006 l 479 1202 "},"?":{"x_min":37,"x_max":694,"ha":728,"o":"m 335 213 q 417 175 383 213 q 447 100 447 143 q 409 16 447 49 q 333 -13 377 -13 q 249 24 283 -13 q 220 100 220 56 q 257 183 220 149 q 335 213 290 213 m 399 265 l 264 265 q 282 379 265 336 q 358 500 299 422 q 418 589 394 547 q 442 671 442 631 q 401 766 442 725 q 294 808 359 808 q 148 696 188 808 q 213 714 186 714 q 292 676 264 714 q 316 605 316 645 q 278 517 316 554 q 188 485 244 485 q 79 537 120 485 q 37 666 37 592 q 122 854 37 775 q 251 923 171 901 q 369 939 308 939 q 565 892 477 939 q 673 778 638 855 q 694 682 694 734 q 645 534 694 596 q 550 450 610 492 q 444 368 464 390 q 399 265 402 323 "},"c":{"x_min":45,"x_max":690,"ha":741,"o":"m 542 241 l 687 241 q 636 85 675 144 q 399 -20 566 -20 q 167 47 256 -20 q 70 180 102 96 q 45 320 45 248 q 173 589 45 500 q 391 653 262 653 q 570 612 490 653 q 671 506 637 578 q 690 426 690 469 q 641 314 690 356 q 551 282 604 282 q 459 318 494 282 q 430 391 430 349 q 465 470 430 440 q 517 491 490 491 q 542 487 526 491 q 446 528 499 528 q 300 310 300 528 q 328 167 300 224 q 433 105 359 105 q 542 241 535 105 "},"Ņ":{"x_min":46,"x_max":1171,"ha":1199,"o":"m 511 926 l 864 285 l 864 669 q 860 763 862 748 q 838 794 856 787 q 792 800 822 800 l 707 800 l 707 926 l 1171 926 l 1171 800 l 1092 800 q 1032 783 1044 800 q 1022 741 1024 771 q 1021 669 1022 734 l 1021 0 l 721 0 l 353 675 l 353 256 q 356 162 354 177 q 378 131 360 138 q 425 126 393 126 l 512 126 l 512 0 l 46 0 l 46 126 l 124 126 q 184 143 172 126 q 194 184 192 155 q 196 256 194 191 l 196 669 q 192 763 194 748 q 170 794 188 787 q 124 800 154 800 l 46 800 l 46 926 l 511 926 m 515 -344 l 515 -297 q 532 -298 525 -297 q 626 -231 617 -298 q 567 -247 592 -247 q 500 -218 525 -247 q 479 -163 479 -194 q 514 -95 479 -120 q 593 -74 545 -74 q 688 -108 652 -74 q 720 -194 720 -139 q 666 -305 720 -265 q 544 -346 615 -346 q 515 -344 534 -346 "},"¶":{"x_min":36,"x_max":726,"ha":922,"o":"m 300 -128 l 300 445 q 282 445 286 445 q 162 472 221 445 q 63 562 95 501 q 36 681 36 615 q 74 820 36 761 q 222 913 122 891 q 355 926 284 926 l 726 926 l 726 807 l 615 807 l 615 -128 l 498 -128 l 498 807 l 409 807 l 409 -128 l 300 -128 "},"Ī":{"x_min":45,"x_max":611,"ha":659,"o":"m 611 126 l 611 0 l 45 0 l 45 126 l 123 126 q 183 142 171 126 q 193 184 191 154 q 195 255 193 191 l 195 669 q 190 763 193 747 q 169 794 187 787 q 123 800 153 800 l 45 800 l 45 926 l 611 926 l 611 800 l 532 800 q 473 783 484 800 q 462 741 464 771 q 461 669 462 734 l 461 255 q 464 162 462 177 q 486 131 468 138 q 532 126 502 126 l 611 126 m 77 1153 l 581 1153 l 581 1038 l 77 1038 l 77 1153 "},"•":{"x_min":272,"x_max":657,"ha":926,"o":"m 467 662 q 600 605 543 662 q 657 469 657 549 q 600 333 657 389 q 464 277 544 277 q 329 332 385 277 q 272 469 272 389 q 328 606 272 550 q 467 662 387 662 "},"(":{"x_min":48,"x_max":559,"ha":581,"o":"m 559 943 l 559 813 q 421 759 474 811 q 337 576 359 697 q 320 297 320 479 q 349 13 320 105 q 544 -160 402 -151 l 544 -289 q 267 -199 383 -282 q 104 -4 157 -120 q 48 318 48 120 q 174 758 48 600 q 559 943 316 935 "},"◊":{"x_min":130.21875,"x_max":795.5625,"ha":926,"o":"m 463 921 l 795 463 l 463 4 l 130 463 l 463 921 m 463 800 l 217 463 l 463 124 l 708 463 l 463 800 "},"­":{"x_min":0,"x_max":361,"ha":361,"o":"m 0 415 l 361 415 l 361 250 l 0 250 l 0 415 "},":":{"x_min":54,"x_max":280,"ha":332,"o":"m 168 213 q 250 175 216 213 q 280 100 280 143 q 242 16 280 50 q 166 -13 210 -13 q 83 24 117 -13 q 54 101 54 56 q 91 183 54 149 q 168 213 123 213 m 168 629 q 250 591 216 629 q 280 516 280 559 q 242 432 280 466 q 166 403 210 403 q 83 440 117 403 q 54 517 54 472 q 91 599 54 565 q 168 629 123 629 "},"Û":{"x_min":23,"x_max":1097,"ha":1120,"o":"m 23 800 l 23 926 l 588 926 l 588 800 l 515 800 q 455 783 467 800 q 445 741 447 771 q 444 669 445 734 l 444 345 q 449 227 444 253 q 618 112 472 112 q 758 166 718 112 q 784 236 777 192 q 790 345 790 270 l 790 669 q 786 763 788 748 q 764 794 782 787 q 718 800 748 800 l 651 800 l 651 926 l 1097 926 l 1097 800 l 1018 800 q 958 783 970 800 q 948 741 950 771 q 947 669 948 734 l 947 298 q 927 156 947 204 q 793 17 888 63 q 573 -20 715 -20 q 234 90 329 -20 q 179 207 191 140 q 173 298 173 241 l 173 669 q 169 763 171 748 q 147 794 165 787 q 101 800 131 800 l 23 800 m 779 1202 l 940 1202 q 985 1192 977 1202 q 992 1174 992 1184 q 972 1143 992 1155 l 736 1006 l 642 1006 l 779 1202 m 479 1202 l 640 1202 q 685 1192 677 1202 q 692 1174 692 1184 q 672 1143 692 1155 l 435 1006 l 342 1006 l 479 1202 "},"V":{"x_min":-21,"x_max":1000,"ha":979,"o":"m -21 926 l 516 926 l 516 800 l 448 800 q 398 791 408 800 q 388 766 388 783 q 399 716 388 756 l 546 209 l 697 728 q 707 772 707 761 q 695 793 707 787 q 639 800 683 800 l 581 800 l 581 926 l 1000 926 l 1000 800 l 958 800 q 908 791 924 800 q 870 734 888 781 q 844 662 857 701 l 639 0 l 343 0 l 141 662 q 92 779 110 761 q 21 800 72 800 l -21 800 l -21 926 "},"ś":{"x_min":45,"x_max":697,"ha":737,"o":"m 667 633 l 667 420 l 557 420 q 380 539 530 539 q 289 483 289 539 q 297 462 289 471 q 393 422 316 440 q 559 372 509 393 q 678 282 650 336 q 697 204 697 247 q 652 74 697 132 q 416 -21 578 -21 q 239 12 316 -21 q 174 50 212 24 l 161 0 l 52 0 l 52 231 l 161 231 q 234 134 182 167 q 374 94 298 94 q 465 145 465 94 q 458 166 465 158 q 366 206 441 186 q 204 255 246 238 q 45 441 45 318 q 135 603 45 544 q 351 654 211 654 q 498 628 437 654 q 557 598 522 619 l 570 633 l 667 633 m 352 943 l 513 943 q 552 937 544 943 q 565 915 565 929 q 545 884 565 902 l 368 722 l 275 722 l 352 943 "},"Ŗ":{"x_min":46,"x_max":1127,"ha":1120,"o":"m 467 420 l 467 256 q 470 162 468 177 q 492 131 474 138 q 538 126 507 126 l 617 126 l 617 0 l 46 0 l 46 126 l 124 126 q 184 143 172 126 q 194 184 192 154 q 196 256 194 192 l 196 669 q 191 763 194 747 q 170 794 188 787 q 124 800 154 800 l 46 800 l 46 926 l 665 926 q 820 917 778 926 q 968 822 919 894 q 1006 702 1006 769 q 953 561 1006 621 q 849 498 913 516 q 777 483 826 491 q 905 441 869 470 q 948 373 937 416 q 956 294 956 342 l 956 197 q 968 128 956 142 q 994 118 979 118 q 1027 140 1019 118 q 1034 259 1033 157 l 1123 259 q 1127 189 1127 210 q 1075 39 1127 93 q 914 -20 1017 -20 q 775 15 832 -20 q 682 253 682 73 l 683 344 q 651 411 683 395 q 582 420 632 420 l 467 420 m 467 539 l 561 539 q 654 546 629 539 q 712 593 693 557 q 729 670 729 626 q 682 780 729 751 q 580 800 650 800 l 467 800 l 467 539 m 476 -344 l 476 -297 q 493 -298 486 -297 q 587 -231 578 -298 q 528 -247 553 -247 q 461 -218 486 -247 q 440 -163 440 -194 q 475 -95 440 -120 q 554 -74 506 -74 q 649 -108 613 -74 q 681 -194 681 -139 q 627 -305 681 -265 q 505 -346 576 -346 q 476 -344 495 -346 "}," ":{"x_min":0,"x_max":0,"ha":347},"@":{"x_min":46,"x_max":973,"ha":1019,"o":"m 657 682 l 778 681 l 726 417 q 718 357 718 370 q 750 313 718 313 q 815 358 783 313 q 867 533 867 433 q 772 752 867 668 q 541 832 682 832 q 274 724 381 832 q 165 452 165 612 q 213 263 165 350 q 360 126 265 170 q 515 93 430 93 q 733 162 634 93 l 797 72 q 521 -16 680 -16 q 192 107 324 -16 q 82 269 121 174 q 46 454 46 359 q 119 713 46 593 q 310 889 190 829 q 534 941 413 941 q 835 836 713 941 q 941 690 905 776 q 973 533 973 616 q 907 314 973 407 q 806 227 863 252 q 744 213 774 213 q 660 247 695 213 q 636 289 642 263 q 585 238 615 258 q 464 201 527 201 q 326 262 382 201 q 269 419 269 325 q 348 621 269 533 q 511 697 418 697 q 611 665 567 697 q 646 628 634 649 l 657 682 m 527 570 q 434 515 471 570 q 407 425 407 473 q 426 359 407 386 q 497 326 452 326 q 588 381 552 326 q 616 471 616 424 q 595 538 616 511 q 527 570 571 570 "},"¾":{"x_min":37,"x_max":685,"ha":702,"o":"m 387 926 l 387 248 q 390 145 387 154 q 410 123 395 126 q 452 120 422 120 l 496 120 l 496 0 l 37 0 l 37 120 l 83 120 q 137 129 127 120 q 148 168 146 139 q 149 248 148 178 l 149 677 q 145 780 148 770 q 125 802 140 798 q 83 806 115 806 l 37 806 l 37 926 l 387 926 m 480 671 l 480 718 q 497 718 490 718 q 559 732 533 718 q 596 791 588 747 q 535 773 562 773 q 468 801 493 773 q 447 856 447 824 q 483 924 447 899 q 559 946 513 946 q 652 911 618 946 q 685 821 685 878 q 631 710 685 752 q 513 670 581 670 q 480 671 500 670 "},"i":{"x_min":46,"x_max":503,"ha":508,"o":"m 273 933 q 365 890 326 933 q 398 806 398 854 q 355 711 398 749 q 271 679 319 679 q 176 721 214 679 q 144 806 144 757 q 186 900 144 861 q 273 933 222 933 m 396 633 l 396 248 q 399 145 396 155 q 418 123 404 127 q 459 120 430 120 l 503 120 l 503 0 l 46 0 l 46 120 l 92 120 q 148 132 139 120 q 157 175 156 142 q 158 248 157 182 l 158 384 q 154 487 157 478 q 134 509 149 505 q 92 513 122 513 l 46 513 l 46 633 l 396 633 "},"≤":{"x_min":10,"x_max":686,"ha":695,"o":"m 686 902 l 686 753 l 188 559 l 686 346 l 686 197 l 10 482 l 10 633 l 686 902 m 686 149 l 686 2 l 10 2 l 10 149 l 686 149 "},"Ģ":{"x_min":45,"x_max":1068,"ha":1093,"o":"m 931 926 l 931 573 l 786 573 q 768 678 780 644 q 580 814 721 814 q 412 727 468 814 q 350 452 350 630 q 390 239 350 316 q 503 127 433 158 q 578 112 538 112 q 671 143 644 112 q 693 216 693 168 l 692 219 l 692 229 q 688 323 690 308 q 666 354 684 347 q 620 360 650 360 l 562 360 l 562 486 l 1068 486 l 1068 360 l 1025 360 q 965 343 977 360 q 955 301 957 331 q 954 229 955 294 l 954 0 l 831 0 l 804 76 q 538 -20 723 -20 q 219 72 341 -20 q 91 236 134 137 q 45 460 45 341 q 106 718 45 600 q 322 911 176 853 q 516 946 408 946 q 710 905 641 946 q 764 852 736 889 l 786 926 l 931 926 m 444 -344 l 444 -297 q 461 -298 454 -297 q 555 -231 546 -298 q 496 -247 521 -247 q 428 -218 453 -247 q 407 -163 407 -194 q 443 -95 407 -120 q 522 -74 473 -74 q 616 -108 581 -74 q 649 -194 649 -139 q 595 -305 649 -265 q 473 -346 544 -346 q 444 -344 463 -346 "},"m":{"x_min":46,"x_max":1329,"ha":1334,"o":"m 391 633 l 391 525 q 463 615 424 589 q 608 654 521 654 q 772 592 722 654 q 805 525 790 569 q 868 608 832 581 q 1021 654 929 654 q 1164 614 1106 654 q 1217 533 1202 588 q 1226 401 1226 503 l 1226 248 q 1229 145 1226 155 q 1248 123 1234 127 q 1290 119 1261 119 l 1329 119 l 1329 0 l 920 0 l 920 119 q 942 121 934 121 q 978 132 970 121 q 986 175 985 144 q 987 248 986 182 l 987 395 q 974 494 987 475 q 902 531 952 531 q 824 490 852 531 q 805 395 805 459 l 805 248 q 808 145 805 155 q 827 123 813 127 q 869 119 833 121 l 869 0 l 503 0 l 503 119 q 528 121 520 120 q 564 132 557 121 q 573 175 572 143 q 574 248 573 182 l 574 395 q 558 493 574 468 q 487 529 537 529 q 391 395 391 529 l 391 248 q 393 154 391 167 q 415 123 395 128 q 455 119 424 120 l 455 0 l 46 0 l 46 119 l 92 119 q 147 132 138 119 q 156 175 155 143 q 157 248 156 182 l 157 384 q 153 487 156 477 q 133 509 148 505 q 92 513 121 513 l 46 513 l 46 633 l 391 633 "},"ż":{"x_min":36,"x_max":665,"ha":702,"o":"m 52 633 l 665 633 l 665 513 l 319 120 l 405 120 q 517 152 486 120 q 536 183 531 166 q 542 252 542 204 q 542 302 542 267 l 665 302 l 665 0 l 36 0 l 36 144 l 368 513 l 272 513 q 186 476 204 513 q 173 362 176 455 l 52 362 l 52 633 m 359 933 q 435 898 403 933 q 462 829 462 869 q 427 752 462 782 q 358 725 397 725 q 281 759 312 725 q 254 830 254 789 q 288 905 254 874 q 359 933 318 933 "},"ő":{"x_min":46,"x_max":775,"ha":821,"o":"m 408 653 q 689 547 589 653 q 775 316 775 458 q 708 112 775 199 q 409 -20 608 -20 q 227 15 298 -20 q 79 160 128 64 q 46 315 46 228 q 153 571 46 480 q 408 653 250 653 m 414 538 q 331 487 356 538 q 300 312 300 426 q 322 152 300 207 q 408 95 345 95 q 495 154 471 95 q 521 333 521 215 q 500 480 521 431 q 414 538 476 538 m 301 943 l 435 943 q 474 937 466 943 q 487 915 487 929 q 467 884 487 903 l 299 722 l 224 722 l 301 943 m 551 943 l 685 943 q 724 937 716 943 q 737 915 737 929 q 716 884 737 903 l 549 722 l 474 722 l 551 943 "},"ž":{"x_min":36,"x_max":665,"ha":702,"o":"m 52 633 l 665 633 l 665 513 l 319 120 l 405 120 q 517 152 486 120 q 536 183 531 166 q 542 252 542 204 q 542 302 542 267 l 665 302 l 665 0 l 36 0 l 36 144 l 368 513 l 272 513 q 186 476 204 513 q 173 362 176 455 l 52 362 l 52 633 m 454 722 l 275 722 l 122 943 l 317 943 l 392 831 l 492 943 l 599 943 l 454 722 "},"á":{"x_min":57,"x_max":844,"ha":832,"o":"m 770 233 l 839 233 q 844 140 844 165 q 809 29 844 64 q 658 -20 761 -20 q 515 17 566 -20 q 475 91 487 38 q 272 -20 420 -20 q 120 22 175 -20 q 57 161 57 70 q 120 288 57 246 q 192 320 152 310 q 278 338 228 329 q 427 382 387 359 q 471 466 471 409 q 452 521 471 500 q 322 568 412 568 q 198 526 243 568 q 243 532 226 532 q 302 505 283 532 q 317 457 317 485 q 286 394 317 415 q 213 372 255 372 q 119 408 157 372 q 89 483 89 437 q 119 567 89 528 q 402 653 186 653 q 597 625 534 653 q 692 520 667 595 q 705 400 705 486 l 705 180 q 714 116 705 129 q 735 105 721 105 q 757 115 749 105 q 771 190 771 131 q 770 233 771 207 m 467 321 q 396 275 432 291 q 317 231 330 246 q 294 176 294 206 q 319 121 294 141 q 369 105 339 105 q 443 138 416 105 q 467 210 467 166 l 467 321 m 399 943 l 560 943 q 599 937 591 943 q 612 915 612 929 q 592 884 612 902 l 415 722 l 321 722 l 399 943 "},"×":{"x_min":23.734375,"x_max":670.078125,"ha":695,"o":"m 23 265 l 230 472 l 23 679 l 139 795 l 347 588 l 554 795 l 670 679 l 463 472 l 670 265 l 554 149 l 347 356 l 139 149 l 23 265 "},"Ě":{"x_min":46,"x_max":1000,"ha":1070,"o":"m 1000 926 l 1000 568 l 854 568 q 812 740 854 678 q 731 794 785 780 q 650 800 711 800 l 467 800 l 467 537 l 514 537 q 611 594 589 537 q 620 682 620 616 l 743 682 l 743 266 l 620 266 q 621 294 620 284 q 591 390 621 362 q 511 414 564 414 l 467 414 l 467 126 l 620 126 q 741 133 715 126 q 821 200 789 147 q 851 313 844 239 q 854 380 852 330 l 1000 380 l 1000 0 l 46 0 l 46 127 l 124 127 q 184 143 172 127 q 194 185 192 155 q 196 257 194 192 l 196 669 q 192 762 194 747 q 170 793 188 787 q 124 799 154 799 l 46 799 l 46 926 l 1000 926 m 653 1007 l 455 1007 l 263 1202 l 474 1202 l 591 1103 l 721 1202 l 842 1202 l 653 1007 "},"K":{"x_min":46,"x_max":1186,"ha":1181,"o":"m 798 587 l 1026 206 q 1071 143 1057 155 q 1138 126 1089 126 l 1186 126 l 1186 0 l 655 0 l 655 126 l 708 126 q 747 132 738 126 q 756 149 756 138 q 736 194 756 162 l 599 415 l 467 291 l 467 255 q 470 162 468 177 q 492 131 474 138 q 538 126 506 126 l 587 126 l 587 0 l 46 0 l 46 126 l 124 126 q 184 142 172 126 q 194 184 192 154 q 196 255 194 191 l 196 669 q 192 763 194 747 q 170 794 188 787 q 124 800 154 800 l 46 800 l 46 926 l 586 926 l 586 800 l 538 800 q 478 783 490 800 q 468 741 470 771 q 467 669 468 734 l 467 493 l 745 741 q 775 781 775 768 q 740 800 775 800 l 656 800 l 656 926 l 1156 926 l 1156 799 l 1107 799 q 1029 781 1059 799 q 944 714 1002 765 l 798 587 "},"7":{"x_min":111,"x_max":850.359375,"ha":870,"o":"m 111 439 l 111 826 l 242 827 l 242 732 q 432 844 311 844 q 514 831 479 844 l 609 797 q 683 781 658 781 q 713 789 702 781 q 737 840 729 801 l 850 840 q 821 710 845 770 q 756 583 794 642 l 672 453 q 577 195 600 339 q 560 0 567 133 l 301 0 q 328 223 309 155 q 408 387 351 311 q 520 508 446 436 q 602 590 581 567 q 663 663 623 613 q 547 628 594 628 q 465 636 512 628 q 356 651 383 651 q 271 617 299 651 q 242 501 242 582 l 242 439 l 111 439 "},"¨":{"x_min":107,"x_max":588,"ha":695,"o":"m 208 928 q 281 894 250 928 q 307 828 307 866 q 273 753 307 783 q 206 728 245 728 q 132 761 162 728 q 107 829 107 789 q 140 902 107 871 q 208 928 168 928 m 489 928 q 562 894 531 928 q 588 828 588 866 q 554 753 588 783 q 488 728 526 728 q 413 761 443 728 q 388 829 388 789 q 421 902 388 871 q 489 928 449 928 "},"Y":{"x_min":-19,"x_max":1003,"ha":982,"o":"m -19 926 l 531 926 l 531 800 l 472 800 q 423 776 423 800 q 438 738 423 767 l 557 523 l 679 738 q 696 778 696 768 q 652 800 696 800 l 594 800 l 594 926 l 1003 926 l 1003 800 l 950 800 q 883 768 907 800 q 828 687 879 763 l 619 361 l 619 256 q 622 162 620 176 q 644 131 626 138 q 690 126 659 126 l 782 126 l 782 0 l 199 0 l 199 126 l 290 126 q 350 142 339 126 q 361 184 359 154 q 363 256 361 191 l 363 361 l 158 687 q 97 778 111 765 q 33 800 74 800 l -19 800 l -19 926 "},"E":{"x_min":46,"x_max":1000,"ha":1070,"o":"m 1000 926 l 1000 568 l 854 568 q 812 740 854 678 q 731 794 785 780 q 650 800 711 800 l 467 800 l 467 537 l 514 537 q 611 594 589 537 q 620 682 620 616 l 743 682 l 743 266 l 620 266 q 621 294 620 284 q 591 390 621 362 q 511 414 564 414 l 467 414 l 467 126 l 620 126 q 741 133 715 126 q 821 200 789 147 q 851 313 844 239 q 854 380 852 330 l 1000 380 l 1000 0 l 46 0 l 46 127 l 124 127 q 184 143 172 127 q 194 185 192 155 q 196 257 194 192 l 196 669 q 192 762 194 747 q 170 793 188 787 q 124 799 154 799 l 46 799 l 46 926 l 1000 926 "},"Ô":{"x_min":46,"x_max":1044,"ha":1090,"o":"m 544 946 q 861 862 739 946 q 998 693 953 798 q 1044 457 1044 586 q 968 179 1044 297 q 745 10 891 60 q 551 -20 657 -20 q 208 85 343 -20 q 93 232 132 144 q 46 461 46 338 q 130 757 46 634 q 544 946 259 946 m 550 814 q 395 719 443 814 q 353 455 353 635 q 393 195 353 273 q 545 103 442 103 q 705 212 660 103 q 737 459 737 292 q 697 719 737 640 q 550 814 649 814 m 453 1202 l 651 1202 l 843 1007 l 632 1007 l 515 1105 l 386 1007 l 264 1007 l 453 1202 "},"‹":{"x_min":62,"x_max":255.015625,"ha":314,"o":"m 147 522 l 255 522 q 202 316 202 407 q 255 117 202 224 l 147 117 q 62 324 62 234 q 103 455 62 384 q 147 522 116 479 "},"Ï":{"x_min":46,"x_max":1113,"ha":1158,"o":"m 46 800 l 46 926 l 620 926 q 816 904 745 926 q 1036 745 953 862 q 1113 472 1113 638 q 1025 175 1113 292 q 765 15 933 50 q 585 0 688 0 l 46 0 l 46 126 l 124 126 q 184 142 172 126 q 194 184 192 154 q 196 255 194 191 l 196 669 q 191 763 194 747 q 170 794 188 787 q 124 800 154 800 l 46 800 m 467 126 l 558 126 q 677 145 633 126 q 785 273 752 179 q 806 465 806 333 q 780 676 806 610 q 669 789 745 766 q 556 800 632 800 l 467 800 l 467 126 m 640 1007 l 442 1007 l 250 1202 l 461 1202 l 578 1103 l 708 1202 l 829 1202 l 640 1007 "},"ķ":{"x_min":37,"x_max":962,"ha":937,"o":"m 473 633 l 897 633 l 897 513 l 836 513 q 788 505 806 513 q 746 479 769 498 l 672 418 l 816 183 q 861 131 840 143 q 918 120 884 120 l 962 120 l 962 0 l 507 0 l 507 120 l 545 120 q 573 136 573 120 q 549 183 573 145 l 492 275 l 389 183 q 395 132 389 141 q 430 120 403 120 l 454 120 l 454 0 l 37 0 l 37 120 l 85 120 q 139 129 129 120 q 150 168 148 138 q 151 248 150 178 l 151 677 q 147 780 150 770 q 127 802 142 799 q 85 806 116 806 l 37 806 l 37 926 l 389 926 l 389 334 l 555 478 q 566 496 566 487 q 532 513 566 513 l 473 513 l 473 633 m 406 -339 l 406 -293 q 423 -293 414 -293 q 485 -278 459 -293 q 522 -223 513 -264 q 462 -242 489 -242 q 395 -213 420 -242 q 374 -158 374 -190 q 409 -90 374 -115 q 486 -69 440 -69 q 578 -104 544 -69 q 611 -191 611 -136 q 557 -300 611 -258 q 439 -341 507 -341 q 406 -339 425 -341 "},"±":{"x_min":10,"x_max":686,"ha":695,"o":"m 10 555 l 263 555 l 263 796 l 431 796 l 431 555 l 686 555 l 686 391 l 431 391 l 431 158 l 263 158 l 263 391 l 10 391 l 10 555 m 10 91 l 686 91 l 686 -73 l 10 -73 l 10 91 "},"ì":{"x_min":46,"x_max":720.265625,"ha":766,"o":"m 720 282 l 293 282 q 419 105 291 105 q 537 220 524 105 l 708 220 q 640 83 687 137 q 386 -20 549 -20 q 159 57 244 -20 q 70 188 100 110 q 46 321 46 252 q 98 507 46 424 q 383 654 190 654 q 720 282 715 654 m 486 388 q 470 482 482 454 q 394 529 450 529 q 314 477 338 529 q 295 388 300 446 l 486 388 m 476 722 l 297 722 l 144 943 l 339 943 l 413 831 l 513 943 l 621 943 l 476 722 "},"|":{"x_min":267,"x_max":427,"ha":694,"o":"m 267 926 l 427 926 l 427 -231 l 267 -231 l 267 926 "},"§":{"x_min":72,"x_max":798,"ha":869,"o":"m 556 822 q 452 845 504 845 q 312 792 358 845 q 291 739 291 768 q 341 669 291 697 q 580 588 375 650 q 743 504 692 554 q 798 375 798 451 q 721 220 798 282 q 651 174 694 199 q 725 112 701 143 q 761 3 761 66 q 631 -212 761 -134 q 399 -267 539 -267 q 175 -207 260 -267 q 101 -78 101 -154 q 142 7 101 -26 q 224 37 176 37 q 307 4 277 37 q 330 -55 330 -19 q 308 -115 330 -88 q 284 -138 301 -124 q 387 -167 326 -167 q 553 -108 494 -167 q 581 -42 581 -82 q 561 12 581 -9 q 500 51 537 37 q 400 81 458 66 q 175 159 243 121 q 72 324 72 215 q 150 490 72 426 q 215 526 177 511 q 119 697 119 595 q 171 832 119 771 q 453 945 267 945 q 669 892 585 945 q 731 821 711 866 q 741 774 741 799 q 725 716 741 743 q 628 665 694 665 q 545 694 579 665 q 522 749 522 716 q 535 792 522 773 q 556 822 552 815 m 332 477 q 255 443 285 477 q 233 384 233 417 q 267 316 233 345 q 354 272 297 291 q 537 226 497 226 q 596 246 571 226 q 634 318 634 276 q 596 387 634 362 q 471 441 571 404 q 332 477 371 477 "},"q":{"x_min":47,"x_max":865,"ha":884,"o":"m 518 633 l 865 633 l 865 513 l 821 513 q 767 503 777 513 q 756 464 758 494 q 756 384 756 454 l 756 -38 q 759 -141 756 -131 q 779 -162 764 -159 q 821 -166 790 -166 l 865 -166 l 865 -286 l 402 -286 l 402 -166 l 453 -166 q 506 -156 497 -166 q 517 -118 515 -147 q 518 -38 517 -107 l 518 90 q 437 9 477 30 q 315 -20 384 -20 q 124 60 196 -20 q 61 188 83 107 q 47 309 47 246 q 92 513 47 421 q 204 625 128 587 q 330 654 261 654 q 468 609 417 654 q 518 546 489 589 l 518 633 m 409 529 q 334 480 359 529 q 301 303 301 417 q 407 105 301 105 q 489 154 459 105 q 522 323 522 209 q 494 474 522 423 q 409 529 463 529 "},"b":{"x_min":20,"x_max":823,"ha":868,"o":"m 358 926 l 358 544 q 429 616 396 595 q 557 653 484 653 q 713 602 646 653 q 823 328 823 519 q 720 39 823 130 q 543 -20 653 -20 q 374 24 436 -20 q 317 88 347 43 l 281 -8 l 115 -8 l 115 677 q 111 781 114 771 q 92 802 106 798 q 49 806 79 806 l 20 806 l 20 926 l 358 926 m 463 528 q 390 483 416 528 q 353 310 353 418 q 380 164 353 226 q 461 105 406 105 q 568 323 568 105 q 463 528 568 528 "},"®":{"x_min":46,"x_max":1010,"ha":1055,"o":"m 486 436 l 486 352 q 491 296 486 302 q 520 289 496 289 l 554 289 l 554 213 l 254 213 l 254 289 l 292 289 q 323 298 319 289 q 328 352 327 304 l 328 572 q 322 629 326 623 q 292 637 317 637 l 254 637 l 254 713 l 581 713 q 666 708 643 713 q 751 656 722 696 q 773 592 773 626 q 749 519 773 555 q 719 492 737 499 q 676 476 717 491 l 674 475 l 677 472 q 692 467 680 470 q 727 443 713 463 q 745 373 745 418 l 745 322 q 761 284 745 284 q 774 292 771 284 q 778 336 778 300 q 778 359 778 350 l 837 359 l 837 354 q 839 317 839 325 q 816 243 839 270 q 719 202 782 202 q 618 237 651 202 q 586 353 586 273 l 586 400 q 573 429 586 421 q 535 436 564 436 l 486 436 m 486 508 q 529 508 519 508 q 594 522 580 508 q 612 573 612 540 q 592 624 612 607 q 533 637 577 637 l 486 637 l 486 508 m 536 946 q 780 874 665 946 q 957 682 895 802 q 1010 462 1010 578 q 939 211 1010 327 q 748 33 868 95 q 529 -20 645 -20 q 278 50 394 -20 q 99 242 162 121 q 46 462 46 346 q 117 716 46 599 q 311 893 187 831 q 536 946 414 946 m 534 859 q 256 744 371 859 q 142 462 142 628 q 256 181 142 298 q 528 67 371 67 q 801 182 688 67 q 914 462 914 298 q 856 669 914 574 q 704 815 801 763 q 534 859 623 859 "},"L":{"x_min":46,"x_max":951,"ha":937,"o":"m 951 378 l 951 0 l 46 0 l 46 127 l 124 127 q 184 143 172 127 q 194 185 192 155 q 196 256 194 192 l 196 669 q 191 763 194 747 q 170 794 188 787 q 124 800 154 800 l 46 800 l 46 926 l 617 926 l 617 800 l 538 800 q 478 782 490 800 q 468 741 470 771 q 467 669 468 733 l 467 126 l 632 126 q 724 142 694 126 q 799 257 778 174 q 811 378 809 297 l 951 378 "},";":{"x_min":43,"x_max":308,"ha":343,"o":"m 58 -185 l 58 -105 q 144 -67 114 -93 q 183 0 172 -44 q 133 -13 155 -13 q 70 14 95 -13 q 43 89 43 44 q 85 180 43 146 q 167 209 120 209 q 272 162 230 209 q 308 60 308 122 q 256 -86 308 -19 q 128 -175 205 -152 q 58 -185 104 -181 m 159 629 q 241 591 207 629 q 271 516 271 559 q 233 432 271 466 q 157 403 201 403 q 74 440 108 403 q 45 517 45 472 q 82 599 45 565 q 159 629 114 629 "},"ď":{"x_min":46,"x_max":1051,"ha":1069,"o":"m 753 926 l 753 244 q 756 142 753 151 q 774 120 761 124 q 815 117 786 117 l 861 117 l 861 0 l 515 0 l 515 99 q 447 11 483 36 q 323 -20 397 -20 q 128 59 203 -20 q 60 192 82 107 q 46 316 46 251 q 88 521 46 428 q 189 627 120 594 q 304 653 239 653 q 451 606 392 653 q 515 534 479 585 l 515 677 q 511 780 514 771 q 492 802 506 798 q 450 806 479 806 l 401 806 l 401 926 l 753 926 m 405 528 q 322 468 350 528 q 295 307 295 409 q 319 165 295 219 q 402 105 347 105 q 493 176 466 105 q 518 324 518 243 q 491 465 518 409 q 405 528 462 528 m 846 671 l 846 718 q 863 718 856 718 q 925 732 899 718 q 962 791 954 747 q 901 773 929 773 q 834 800 858 773 q 813 856 813 824 q 849 924 813 899 q 925 946 879 946 q 1018 910 984 946 q 1051 821 1051 878 q 997 710 1051 752 q 879 670 947 670 q 846 671 866 670 "}," ":{"x_min":0,"x_max":0,"ha":347},"∑":{"x_min":47,"x_max":855,"ha":926,"o":"m 841 1042 l 841 700 l 714 700 l 695 914 l 213 914 l 571 376 l 211 -219 l 713 -219 l 724 -3 l 855 -3 l 855 -347 l 47 -347 l 47 -198 l 394 379 l 47 895 l 47 1042 l 841 1042 "},"À":{"x_min":46,"x_max":1127,"ha":1120,"o":"m 467 420 l 467 256 q 470 162 468 177 q 492 131 474 138 q 538 126 507 126 l 617 126 l 617 0 l 46 0 l 46 126 l 124 126 q 184 142 172 126 q 194 184 192 154 q 196 256 194 192 l 196 669 q 191 763 194 747 q 170 794 188 787 q 124 800 154 800 l 46 800 l 46 926 l 665 926 q 820 916 778 926 q 968 822 919 894 q 1006 702 1006 769 q 953 561 1006 620 q 849 498 913 515 q 777 483 826 491 q 905 441 869 470 q 948 373 937 415 q 956 294 956 342 l 956 197 q 968 128 956 142 q 994 118 979 118 q 1027 140 1019 118 q 1034 259 1033 157 l 1123 259 q 1127 189 1127 210 q 1075 39 1127 93 q 914 -20 1017 -20 q 775 15 832 -20 q 682 253 682 73 l 683 344 q 651 411 683 394 q 582 420 633 420 l 467 420 m 467 539 l 561 539 q 654 545 629 539 q 712 593 693 557 q 729 670 729 626 q 682 780 729 751 q 580 800 650 800 l 467 800 l 467 539 m 530 1202 l 738 1202 q 782 1192 774 1202 q 789 1174 789 1184 q 770 1143 789 1153 l 491 1006 l 388 1006 l 530 1202 "},"+":{"x_min":10,"x_max":686,"ha":695,"o":"m 10 555 l 263 555 l 263 796 l 431 796 l 431 555 l 686 555 l 686 391 l 431 391 l 431 149 l 263 149 l 263 391 l 10 391 l 10 555 "},"‑":{"x_min":0,"x_max":361,"ha":361,"o":"m 0 415 l 361 415 l 361 250 l 0 250 l 0 415 "},"½":{"x_min":151.921875,"x_max":664,"ha":695,"o":"m 229 943 l 362 943 q 401 937 393 943 q 414 915 414 929 q 394 884 414 903 l 227 722 l 151 722 l 229 943 m 478 943 l 612 943 q 651 937 643 943 q 664 915 664 929 q 644 884 664 903 l 476 722 l 402 722 l 478 943 "},"":{"x_min":50,"x_max":902,"ha":950,"o":"m 70 926 l 902 926 l 902 790 l 356 126 l 546 126 q 664 144 626 126 q 746 265 725 175 q 756 371 754 301 l 902 371 l 902 0 l 50 0 l 50 157 l 574 790 l 378 790 q 317 784 338 790 q 278 764 296 779 q 209 563 209 708 l 70 563 l 70 926 m 590 1007 l 393 1007 l 201 1202 l 412 1202 l 529 1103 l 658 1202 l 780 1202 l 590 1007 "},"Ë":{"x_min":46,"x_max":1000,"ha":1070,"o":"m 1000 926 l 1000 568 l 854 568 q 812 740 854 678 q 731 794 785 780 q 650 800 711 800 l 467 800 l 467 537 l 514 537 q 611 594 589 537 q 620 682 620 616 l 743 682 l 743 266 l 620 266 q 621 294 620 284 q 591 390 621 362 q 511 414 564 414 l 467 414 l 467 126 l 620 126 q 741 133 715 126 q 821 200 789 147 q 851 313 844 239 q 854 380 852 330 l 1000 380 l 1000 0 l 46 0 l 46 127 l 124 127 q 184 143 172 127 q 194 185 192 155 q 196 257 194 192 l 196 669 q 192 762 194 747 q 170 793 188 787 q 124 799 154 799 l 46 799 l 46 926 l 1000 926 m 385 1205 q 458 1171 428 1205 q 484 1105 484 1143 q 450 1030 484 1060 q 384 1005 422 1005 q 309 1038 339 1005 q 284 1106 284 1066 q 317 1179 284 1148 q 385 1205 345 1205 m 714 1205 q 787 1171 756 1205 q 813 1105 813 1143 q 779 1030 813 1060 q 712 1005 751 1005 q 638 1038 668 1005 q 613 1106 613 1066 q 646 1179 613 1148 q 714 1205 674 1205 "},"'":{"x_min":56.96875,"x_max":217.703125,"ha":275,"o":"m 184 553 l 90 553 l 56 926 l 217 926 l 184 553 "},"Š":{"x_min":56,"x_max":922,"ha":959,"o":"m 884 926 l 884 581 l 747 581 q 671 740 734 684 q 475 806 596 806 q 361 783 409 806 q 307 704 307 757 q 357 634 307 658 q 488 600 391 618 q 705 548 646 571 q 922 273 922 467 q 820 55 922 134 q 687 -6 760 8 q 548 -20 622 -20 q 319 15 414 -20 q 211 70 275 32 l 184 0 l 56 0 l 56 358 l 196 358 q 237 246 209 285 q 390 134 291 170 q 518 112 451 112 q 638 147 598 112 q 668 213 668 175 q 613 299 668 268 q 494 333 581 317 q 283 383 353 360 q 101 499 152 428 q 57 652 57 562 q 105 812 57 743 q 261 919 158 885 q 441 946 341 946 q 647 908 561 946 q 734 852 686 891 l 759 926 l 884 926 m 565 1007 l 368 1007 l 176 1202 l 386 1202 l 504 1103 l 633 1202 l 755 1202 l 565 1007 "},"˛":{"x_min":479,"x_max":722,"ha":695,"o":"m 571 0 l 694 0 q 623 -99 623 -39 q 679 -158 623 -158 q 722 -151 694 -158 l 722 -258 q 638 -271 671 -271 q 516 -232 560 -271 q 479 -141 479 -200 q 522 -35 479 -82 q 571 0 543 -13 "},"ð":{"x_min":47,"x_max":861,"ha":875,"o":"m 749 926 l 749 741 l 861 741 l 861 635 l 749 635 l 749 245 q 752 142 749 151 q 772 120 757 123 q 814 117 784 117 l 861 117 l 861 0 l 515 0 l 515 99 q 447 11 483 36 q 322 -20 398 -20 q 129 53 205 -20 q 61 177 83 99 q 47 293 47 232 q 88 484 47 398 q 189 583 121 552 q 304 607 239 607 q 452 561 393 607 q 515 488 479 539 l 515 637 l 368 637 l 368 743 l 515 743 q 499 799 513 790 q 450 806 488 806 l 401 806 l 401 926 l 749 926 m 405 482 q 322 427 351 482 q 296 282 296 375 q 320 156 296 204 q 402 102 347 102 q 493 166 466 102 q 518 298 518 225 q 491 425 518 375 q 405 482 462 482 "},"ş":{"x_min":45,"x_max":697,"ha":737,"o":"m 417 -21 l 370 -78 q 377 -78 374 -78 q 403 -77 399 -77 q 476 -91 445 -77 q 508 -116 494 -99 q 527 -171 527 -141 q 495 -245 527 -211 q 354 -297 449 -297 q 204 -263 283 -297 l 232 -205 q 326 -228 291 -228 q 367 -215 351 -228 q 383 -177 383 -202 q 365 -140 383 -154 q 335 -130 352 -130 q 294 -143 317 -130 l 261 -110 l 330 -14 q 278 -1 298 -7 q 174 50 227 13 l 161 0 l 52 0 l 52 231 l 161 231 q 234 134 182 167 q 374 94 298 94 q 465 145 465 94 q 458 166 465 158 q 366 206 441 186 q 204 255 246 238 q 45 441 45 318 q 135 603 45 544 q 351 654 211 654 q 498 628 437 654 q 557 598 522 619 l 570 633 l 667 633 l 667 420 l 557 420 q 380 539 530 539 q 289 483 289 539 q 297 462 289 471 q 393 422 316 440 q 559 373 510 393 q 678 282 650 336 q 697 204 697 248 q 639 58 697 120 q 417 -21 564 -20 "},"Ć":{"x_min":46,"x_max":926,"ha":984,"o":"m 926 926 l 926 567 l 784 567 q 742 732 782 673 q 666 795 715 773 q 576 814 624 814 q 397 703 456 814 q 351 470 351 615 q 395 232 351 318 q 579 112 457 112 q 762 236 712 112 q 784 372 780 281 l 926 372 q 894 194 926 269 q 718 14 840 69 q 514 -20 641 -20 q 222 63 336 -20 q 101 205 142 121 q 46 457 46 320 q 212 847 46 716 q 517 946 336 946 q 695 909 631 946 q 764 850 726 891 l 784 926 l 926 926 m 545 1202 l 753 1202 q 797 1192 789 1202 q 804 1174 804 1184 q 785 1143 804 1153 l 506 1006 l 403 1006 l 545 1202 "},"ä":{"x_min":57,"x_max":844,"ha":832,"o":"m 770 233 l 839 233 q 844 140 844 165 q 809 29 844 64 q 658 -20 761 -20 q 515 17 566 -20 q 475 91 487 38 q 272 -20 420 -20 q 120 22 175 -20 q 57 161 57 70 q 120 288 57 246 q 192 320 152 310 q 278 338 228 329 q 427 382 387 359 q 471 466 471 409 q 452 521 471 500 q 322 568 412 568 q 198 526 243 568 q 243 532 226 532 q 302 505 283 532 q 317 457 317 485 q 286 394 317 415 q 213 372 255 372 q 119 408 157 372 q 89 483 89 437 q 119 567 89 528 q 402 653 186 653 q 597 625 534 653 q 692 520 667 595 q 705 400 705 486 l 705 180 q 714 116 705 129 q 735 105 721 105 q 757 115 749 105 q 771 190 771 131 q 770 233 771 207 m 467 321 q 396 275 432 291 q 317 231 330 246 q 294 176 294 206 q 319 121 294 141 q 369 105 339 105 q 443 138 416 105 q 467 210 467 166 l 467 321 m 272 928 q 345 894 314 928 q 371 828 371 866 q 337 753 371 783 q 270 728 309 728 q 196 761 226 728 q 171 829 171 789 q 204 902 171 871 q 272 928 232 928 m 552 928 q 625 894 594 928 q 651 828 651 866 q 617 753 651 783 q 550 728 589 728 q 476 761 506 728 q 451 829 451 789 q 484 902 451 871 q 552 928 512 928 "},"¹":{"x_min":57,"x_max":845,"ha":832,"o":"m 819 -151 l 819 -258 q 734 -271 768 -271 q 612 -232 656 -271 q 575 -140 575 -200 q 609 -51 575 -86 q 648 -19 621 -40 q 537 3 572 -14 q 488 51 502 21 q 475 91 481 64 q 272 -20 420 -20 q 120 22 175 -20 q 57 161 57 70 q 120 288 57 247 q 192 320 152 310 q 278 338 228 329 q 427 383 388 359 q 471 466 471 409 q 452 521 471 500 q 322 568 412 568 q 198 526 243 568 q 243 532 226 532 q 302 505 283 532 q 317 457 317 485 q 286 394 317 415 q 213 372 255 372 q 119 408 157 372 q 89 483 89 437 q 119 567 89 529 q 402 653 186 653 q 597 625 534 653 q 692 520 667 595 q 705 400 705 486 l 705 180 q 713 116 705 129 q 735 105 722 105 q 765 127 756 105 q 771 209 771 143 l 771 233 l 841 233 q 845 140 845 164 q 818 37 845 71 q 769 -9 810 26 q 719 -98 719 -55 q 776 -158 719 -158 q 819 -151 791 -158 m 467 321 q 396 275 432 291 q 317 231 330 246 q 294 176 294 206 q 319 121 294 142 q 369 105 339 105 q 443 138 416 105 q 467 210 467 166 l 467 321 "},"£":{"x_min":46,"x_max":951,"ha":937,"o":"m 196 328 l 46 254 l 46 388 l 196 463 l 196 669 q 191 763 194 747 q 170 794 188 787 q 124 800 154 800 l 46 800 l 46 926 l 617 926 l 617 800 l 538 800 q 478 782 490 800 q 468 741 470 771 q 467 669 468 733 l 467 561 l 709 681 l 709 546 l 467 425 l 467 126 l 632 126 q 724 142 693 126 q 798 257 777 174 q 810 378 808 297 l 951 378 l 951 0 l 46 0 l 46 127 l 124 127 q 184 143 172 127 q 194 185 192 155 q 196 256 194 192 l 196 328 "},"ů":{"x_min":5,"x_max":888,"ha":893,"o":"m 775 633 l 775 248 q 778 145 775 155 q 797 123 783 127 q 839 120 809 120 l 888 120 l 888 0 l 542 0 l 542 92 q 325 -21 480 -21 q 149 42 201 -21 q 110 143 113 84 q 109 233 109 170 l 109 384 q 105 487 108 478 q 85 509 100 506 q 43 513 72 513 l 5 513 l 5 633 l 342 633 l 342 239 q 361 130 342 158 q 432 100 383 100 q 542 239 542 100 l 542 384 q 538 487 541 477 q 518 509 533 505 q 476 513 506 513 l 426 513 l 426 633 l 775 633 m 431 980 q 530 934 489 980 q 566 843 566 895 q 520 741 566 782 q 429 706 482 706 q 328 751 368 706 q 293 844 293 790 q 338 944 293 903 q 431 980 377 980 m 430 893 q 392 876 407 893 q 380 843 380 861 q 396 805 380 820 q 429 793 410 793 q 466 809 450 793 q 479 843 479 824 q 462 880 479 864 q 430 893 448 893 "},"Ō":{"x_min":46,"x_max":1044,"ha":1090,"o":"m 544 946 q 861 862 739 946 q 998 693 953 798 q 1044 457 1044 586 q 968 179 1044 297 q 745 10 891 60 q 551 -20 657 -20 q 208 85 343 -20 q 93 232 132 144 q 46 461 46 338 q 130 757 46 634 q 544 946 259 946 m 550 814 q 395 719 443 814 q 353 455 353 635 q 393 195 353 273 q 545 103 442 103 q 705 212 660 103 q 737 459 737 292 q 697 719 737 640 q 550 814 649 814 m 288 1153 l 801 1153 l 801 1038 l 288 1038 l 288 1153 "},"W":{"x_min":-31,"x_max":1453,"ha":1422,"o":"m -31 926 l 448 926 l 448 800 l 410 800 q 367 773 365 800 q 374 738 367 764 l 521 209 l 654 647 l 643 689 q 622 762 628 749 q 551 800 603 800 l 517 800 l 517 926 l 995 926 l 995 800 l 937 800 q 890 769 890 800 q 894 738 890 758 l 1028 209 l 1162 721 q 1169 760 1169 745 q 1154 793 1169 785 q 1114 800 1143 800 l 1059 800 l 1059 926 l 1453 926 l 1453 800 l 1412 800 q 1348 776 1368 800 q 1312 689 1330 755 l 1123 0 l 832 0 l 726 378 l 614 0 l 323 0 l 122 689 q 81 781 99 764 q 19 800 62 800 l -31 800 l -31 926 "},"":{"x_min":-8,"x_max":928,"ha":920,"o":"m -8 926 l 928 926 l 928 565 l 778 565 q 779 597 779 588 q 743 742 779 691 q 624 800 703 800 q 595 799 611 800 l 595 256 q 598 162 596 176 q 620 131 602 138 q 666 126 635 126 l 745 126 l 745 0 l 169 0 l 169 126 l 247 126 q 306 142 295 126 q 317 184 315 155 q 319 256 317 191 l 319 799 q 219 778 254 799 q 147 670 164 746 q 136 565 137 630 l -8 565 l -8 926 m 560 1007 l 362 1007 l 170 1202 l 381 1202 l 498 1103 l 627 1202 l 749 1202 l 560 1007 "},"v":{"x_min":-3,"x_max":813,"ha":809,"o":"m -3 633 l 443 633 l 443 513 l 397 513 q 355 504 364 513 q 350 487 350 499 q 357 454 350 476 l 462 145 l 567 454 q 575 489 575 475 q 540 513 575 513 l 492 513 l 492 633 l 813 633 l 813 513 l 782 513 q 727 497 743 513 q 688 424 707 478 l 540 0 l 266 0 l 121 424 q 89 492 104 474 q 34 513 72 513 l -3 513 l -3 633 "},">":{"x_min":40,"x_max":652,"ha":695,"o":"m 40 853 l 652 540 l 652 406 l 40 96 l 40 247 l 477 472 l 40 701 l 40 853 "},"û":{"x_min":5,"x_max":888,"ha":893,"o":"m 775 633 l 775 248 q 778 145 775 155 q 797 123 783 127 q 839 120 809 120 l 888 120 l 888 0 l 542 0 l 542 92 q 325 -21 480 -21 q 149 42 201 -21 q 110 143 113 84 q 109 233 109 170 l 109 384 q 105 487 108 478 q 85 509 100 506 q 43 513 72 513 l 5 513 l 5 633 l 342 633 l 342 239 q 361 130 342 158 q 432 100 383 100 q 542 239 542 100 l 542 384 q 538 487 541 477 q 518 509 533 505 q 476 513 506 513 l 426 513 l 426 633 l 775 633 m 310 943 l 443 943 q 482 937 474 943 q 495 915 495 929 q 475 884 495 903 l 308 722 l 233 722 l 310 943 m 560 943 l 693 943 q 733 937 724 943 q 746 915 746 929 q 726 884 746 903 l 558 722 l 482 722 l 560 943 "},"Ź":{"x_min":50,"x_max":902,"ha":950,"o":"m 70 926 l 902 926 l 902 790 l 356 126 l 546 126 q 664 144 626 126 q 746 265 725 175 q 756 371 754 301 l 902 371 l 902 0 l 50 0 l 50 157 l 574 790 l 378 790 q 317 784 338 790 q 278 764 296 779 q 209 563 209 708 l 70 563 l 70 926 m 519 1202 l 727 1202 q 771 1192 763 1202 q 778 1174 778 1184 q 759 1144 778 1153 l 480 1006 l 377 1006 l 519 1202 "},"Ų":{"x_min":23,"x_max":1097,"ha":1120,"o":"m 842 -142 l 842 -254 q 762 -266 799 -266 q 634 -228 677 -266 q 596 -137 596 -193 q 668 -16 596 -58 q 571 -20 608 -20 q 234 91 329 -20 q 179 207 190 141 q 173 298 173 241 l 173 669 q 169 763 171 748 q 147 794 165 787 q 101 800 131 800 l 23 800 l 23 926 l 588 926 l 588 800 l 515 800 q 455 783 467 800 q 445 741 447 771 q 444 669 445 734 l 444 345 q 449 227 444 253 q 618 112 472 112 q 758 166 718 112 q 784 236 777 192 q 790 345 790 270 l 790 669 q 786 763 788 748 q 764 794 782 787 q 718 800 748 800 l 651 800 l 651 926 l 1097 926 l 1097 800 l 1018 800 q 958 783 970 800 q 948 741 950 771 q 947 669 948 734 l 947 298 q 933 173 947 214 q 873 72 912 110 q 812 23 867 66 q 743 -93 743 -29 q 766 -139 743 -124 q 800 -148 779 -148 q 842 -142 815 -148 "},"Ð":{"x_min":46,"x_max":1112,"ha":1158,"o":"m 46 800 l 46 926 l 620 926 q 816 904 746 926 q 1036 744 952 862 q 1112 472 1112 638 q 1024 175 1112 292 q 764 16 931 51 q 583 0 689 0 l 46 0 l 46 126 l 122 126 q 182 142 170 126 q 192 184 190 154 q 194 255 192 191 l 194 418 l 46 418 l 46 543 l 194 543 l 194 669 q 189 763 192 747 q 168 794 186 787 q 122 800 152 800 l 46 800 m 465 126 l 558 126 q 676 145 633 126 q 784 273 752 179 q 805 465 805 334 q 779 676 805 610 q 669 789 744 766 q 556 800 633 800 l 465 800 l 465 543 l 654 543 l 654 418 l 465 418 l 465 126 "},"Ĺ":{"x_min":46,"x_max":951,"ha":937,"o":"m 951 378 l 951 0 l 46 0 l 46 127 l 124 127 q 184 143 172 127 q 194 185 192 155 q 196 256 194 192 l 196 669 q 191 763 194 747 q 170 794 188 787 q 124 800 154 800 l 46 800 l 46 926 l 617 926 l 617 800 l 538 800 q 478 782 490 800 q 468 741 470 771 q 467 669 468 733 l 467 126 l 632 126 q 724 142 694 126 q 799 257 778 174 q 811 378 809 297 l 951 378 m 382 1202 l 590 1202 q 635 1192 627 1202 q 642 1174 642 1184 q 622 1144 642 1153 l 344 1006 l 240 1006 l 382 1202 "},"r":{"x_min":46,"x_max":698,"ha":680,"o":"m 393 633 l 393 513 q 448 604 425 577 q 558 654 490 654 q 669 601 632 654 q 698 503 698 562 q 661 399 698 435 q 579 367 628 367 q 503 395 533 367 q 474 470 474 424 q 534 555 474 536 q 508 560 517 560 q 456 536 483 560 q 399 432 412 497 q 393 336 393 395 l 393 248 q 396 145 393 155 q 416 123 401 126 q 458 120 426 120 l 505 120 l 505 0 l 46 0 l 46 120 l 96 120 q 150 129 140 120 q 161 168 159 138 q 162 248 161 178 l 162 384 q 158 487 161 478 q 138 509 153 505 q 96 513 128 513 l 46 513 l 46 633 l 393 633 "},"‒":{"x_min":47,"x_max":779,"ha":824,"o":"m 47 415 l 779 415 l 779 250 l 47 250 l 47 415 "},"":{"x_min":36,"x_max":665,"ha":702,"o":"m 52 633 l 665 633 l 665 513 l 319 120 l 405 120 q 517 152 486 120 q 536 183 531 166 q 542 252 542 204 q 542 302 542 267 l 665 302 l 665 0 l 36 0 l 36 144 l 368 513 l 272 513 q 186 476 204 513 q 173 362 176 455 l 52 362 l 52 633 m 454 722 l 275 722 l 122 943 l 317 943 l 392 831 l 492 943 l 599 943 l 454 722 "},"Č":{"x_min":46,"x_max":926,"ha":984,"o":"m 926 926 l 926 567 l 784 567 q 742 732 782 673 q 666 795 715 773 q 576 814 624 814 q 397 703 456 814 q 351 470 351 615 q 395 232 351 318 q 579 112 457 112 q 762 236 712 112 q 784 372 780 281 l 926 372 q 894 194 926 269 q 718 14 840 69 q 514 -20 641 -20 q 222 63 336 -20 q 101 205 142 121 q 46 457 46 320 q 212 847 46 716 q 517 946 336 946 q 695 909 631 946 q 764 850 726 891 l 784 926 l 926 926 m 610 1007 l 412 1007 l 221 1202 l 431 1202 l 548 1103 l 678 1202 l 800 1202 l 610 1007 "},"x":{"x_min":1,"x_max":855,"ha":857,"o":"m 15 633 l 465 633 l 465 513 l 439 513 q 415 500 415 513 q 427 477 415 490 l 486 417 l 557 480 q 568 499 568 490 q 544 513 568 513 l 513 513 l 513 633 l 846 633 l 846 513 l 814 513 q 752 501 776 513 q 692 455 738 495 l 557 340 l 698 193 q 759 134 746 145 q 820 120 781 120 l 855 120 l 855 0 l 394 0 l 394 120 l 415 120 q 450 135 450 120 q 439 156 450 144 l 370 231 l 297 157 q 287 136 287 146 q 309 120 287 120 l 339 120 l 339 0 l 1 0 l 1 120 l 49 120 q 101 130 82 120 q 178 193 123 142 l 297 305 l 155 453 q 103 498 127 483 q 50 513 81 513 l 15 513 l 15 633 "},"è":{"x_min":45,"x_max":690,"ha":741,"o":"m 542 241 l 687 241 q 636 85 675 144 q 399 -20 566 -20 q 167 47 256 -20 q 70 180 102 96 q 45 320 45 248 q 173 589 45 500 q 391 653 262 653 q 570 612 490 653 q 671 506 637 578 q 690 426 690 469 q 641 314 690 356 q 551 282 604 282 q 459 318 494 282 q 430 391 430 349 q 465 470 430 440 q 517 491 490 491 q 542 487 526 491 q 446 528 499 528 q 300 310 300 528 q 328 167 300 224 q 433 105 359 105 q 542 241 535 105 m 476 722 l 298 722 l 145 943 l 340 943 l 415 831 l 514 943 l 622 943 l 476 722 "},"Ø":{"x_min":46,"x_max":1127,"ha":1120,"o":"m 467 420 l 467 256 q 470 162 468 177 q 492 131 474 138 q 538 126 507 126 l 617 126 l 617 0 l 46 0 l 46 126 l 124 126 q 184 142 172 126 q 194 184 192 154 q 196 256 194 192 l 196 669 q 191 763 194 747 q 170 794 188 787 q 124 800 154 800 l 46 800 l 46 926 l 665 926 q 820 916 778 926 q 968 822 919 894 q 1006 702 1006 769 q 953 561 1006 620 q 849 498 913 515 q 777 483 826 491 q 905 441 869 470 q 948 373 937 415 q 956 294 956 342 l 956 197 q 968 128 956 142 q 994 118 979 118 q 1027 140 1019 118 q 1034 259 1033 157 l 1123 259 q 1127 189 1127 210 q 1075 39 1127 93 q 914 -20 1017 -20 q 775 15 832 -20 q 682 253 682 73 l 683 344 q 651 411 683 394 q 582 420 633 420 l 467 420 m 467 539 l 561 539 q 654 545 629 539 q 712 593 693 557 q 729 670 729 626 q 682 780 729 751 q 580 800 650 800 l 467 800 l 467 539 m 619 1007 l 420 1007 l 229 1202 l 439 1202 l 557 1103 l 686 1202 l 808 1202 l 619 1007 "},"Ń":{"x_min":46,"x_max":1171,"ha":1199,"o":"m 511 926 l 864 285 l 864 669 q 860 763 862 747 q 838 794 856 787 q 792 800 822 800 l 707 800 l 707 926 l 1171 926 l 1171 800 l 1092 800 q 1032 783 1044 800 q 1022 741 1024 771 q 1021 669 1022 734 l 1021 0 l 721 0 l 353 674 l 353 255 q 356 162 354 177 q 378 131 360 138 q 425 126 394 126 l 512 126 l 512 0 l 46 0 l 46 126 l 124 126 q 184 142 172 126 q 194 184 192 154 q 196 255 194 191 l 196 669 q 192 763 194 747 q 170 794 188 787 q 124 800 154 800 l 46 800 l 46 926 l 511 926 m 645 1202 l 852 1202 q 897 1192 889 1202 q 904 1174 904 1184 q 885 1144 904 1153 l 606 1006 l 503 1006 l 645 1202 "},"÷":{"x_min":10,"x_max":686,"ha":695,"o":"m 349 811 q 418 782 389 811 q 450 708 450 752 q 420 636 450 667 q 347 607 389 607 q 275 637 305 607 q 246 708 246 667 q 276 782 246 752 q 349 811 307 811 m 349 337 q 418 308 389 337 q 450 234 450 278 q 420 162 450 193 q 347 133 389 133 q 275 163 306 133 q 246 234 246 193 q 276 308 246 278 q 349 337 307 337 m 10 555 l 686 555 l 686 391 l 10 391 l 10 555 "},"h":{"x_min":37,"x_max":935,"ha":940,"o":"m 387 926 l 387 546 q 609 653 454 653 q 798 581 742 653 q 829 498 826 546 q 832 415 832 471 l 832 248 q 835 145 832 155 q 855 123 840 127 q 897 120 866 120 l 935 120 l 935 0 l 518 0 l 518 120 l 524 120 q 576 129 567 120 q 587 168 585 138 q 588 248 587 178 l 588 345 q 583 461 588 437 q 493 528 569 528 q 408 488 437 528 q 387 407 387 458 l 387 248 q 390 145 387 155 q 410 123 395 126 q 453 120 422 120 l 468 120 l 468 0 l 37 0 l 37 120 l 83 120 q 137 129 127 120 q 148 168 146 138 q 149 248 148 178 l 149 677 q 145 780 148 770 q 125 802 140 799 q 83 806 115 806 l 37 806 l 37 926 l 387 926 "},".":{"x_min":54,"x_max":280,"ha":332,"o":"m 168 213 q 250 175 216 213 q 280 100 280 143 q 242 16 280 50 q 166 -13 210 -13 q 83 24 117 -13 q 54 101 54 56 q 91 183 54 149 q 168 213 123 213 "},"f":{"x_min":49,"x_max":652,"ha":551,"o":"m 397 633 l 515 633 l 515 513 l 397 513 l 397 248 q 400 145 397 155 q 419 123 405 127 q 462 120 432 120 l 515 120 l 515 0 l 49 0 l 49 120 l 94 120 q 147 129 137 120 q 158 168 156 138 q 159 248 158 178 l 159 513 l 49 513 l 49 633 l 159 633 l 159 709 q 426 945 159 945 q 592 901 531 945 q 652 793 652 859 q 620 715 652 746 q 543 689 592 689 q 470 714 497 689 q 448 772 448 737 q 478 834 448 814 q 515 849 489 841 q 480 858 496 858 q 390 763 390 858 q 393 694 390 747 q 397 633 395 664 "},"“":{"x_min":42,"x_max":589,"ha":624,"o":"m 570 945 l 570 884 q 503 854 527 874 q 456 784 473 830 q 499 798 475 798 q 558 773 534 798 q 589 697 589 743 q 548 614 589 646 q 470 588 514 588 q 371 637 407 588 q 347 723 347 671 q 440 899 347 836 q 570 945 489 931 m 264 945 l 264 884 q 198 854 222 874 q 151 784 168 830 q 193 798 169 798 q 252 773 228 798 q 283 698 283 743 q 242 614 283 646 q 165 588 209 588 q 65 637 102 588 q 42 725 42 670 q 135 899 42 836 q 264 945 183 931 "},"A":{"x_min":-26,"x_max":1048,"ha":1021,"o":"m 359 926 l 680 926 l 896 229 q 940 140 919 156 q 1001 126 958 126 l 1048 126 l 1048 0 l 520 0 l 520 126 l 574 126 q 626 131 616 126 q 641 158 641 139 q 622 229 641 170 l 599 301 l 314 301 l 290 229 q 272 160 272 170 q 336 126 272 126 l 397 126 l 397 0 l -26 0 l -26 126 l 18 126 q 75 140 56 126 q 123 229 98 156 l 359 926 m 562 421 l 459 732 l 352 421 l 562 421 "},"‘":{"x_min":44,"x_max":285,"ha":319,"o":"m 266 945 l 266 884 q 199 854 223 874 q 153 784 169 830 q 195 798 171 798 q 255 773 230 798 q 285 697 285 743 q 245 614 285 646 q 167 588 210 588 q 68 637 104 588 q 44 724 44 671 q 136 899 44 836 q 266 945 185 931 "},"O":{"x_min":46,"x_max":1044,"ha":1090,"o":"m 544 946 q 861 862 739 946 q 998 693 953 798 q 1044 457 1044 586 q 968 179 1044 297 q 745 10 891 60 q 551 -20 657 -20 q 208 85 343 -20 q 93 232 132 144 q 46 461 46 338 q 130 757 46 634 q 544 946 259 946 m 550 814 q 395 719 443 814 q 353 455 353 635 q 393 195 353 273 q 545 103 442 103 q 705 212 660 103 q 737 459 737 292 q 697 719 737 640 q 550 814 649 814 "},"Đ":{"x_min":46,"x_max":1112,"ha":1158,"o":"m 46 800 l 46 926 l 620 926 q 816 904 746 926 q 1036 744 952 862 q 1112 472 1112 638 q 1024 175 1112 292 q 764 16 931 51 q 583 0 689 0 l 46 0 l 46 126 l 122 126 q 182 142 170 126 q 192 184 190 154 q 194 255 192 191 l 194 418 l 46 418 l 46 543 l 194 543 l 194 669 q 189 763 192 747 q 168 794 186 787 q 122 800 152 800 l 46 800 m 465 126 l 558 126 q 676 145 633 126 q 784 273 752 179 q 805 465 805 334 q 779 676 805 610 q 669 789 744 766 q 556 800 633 800 l 465 800 l 465 543 l 654 543 l 654 418 l 465 418 l 465 126 "},"3":{"x_min":57,"x_max":819,"ha":870,"o":"m 335 385 l 335 500 q 362 501 351 500 q 441 515 407 501 q 510 623 510 546 q 472 706 510 674 q 348 744 428 744 q 244 719 284 744 q 207 685 227 709 q 245 691 233 691 q 303 664 279 691 q 325 604 325 641 q 287 520 325 554 q 205 489 252 489 q 114 529 151 489 q 79 625 79 569 q 121 743 79 688 q 436 859 208 859 q 713 785 619 859 q 787 635 787 727 q 722 504 787 552 q 604 452 680 474 q 731 402 683 435 q 819 239 819 341 q 699 42 819 117 q 445 -21 600 -21 q 222 19 329 -21 q 88 115 136 52 q 57 216 57 156 q 106 328 57 287 q 193 360 142 360 q 291 317 256 360 q 317 242 317 286 q 272 154 317 183 q 228 142 252 142 q 207 143 221 142 q 255 109 231 119 q 349 94 297 94 q 486 137 437 94 q 535 245 535 180 q 503 334 535 296 q 344 386 458 386 l 335 385 "},"9":{"x_min":64,"x_max":819,"ha":870,"o":"m 560 404 q 498 350 530 367 q 365 323 442 323 q 158 390 242 323 q 64 585 64 466 q 180 798 64 718 q 413 859 269 859 q 713 747 610 859 q 819 418 819 632 q 686 76 819 191 q 393 -20 573 -20 q 218 11 298 -20 q 122 86 156 34 q 100 167 100 121 q 146 269 100 233 q 225 294 178 294 q 314 260 283 294 q 340 191 340 231 q 318 130 340 153 q 270 108 304 117 q 354 86 311 86 q 489 139 434 86 q 555 305 541 190 q 560 404 559 341 m 433 750 q 335 699 370 750 q 308 588 308 658 q 353 463 308 500 q 424 438 382 438 q 522 485 489 438 q 547 592 547 521 q 433 750 547 750 "},"l":{"x_min":37,"x_max":496,"ha":509,"o":"m 387 926 l 387 248 q 390 145 387 154 q 410 123 395 126 q 453 120 422 120 l 496 120 l 496 0 l 37 0 l 37 120 l 83 120 q 137 129 127 120 q 148 168 146 139 q 149 248 148 178 l 149 677 q 145 780 148 770 q 125 802 140 798 q 83 806 115 806 l 37 806 l 37 926 l 387 926 "},"4":{"x_min":39,"x_max":833,"ha":870,"o":"m 694 840 l 694 369 l 833 369 l 833 241 l 694 241 q 695 199 694 212 q 713 134 696 147 q 765 126 725 126 l 833 126 l 833 0 l 297 0 l 297 126 l 371 126 q 431 142 420 126 q 441 184 439 155 q 442 216 441 188 q 443 241 442 228 l 39 241 l 39 369 l 472 840 l 694 840 m 443 369 l 443 617 l 207 369 l 443 369 "},"Ť":{"x_min":-8,"x_max":928,"ha":920,"o":"m -8 926 l 928 926 l 928 565 l 778 565 q 779 597 779 588 q 743 742 779 691 q 624 800 703 800 q 595 799 611 800 l 595 256 q 598 162 596 176 q 620 131 602 138 q 666 126 635 126 l 745 126 l 745 0 l 169 0 l 169 126 l 247 126 q 306 142 295 126 q 317 184 315 155 q 319 256 317 191 l 319 799 q 219 778 254 799 q 147 670 164 746 q 136 565 137 630 l -8 565 l -8 926 m 560 1007 l 362 1007 l 170 1202 l 381 1202 l 498 1103 l 627 1202 l 749 1202 l 560 1007 "},"Ü":{"x_min":23,"x_max":1097,"ha":1120,"o":"m 23 800 l 23 926 l 588 926 l 588 800 l 515 800 q 455 783 467 800 q 445 741 447 771 q 444 669 445 734 l 444 345 q 449 227 444 253 q 618 112 472 112 q 758 166 718 112 q 784 236 777 192 q 790 345 790 270 l 790 669 q 786 763 788 748 q 764 794 782 787 q 718 800 748 800 l 651 800 l 651 926 l 1097 926 l 1097 800 l 1018 800 q 958 783 970 800 q 948 741 950 771 q 947 669 948 734 l 947 298 q 927 156 947 204 q 793 17 888 63 q 573 -20 715 -20 q 234 90 329 -20 q 179 207 191 140 q 173 298 173 241 l 173 669 q 169 763 171 748 q 147 794 165 787 q 101 800 131 800 l 23 800 m 420 1205 q 493 1171 463 1205 q 519 1105 519 1143 q 485 1030 519 1060 q 419 1005 457 1005 q 344 1038 374 1005 q 319 1106 319 1066 q 352 1179 319 1148 q 420 1205 380 1205 m 749 1205 q 822 1171 792 1205 q 848 1105 848 1143 q 814 1030 848 1060 q 747 1005 786 1005 q 673 1038 703 1005 q 648 1106 648 1066 q 681 1179 648 1148 q 749 1205 709 1205 "},"à":{"x_min":46,"x_max":698,"ha":680,"o":"m 393 633 l 393 513 q 448 604 425 577 q 558 654 490 654 q 669 601 632 654 q 698 503 698 562 q 661 399 698 435 q 579 367 628 367 q 503 395 533 367 q 474 470 474 424 q 534 555 474 536 q 508 560 517 560 q 456 536 483 560 q 399 432 412 497 q 393 336 393 395 l 393 248 q 396 145 393 155 q 416 123 401 126 q 458 120 426 120 l 505 120 l 505 0 l 46 0 l 46 120 l 96 120 q 150 129 140 120 q 161 168 159 138 q 162 248 161 178 l 162 384 q 158 487 161 478 q 138 509 153 505 q 96 513 128 513 l 46 513 l 46 633 l 393 633 m 342 943 l 503 943 q 543 937 534 943 q 556 915 556 929 q 536 884 556 902 l 359 722 l 265 722 l 342 943 "},"Ś":{"x_min":56,"x_max":922,"ha":959,"o":"m 884 926 l 884 581 l 747 581 q 671 740 734 684 q 475 806 596 806 q 361 783 409 806 q 307 704 307 757 q 357 634 307 658 q 488 600 391 618 q 705 548 646 571 q 922 273 922 467 q 820 55 922 134 q 687 -6 760 8 q 548 -20 622 -20 q 319 15 414 -20 q 211 70 275 32 l 184 0 l 56 0 l 56 358 l 196 358 q 237 246 209 285 q 390 134 291 170 q 518 112 451 112 q 638 147 598 112 q 668 213 668 175 q 613 299 668 268 q 494 333 581 317 q 283 383 353 360 q 101 499 152 428 q 57 652 57 562 q 105 812 57 743 q 261 919 158 885 q 441 946 341 946 q 647 908 561 946 q 734 852 686 891 l 759 926 l 884 926 m 500 1202 l 708 1202 q 753 1192 745 1202 q 760 1174 760 1184 q 740 1143 760 1153 l 461 1006 l 359 1006 l 500 1202 "},"ó":{"x_min":46,"x_max":775,"ha":821,"o":"m 408 653 q 689 547 589 653 q 775 316 775 458 q 708 112 775 199 q 409 -20 608 -20 q 227 15 298 -20 q 79 160 128 64 q 46 315 46 228 q 153 571 46 480 q 408 653 250 653 m 414 538 q 331 487 356 538 q 300 312 300 426 q 322 152 300 207 q 408 95 345 95 q 495 154 471 95 q 521 333 521 215 q 500 480 521 431 q 414 538 476 538 m 403 943 l 564 943 q 604 937 596 943 q 617 915 617 929 q 597 884 617 902 l 419 722 l 326 722 l 403 943 "},"ŗ":{"x_min":46,"x_max":698,"ha":680,"o":"m 393 633 l 393 513 q 448 604 425 577 q 558 654 489 654 q 669 601 632 654 q 698 503 698 562 q 661 399 698 435 q 579 367 628 367 q 503 395 533 367 q 474 470 474 424 q 534 555 474 536 q 508 560 517 560 q 456 536 483 560 q 399 432 412 497 q 393 336 393 396 l 393 248 q 396 145 393 155 q 416 123 401 126 q 458 120 427 120 l 505 120 l 505 0 l 46 0 l 46 120 l 96 120 q 150 129 140 120 q 161 168 159 138 q 162 248 161 178 l 162 384 q 158 487 161 478 q 138 509 153 505 q 96 513 127 513 l 46 513 l 46 633 l 393 633 m 194 -339 l 194 -293 q 210 -293 202 -293 q 273 -278 246 -293 q 310 -223 300 -264 q 249 -242 276 -242 q 182 -213 207 -242 q 161 -158 161 -190 q 196 -90 161 -115 q 273 -69 227 -69 q 365 -104 331 -69 q 398 -191 398 -136 q 345 -300 398 -258 q 227 -341 294 -341 q 194 -339 213 -341 "}}}
